<svg width="20" height="20" viewBox="0 0 20 20" fill="none" xmlns="http://www.w3.org/2000/svg">
<path d="M10 0C5.03719 0 1 4.03719 1 9C1 10.693 1.47042 12.3366 2.36281 13.7638C2.00731 15.0092 1.36519 17.3652 1.35827 17.3897C1.32504 17.5116 1.36069 17.6417 1.45173 17.7293C1.54277 17.8169 1.67431 17.848 1.79408 17.8113L5.36154 16.714C6.75896 17.5559 8.35923 18 10 18C14.9628 18 19 13.9628 19 9C19 4.03719 14.9628 0 10 0ZM10 17.3077C8.43573 17.3077 6.91196 16.8705 5.59312 16.0439C5.53738 16.0089 5.47335 15.9913 5.40931 15.9913C5.37504 15.9913 5.34077 15.9965 5.30754 16.0065L2.1925 16.9653C2.42131 16.1301 2.83254 14.6361 3.07104 13.805C3.09873 13.7087 3.08315 13.6049 3.02881 13.5208C2.15442 12.1753 1.69231 10.612 1.69231 9C1.69231 4.41935 5.41935 0.692308 10 0.692308C14.5807 0.692308 18.3077 4.41935 18.3077 9C18.3077 13.5807 14.5807 17.3077 10 17.3077Z" fill="white"/>
<path d="M15.8809 11.1205C15.2419 10.7657 14.6978 10.4098 14.3007 10.1502C13.9975 9.9522 13.7784 9.80924 13.6178 9.72858C13.1688 9.50462 12.8285 9.66281 12.6991 9.79366C12.6828 9.80993 12.6683 9.82758 12.6558 9.84627C12.1895 10.5459 11.5807 11.215 11.4024 11.251C11.1964 11.2188 10.2324 10.6708 9.27424 9.87293C8.29601 9.05773 7.68055 8.27716 7.5902 7.74547C8.21778 7.09954 8.44382 6.69316 8.44382 6.2307C8.44382 5.75404 7.33197 3.764 7.13086 3.56289C6.92905 3.36143 6.47455 3.32993 5.77982 3.46839C5.71301 3.48189 5.65139 3.51477 5.60293 3.56289C5.51882 3.647 3.55059 5.65366 4.48589 8.08573C5.51259 10.7549 8.14786 13.8575 11.5076 14.3615C11.8894 14.4186 12.2474 14.447 12.5824 14.447C14.559 14.447 15.7255 13.4525 16.054 11.4798C16.0786 11.3354 16.009 11.1914 15.8809 11.1205ZM11.6104 13.6768C8.05751 13.1441 5.81962 9.62404 5.13216 7.8372C4.45024 6.06489 5.70782 4.4847 6.02351 4.12747C6.28036 4.08385 6.5507 4.0655 6.66355 4.08316C6.89928 4.41097 7.71551 5.95308 7.75151 6.2307C7.75151 6.41243 7.69232 6.66547 6.98755 7.37058C6.92247 7.43531 6.88613 7.52323 6.88613 7.61531C6.88613 9.42777 10.709 11.9422 11.3861 11.9422C11.9749 11.9422 12.7427 10.9526 13.1799 10.3077C13.2052 10.3087 13.2477 10.3174 13.3083 10.3479C13.4329 10.4105 13.6489 10.5514 13.922 10.73C14.2827 10.9657 14.7618 11.2787 15.3274 11.603C15.0706 12.8388 14.3527 14.0887 11.6104 13.6768Z" fill="white"/>
</svg>
