<svg width="512" height="512" viewBox="0 0 512 512" fill="none" xmlns="http://www.w3.org/2000/svg">
<path d="M100.93 372.496L101 372.506V464.001H80V369.506L100.93 372.496Z" fill="#26BBFF"/>
<path d="M80 464.001H65V377.272L65.2285 377.155L80 369.549V464.001Z" fill="white"/>
<path d="M120 464.001H101V285.625L120 276.551V464.001Z" fill="white"/>
<path d="M155.792 292.955L156 293.05V464.001H120V276.55L155.792 292.955Z" fill="#26BBFF"/>
<path d="M384.633 197.578L385 197.975V464.001H321V128.79L384.633 197.578Z" fill="#26BBFF"/>
<path d="M321 464H263V156.096L263.213 155.996L321 128.791V464Z" fill="white"/>
<path d="M405.079 310.196L447.702 341.813L448 342.034V464.001H405V310.138L405.079 310.196Z" fill="#26BBFF"/>
<path d="M405 464.001H373V322.687L373.183 322.615L405 310.162V464.001Z" fill="white"/>
<path d="M188 464.001H156V65.3701L188 47.001V464.001Z" fill="white"/>
<path d="M262.623 132.825L263 133.259V464.001H188V47L262.623 132.825Z" fill="#26BBFF"/>
<path d="M236 464.001H210V238.632L236 218.632V464.001Z" fill="white"/>
<path d="M292.667 269.333L293 269.631V464H236V218.631L292.667 269.333Z" fill="#26BBFF"/>
</svg>
