<?xml version="1.0" encoding="UTF-8" standalone="no"?>
<svg
   xmlns:dc="http://purl.org/dc/elements/1.1/"
   xmlns:cc="http://creativecommons.org/ns#"
   xmlns:rdf="http://www.w3.org/1999/02/22-rdf-syntax-ns#"
   xmlns:svg="http://www.w3.org/2000/svg"
   xmlns="http://www.w3.org/2000/svg"
   xmlns:sodipodi="http://sodipodi.sourceforge.net/DTD/sodipodi-0.dtd"
   xmlns:inkscape="http://www.inkscape.org/namespaces/inkscape"
   width="199.99997pt"
   height="78.754257pt"
   viewBox="0 0 199.99997 78.754256"
   version="1.1"
   id="svg2"
   inkscape:version="0.91 r"
   sodipodi:docname="Kempinski Logo 2015.svg">
  <metadata
     id="metadata375">
    <rdf:RDF>
      <cc:Work
         rdf:about="">
        <dc:format>image/svg+xml</dc:format>
        <dc:type
           rdf:resource="http://purl.org/dc/dcmitype/StillImage" />
        <dc:title></dc:title>
      </cc:Work>
    </rdf:RDF>
  </metadata>
  <sodipodi:namedview
     pagecolor="#ffffff"
     bordercolor="#666666"
     borderopacity="1"
     objecttolerance="10"
     gridtolerance="10"
     guidetolerance="10"
     inkscape:pageopacity="0"
     inkscape:pageshadow="2"
     inkscape:window-width="1440"
     inkscape:window-height="876"
     id="namedview373"
     showgrid="false"
     inkscape:zoom="3.5881171"
     inkscape:cx="77.611588"
     inkscape:cy="-13.956051"
     inkscape:window-x="1280"
     inkscape:window-y="24"
     inkscape:window-maximized="1"
     inkscape:current-layer="svg2"
     fit-margin-top="0"
     fit-margin-left="0"
     fit-margin-right="0"
     fit-margin-bottom="0" />
  <defs
     id="defs4" />
  <path
     inkscape:connector-curvature="0"
     id="path131"
     d="m 130.63697,15.695681 c -1.49516,0 -3.59664,2.370207 -3.59664,3.500189 0,0.564991 0.4134,0.813036 0.92326,0.813036 1.52962,0 3.61044,-2.05326 3.61044,-3.403727 0,-0.434079 -0.32384,-0.909498 -0.93706,-0.909498"
     style="fill:#000000;fill-opacity:1;fill-rule:nonzero;stroke:none" />
  <path
     inkscape:connector-curvature="0"
     id="path133"
     d="m 194.06067,15.695681 c -1.49516,0 -3.59664,2.370207 -3.59664,3.500189 0,0.564991 0.41339,0.813036 0.92326,0.813036 1.52961,0 3.61044,-2.05326 3.61044,-3.403727 0,-0.434079 -0.33073,-0.909498 -0.93706,-0.909498"
     style="fill:#000000;fill-opacity:1;fill-rule:nonzero;stroke:none" />
  <path
     inkscape:connector-curvature="0"
     id="path135"
     d="M 90.77753,-4.8828129e-5 C 77.27976,-4.8828129e-5 56.14771,18.300152 44.68942,26.196248 47.89333,19.7333 50.93876,13.504617 54.1978,8.7710942 c 1.44693,-2.101491 1.04041,-2.707823 0.4203,-2.707823 -0.62011,0 -2.92142,0.895718 -11.78214,2.018811 -8.71601,1.102422 -13.41508,5.8221638 -13.41508,11.3136018 0,2.597581 1.13687,4.747303 2.41154,5.753264 0.45476,0.351397 0.88883,0.14469 0.39964,-0.558103 -0.6408,-0.923277 -1.54339,-2.63892 -1.54339,-4.320113 0,-3.596652 2.39776,-6.917697 6.59386,-8.474868 C 40.8654,10.459178 44.0762,10.438507 49.3816,9.6668122 41.89203,22.213749 29.52423,57.966665 13.35998,57.966665 8.00633,57.966665 4.6164,54.845432 2.96964,51.889564 2.46667,50.980066 2.2324,50.621779 1.41248,50.621779 0.57188,50.621779 0,51.200551 0,51.979135 c 0,3.824026 7.52402,7.103731 12.9948,7.103731 14.65531,0 23.35067,-16.129807 31.0056,-31.501701 4.42347,12.037068 8.69536,29.324418 23.03372,29.324418 5.82218,0 11.77526,-4.299445 14.45552,-7.730733 0.67523,-0.875046 0.42717,-1.398696 -0.31006,-0.620112 -2.28063,2.390878 -7.53781,6.55252 -13.31175,6.55252 -8.4473,0 -14.17989,-8.006339 -19.99518,-28.201327 9.43261,-7.462016 32.14249,-25.3212478 43.11159,-25.3212478 2.50112,0 4.27188,0.709685 4.27188,1.874117 0,1.329796 -1.5365,2.556239 -1.5365,2.893857 0,0.330727 0.33073,0.585661 0.73725,0.585661 1.40558,0 2.72848,-1.653632 2.72848,-3.279704 0,-2.087712 -2.94207,-3.658663028129 -6.40782,-3.658663028129"
     style="fill:#000000;fill-opacity:1;fill-rule:nonzero;stroke:none" />
  <path
     inkscape:connector-curvature="0"
     id="path137"
     d="m 199.73814,28.056584 c -0.17233,0 -0.38584,0.192924 -0.627,0.592553 -1.68119,2.721602 -8.42663,10.224961 -12.2989,10.224961 -1.01973,0 -1.56405,-0.964619 -1.56405,-2.025701 0,-3.720673 4.08584,-8.440415 4.08584,-9.7082 0,-0.351398 -0.4134,-0.592551 -0.86816,-0.592551 -1.56404,0 -2.03258,0.261824 -3.11433,1.791433 -2.12217,3.03166 -5.60168,10.417886 -9.21212,10.417886 -2.66648,0 -4.30632,-5.057359 -4.71974,-9.467046 1.22644,-1.109312 7.15197,-5.167601 8.84005,-5.829054 0.86126,-0.330727 0.42719,-1.701864 -0.53744,-1.701864 -0.66833,0 -8.84004,5.939296 -11.04489,7.510247 3.79648,-7.896095 9.03298,-18.486233 11.89928,-23.1646358 0.84059,-1.364247 3.19702,-3.651772 3.19702,-4.926447 0,-0.42718803 -0.17914,-0.64767203 -0.55811,-0.64767203 -2.65269,0 -7.33798,8.85382403 -19.3475,17.28045883 -1.44692,1.019742 -5.56033,3.534641 -5.82906,6.752335 -3.2728,0.0689 -5.40186,1.729422 -6.02885,3.727563 -2.54247,5.643021 -7.55849,10.273192 -9.99759,10.273192 -0.55121,0 -0.68902,-0.47542 -0.68902,-0.923279 0,-2.239293 3.74823,-7.413786 3.74823,-9.322353 0,-1.129982 -0.83369,-1.770764 -2.0257,-1.770764 -2.59069,0 -4.71974,1.612291 -7.44135,4.251213 0.25495,-0.751026 1.13689,-2.880078 1.3298,-3.341717 0.28938,-0.730354 -0.31695,-0.909496 -0.76479,-0.909496 -1.18512,0 -2.33576,0.695903 -2.61827,1.515828 -2.81117,4.485479 -8.66778,10.55569 -10.8175,10.55569 -0.43408,0 -0.65456,-0.358289 -0.65456,-1.047301 0,-2.122164 4.45101,-9.322355 4.82309,-10.128501 0.33072,-0.737244 -0.37208,-0.895716 -0.75792,-0.895716 -0.82682,0 -1.90167,0.365176 -2.5149,1.247114 -0.0759,0.110242 -0.17215,0.254934 -0.28938,0.427187 -2.65271,3.569092 -8.32329,8.130361 -13.03615,10.087159 3.22459,-2.425328 6.02887,-6.028867 6.02887,-9.026077 0,-1.743204 -1.33668,-2.735383 -3.12123,-2.735383 -1.98436,0 -4.14096,1.005959 -6.06332,2.508007 1.24024,-2.377096 2.63894,-4.705961 2.83875,-5.14693 0.3376,-0.737245 -0.36518,-0.895718 -0.75102,-0.895718 -0.86129,0 -2.30821,0.52365 -2.85942,1.5365 -1.52962,2.797395 -3.52775,7.055499 -4.78176,9.818443 -2.01191,2.790505 -5.05047,4.189203 -6.15289,4.189203 -0.42717,0 -0.66833,-0.316945 -0.66833,-0.916388 0,-2.204843 3.76201,-7.434457 3.76201,-9.329243 0,-1.109313 -0.86816,-1.763874 -1.95681,-1.763874 -2.47355,0 -4.34077,1.378027 -7.0486,3.982497 0.64078,-2.466669 -0.19292,-3.982497 -2.07393,-3.982497 -2.55624,0 -5.11936,2.239293 -7.22776,4.836874 0.42719,-1.191993 0.77859,-1.929238 0.77859,-3.100562 0,-1.185101 -0.70967,-1.736312 -1.72253,-1.736312 -5.69126,0 -9.68753,12.7123 -16.30896,12.7123 -1.83967,0 -2.70093,-1.274677 -2.70093,-2.852517 0,-0.385848 0.0413,-0.764804 0.10336,-1.150652 4.34767,-0.47542 11.13446,-4.478589 11.13446,-8.261273 0,-1.288456 -1.15066,-1.96369 -2.62514,-1.96369 -5.37431,0 -11.96127,6.848796 -11.96127,11.589209 0,2.935199 2.06703,4.712853 4.63705,4.712853 4.89889,0 8.93651,-4.5406 11.81658,-8.412855 1.79145,-2.397767 3.30727,-3.755125 3.81713,-3.755125 0.13088,0 0.22049,0.06202 0.22049,0.303167 0,1.48827 -4.08584,9.756433 -4.08584,10.72105 0,0.509871 0.50297,0.509871 0.96461,0.509871 1.89479,0 2.50802,-0.99907 3.63799,-3.348605 1.09554,-2.253075 5.53968,-8.764253 7.95121,-8.764253 0.47544,0 0.6339,0.316945 0.6339,0.771695 0,2.411547 -4.37524,9.69442 -4.37524,10.831292 0,0.509871 0.50299,0.509871 0.96463,0.509871 2.28062,0 2.88007,-1.798325 4.6026,-5.326075 1.71565,-3.52086 5.51901,-6.786783 7.02795,-6.786783 0.3445,0 0.46162,0.130915 0.46162,0.461638 0,1.316016 -3.94114,7.262204 -3.94114,9.577289 0,1.350467 0.93705,2.08082 2.38398,2.08082 1.55029,0 4.16165,-0.916387 6.53186,-3.107451 -4.77487,11.003548 -7.29666,18.410442 -17.39072,23.591825 -0.28938,0.151587 -0.28938,0.385847 0.0827,0.385847 0.47542,0 1.43315,-0.323835 2.37709,-0.785474 9.41193,-4.616392 13.07749,-11.258481 17.57674,-20.828881 3.14878,-6.683431 6.0771,-11.816582 9.08809,-11.816582 0.84748,0 1.13687,0.737243 1.13687,1.446928 0,1.846556 -2.84563,6.008198 -5.62923,8.082129 -1.63986,1.219555 -2.52869,1.591621 -2.52869,2.253074 0,0.482309 0.53743,0.778585 1.06797,0.778585 4.14786,0 9.97692,-3.300373 14.51062,-7.524028 -0.97839,1.936128 -1.79832,3.941158 -1.79832,5.236503 0,1.591622 1.16444,2.287525 2.4391,2.287525 3.1419,0 7.29666,-3.989389 10.78996,-8.178591 -1.55717,3.527749 -3.44506,6.855685 -3.44506,7.661831 0,0.509871 0.50297,0.509871 0.96461,0.509871 2.28753,0 2.88007,-1.798325 4.60262,-5.326075 1.70186,-3.486409 5.67057,-6.786783 7.18641,-6.786783 0.3445,0 0.54432,0.130915 0.54432,0.461638 0,1.316016 -3.94117,7.262204 -3.94117,9.577289 0,1.350467 0.93706,2.08082 2.384,2.08082 4.11341,0 9.06741,-4.6784 11.96815,-9.666861 0.89574,2.039481 3.19015,4.078961 3.19015,5.994419 0,1.384917 -1.15754,2.184173 -2.25997,2.184173 -2.31508,0 -2.54936,-1.922346 -3.60354,-1.922346 -0.90261,0 -1.45382,0.523648 -1.48827,1.0473 -0.0965,1.226443 2.446,2.356426 4.17543,2.356426 2.90074,0 5.97373,-2.135942 5.97373,-5.195164 0,-3.045439 -3.52085,-5.14693 -3.52085,-7.455126 0,-1.095532 0.80614,-1.908567 2.32886,-1.908567 0.53054,0 1.15754,0.186034 1.87412,0.599441 0.65457,0.640784 1.63985,1.026631 2.75605,1.026631 1.30913,0 2.96276,-0.875047 3.52087,-1.47449 0.50297,-0.537429 0.22049,-0.964619 -0.26183,-0.695903 -0.33762,0.186034 -1.08864,0.420298 -2.05325,0.420298 -1.19889,0 -2.24619,-0.689014 -2.24619,-2.177283 0,-3.479518 7.29665,-6.366485 13.90429,-13.070587 -4.16164,7.861644 -11.05177,22.379161 -13.00168,26.492572 -0.67523,1.412479 -1.19199,2.487338 -1.19199,2.886967 0,0.52365 0.37205,0.5581 0.94393,0.5581 1.26091,0 2.27376,-0.406518 3.20392,-2.425327 0.59944,-1.295346 2.03948,-4.368346 3.85848,-8.164811 0.689,6.373375 2.95586,10.590138 6.79367,10.590138 2.61826,0 4.81621,-1.694972 6.92458,-4.699071 -0.0619,2.997209 1.42627,4.699071 4.17543,4.699071 5.6568,0 13.84229,-9.308572 13.84229,-12.395353 0,-0.192925 -0.15857,-0.254936 -0.26183,-0.254936 M 67.53714,26.85081 c 0.49609,0 0.79237,0.261826 0.79237,0.9095 0,1.715643 -4.265,5.643019 -7.6825,6.400935 1.24023,-3.865365 5.2434,-7.310435 6.89013,-7.310435"
     style="fill:#000000;fill-opacity:1;fill-rule:nonzero;stroke:none" />
  <path
     inkscape:connector-curvature="0"
     id="path139"
     d="m 44.49649,77.810256 c -0.26183,0 -0.53054,-0.0069 -0.66145,-0.17226 -0.069,-0.07579 -0.0965,-0.351398 -0.0965,-0.833706 l 0,-0.04135 c 0,-0.640784 0.007,-1.295348 0.0141,-1.94302 0.007,-0.654563 0.0141,-1.302235 0.0141,-1.943019 l 0,-0.14469 c 0,-0.248045 -0.0141,-0.923278 0.0758,-1.054191 0.124,-0.192924 0.4892,-0.199813 0.75791,-0.206703 0.0483,0 0.0965,0 0.13775,0 l 0.0965,-0.0069 0,-0.52365 -3.54154,0 0,0.420299 0.0141,0.110242 0.10336,0 c 1.00595,0.03445 1.06797,0.03445 1.06797,1.02663 0,0.56499 -0.007,1.123093 -0.0206,1.694973 l -3.86538,0 0,-0.01376 c 0.0141,-0.675234 0.0206,-1.357358 0.0344,-2.03259 l 0,-0.03445 c 0,-0.268716 0.007,-0.399629 0.19291,-0.509871 0.16528,-0.110243 0.45475,-0.117139 0.68903,-0.130915 l 0.22736,-0.0069 0,-0.523651 -3.51397,0 0,0.523651 0.26872,0.02067 c 0.61321,0.04135 0.81992,0.04823 0.81992,0.757916 0,0.716574 -0.007,1.440038 -0.0141,2.163502 -0.0141,0.723464 -0.0206,1.440038 -0.0206,2.156612 l 0,0.103345 c 0,0.254935 0.007,0.737245 -0.11024,0.916388 -0.13776,0.199813 -0.47542,0.220484 -0.74413,0.234265 l -0.2136,0.0069 0.0206,0.544321 3.56219,0 0,-0.544321 -0.19981,-0.0069 c -0.75792,-0.01376 -1.00595,-0.02067 -1.00595,-0.840597 0,-0.378956 0,-0.757914 0,-1.136872 0.007,-0.337616 0.007,-0.682124 0.007,-1.02663 l 3.86538,0 c 0,0.241155 0,0.475419 0.007,0.716574 0,0.268714 0.007,0.54432 0.007,0.813036 0,1.033521 -0.10337,1.226445 -0.13088,1.260895 -0.17216,0.199813 -0.50987,0.206705 -0.79925,0.213594 -0.0759,0 -0.14464,0 -0.21359,0.0069 l -0.10336,0 0,0.544321 3.62422,0 0,-0.537432 -0.0965,-0.0069 c -0.0758,-0.01376 -0.16527,-0.01376 -0.25493,-0.01376"
     style="fill:#000000;fill-opacity:1;fill-rule:nonzero;stroke:none" />
  <path
     inkscape:connector-curvature="0"
     id="path141"
     d="m 50.0155,70.830547 c -2.26686,0 -4.03764,1.681193 -4.03764,3.830915 0,1.412478 0.42032,2.266856 1.50207,3.052331 0.6959,0.509869 1.47447,0.764806 2.39776,0.764806 1.15066,0 2.08082,-0.399629 2.94209,-1.267785 0.65455,-0.647674 1.05419,-1.612293 1.05419,-2.514901 0,-0.695904 -0.13775,-1.681192 -0.79236,-2.459778 -0.79927,-0.930167 -1.83278,-1.405588 -3.06611,-1.405588 m 1.68118,6.270024 c -0.42719,0.4892 -1.05418,0.806146 -1.59851,0.806146 -1.69498,0 -2.61136,-1.736314 -2.61136,-3.376168 0,-1.212663 0.6339,-3.148791 2.33576,-3.148791 0.77169,0 1.37802,0.378958 1.92235,1.178213 0.34451,0.516761 0.58566,1.543391 0.58566,2.135942 0,0.709684 -0.069,1.736316 -0.6339,2.404658"
     style="fill:#000000;fill-opacity:1;fill-rule:nonzero;stroke:none" />
  <path
     inkscape:connector-curvature="0"
     id="path143"
     d="m 61.47379,70.651404 -0.30316,-0.04135 -0.0344,0.05512 c -0.17215,0.248045 -0.31005,0.316947 -0.59253,0.316947 l -4.35457,0 c -0.33762,0 -0.565,-0.02067 -0.72347,-0.296276 l -0.0206,-0.04135 -0.31695,-0.05512 -0.56499,2.246183 0.15858,0.04822 c 0.0896,0.02757 0.17215,0.05512 0.26871,0.0689 l 0.0896,0.0069 0.0344,-0.07579 c 0.24115,-0.571882 0.54433,-1.281566 1.21266,-1.322906 0.17914,-0.01376 0.37897,-0.01376 0.55811,-0.01376 l 0.56498,0 0,2.156613 c 0,0.48231 0,0.97151 -0.007,1.46071 -0.007,0.482309 -0.0141,0.971509 -0.0141,1.453817 0,0.227374 0,0.751027 -0.124,0.943949 -0.13088,0.199815 -0.43407,0.220484 -0.7028,0.241155 -0.0827,0 -0.16528,0.0069 -0.23426,0.02067 l -0.0896,0.01376 -0.0141,0.530541 3.77579,0 0,-0.537431 -0.21359,-0.02067 c -0.77169,-0.07579 -1.06109,-0.103345 -1.06109,-0.957729 0,-1.777656 0.0275,-3.575981 0.0483,-5.319185 0.14463,-0.0069 0.2756,-0.0069 0.43407,-0.0069 0.39962,0 1.08175,0 1.42627,0.337616 0.11712,0.117139 0.24114,0.516759 0.32383,1.012849 l 0.0141,0.08957 0.0896,0 c 0.11712,0 0.24116,-0.01376 0.3583,-0.03445 l 0.0896,-0.01376 0,-0.08957 c 0,-0.689013 0,-1.391808 -0.0621,-2.094601 z m 0,0"
     style="fill:#000000;fill-opacity:1;fill-rule:nonzero;stroke:none" />
  <path
     inkscape:connector-curvature="0"
     id="path145"
     d="m 68.79799,76.122171 c -0.20669,0.613222 -0.62698,1.391809 -1.12307,1.584732 -0.25495,0.09647 -0.59256,0.151588 -0.93018,0.151588 -0.44785,0 -1.17132,-0.04135 -1.33668,-0.103346 -0.0141,-0.110242 -0.0206,-0.461639 -0.0206,-1.067971 l 0,-1.570951 c 0,-0.165363 0.007,-0.268716 0.007,-0.323837 0.0206,0 0.0413,0 0.0759,0 l 0.29626,0 c 0.64768,0 1.03353,0.06202 1.15754,0.179143 0.16528,0.158466 0.19294,0.420299 0.22049,0.675234 l 0.0206,0.192924 0.48921,0 0.007,-2.638923 -0.46852,0 -0.0344,0.186034 c -0.0759,0.447859 -0.13088,0.744135 -0.59256,0.854377 -0.22738,0.04822 -0.47542,0.05512 -0.6959,0.05512 l -0.37897,0 c -0.0275,0 -0.0619,0 -0.0896,-0.0069 0,-0.02757 0,-0.04822 0,-0.07579 0,-0.392737 0,-0.785476 0.007,-1.178213 0.007,-0.392738 0.0141,-0.785475 0.0141,-1.178212 0,-0.04135 0,-0.08269 0,-0.124018 -0.007,-0.110242 -0.0141,-0.213595 0.007,-0.316946 0.0482,-0.01376 0.15151,-0.03445 0.4134,-0.03445 1.35047,0 1.97748,0.05512 2.68715,1.343577 l 0.0413,0.07579 0.45474,-0.158467 -0.0206,-0.09647 c -0.11713,-0.454748 -0.30316,-0.888827 -0.47542,-1.302235 -0.0552,-0.117139 -0.0965,-0.234264 -0.14464,-0.344506 l -0.0275,-0.06202 -0.0619,-0.0069 c -0.23426,-0.02757 -0.48921,-0.03445 -0.78547,-0.03445 -0.44097,0 -0.88883,0.02757 -1.31603,0.05512 -0.42719,0.02757 -0.87504,0.05512 -1.30913,0.05512 -0.2756,0 -0.55809,-0.0069 -0.84059,-0.01376 -0.28248,-0.0069 -0.55809,-0.0069 -0.84059,-0.0069 l -0.10336,0 -0.0206,0.516761 0.13776,0.0069 c 0.74414,0.02757 0.90261,0.03445 0.90261,0.799256 0,0.716574 0,1.433148 0.007,2.149722 0,0.723464 0,1.440038 0,2.149722 0,0.261826 0,0.943948 -0.16527,1.157543 -0.0896,0.117139 -0.42719,0.179145 -1.00597,0.179145 l -0.35828,0 0,0.52365 0.11024,0 c 0.50987,-0.01376 1.01285,-0.02067 1.51582,-0.02067 l 0.71657,0 c 0.66146,0 1.31603,0.0069 1.97748,0.0069 0.66146,0.0069 1.32291,0.01376 1.97747,0.01376 l 0.0896,0 0.0206,-0.08957 c 0.10336,-0.544319 0.15152,-1.109311 0.20671,-1.660522 0.007,-0.137812 0.0206,-0.282495 0.0344,-0.427188 l 0.0141,-0.110242 -0.43407,-0.03445 z m 0,0"
     style="fill:#000000;fill-opacity:1;fill-rule:nonzero;stroke:none" />
  <path
     inkscape:connector-curvature="0"
     id="path147"
     d="m 77.0455,76.294424 c -0.23428,0.365179 -0.55811,0.868158 -0.84749,1.109313 -0.35829,0.296277 -1.04042,0.454748 -1.52961,0.454748 l -0.24116,0 c -0.61323,0 -0.77859,-0.06202 -0.81992,-0.09647 -0.0141,-0.02067 -0.0758,-0.137811 -0.0758,-0.751026 l 0,-0.03445 c 0,-0.799256 0.007,-1.605402 0.0141,-2.404657 0.007,-0.806146 0.0141,-1.612291 0.0141,-2.404657 0,-0.241156 0,-0.4892 0.19293,-0.599443 0.13776,-0.07579 0.56499,-0.09647 0.88194,-0.09647 l 0.14464,0 0,-0.530542 -3.65867,0 0,0.516761 0.0965,0.01376 c 0.14463,0.01376 0.2687,0.02755 0.37895,0.04135 0.57878,0.04823 0.627,0.05512 0.627,0.881938 l 0,4.154752 c 0,0.303166 0,0.868156 -0.16527,1.095532 -0.124,0.158467 -0.79237,0.179143 -1.0473,0.186032 l -0.22049,0.0069 0,0.530541 0.11024,0 c 0.6959,-0.01376 1.37803,-0.01376 2.06705,-0.01376 l 1.1093,0 c 0.90261,0 1.81212,0.01376 2.71471,0.02067 l 0.069,0.0069 0.0275,-0.0689 c 0.2756,-0.558101 0.51676,-1.226445 0.70969,-1.97747 l 0.0275,-0.08957 -0.44787,-0.165363 z m 0,0"
     style="fill:#000000;fill-opacity:1;fill-rule:nonzero;stroke:none" />
  <path
     inkscape:connector-curvature="0"
     id="path149"
     d="m 78.80938,71.45755 0.0896,0.01376 c 0.10337,0.0069 0.19292,0.02067 0.28249,0.02067 0.51676,0.04822 0.6959,0.06202 0.6959,0.709684 0,0.110242 -0.007,0.213595 -0.0141,0.323837 0,0.117139 0,0.227374 0,0.337616 0,0.620111 -0.007,1.254006 -0.0141,1.894788 0,0.633892 -0.007,1.267785 -0.007,1.894788 0,0.103345 0,0.192922 0,0.282495 0.0141,0.771695 0.0141,0.868156 -0.93016,0.895716 l -0.10336,0.0069 0,0.530541 3.43128,0 0,-0.530541 -0.0965,-0.0069 c -0.99218,-0.06202 -0.99218,-0.103345 -0.99218,-1.04041 l 0,-0.137794 c 0,-0.558103 0,-1.116203 0,-1.674304 -0.007,-0.558102 -0.007,-1.109313 -0.007,-1.667414 l 0,-0.130914 c -0.007,-1.081753 0.0344,-1.384919 0.0759,-1.44693 0.11024,-0.199813 0.42719,-0.220484 0.70279,-0.241155 0.0896,-0.0069 0.17234,-0.01376 0.24116,-0.02067 l 0.0896,-0.02067 0,-0.509871 -3.44506,0 z m 0,0"
     style="fill:#000000;fill-opacity:1;fill-rule:nonzero;stroke:none" />
  <path
     inkscape:connector-curvature="0"
     id="path151"
     d="m 90.02651,76.122171 c -0.20671,0.613222 -0.62701,1.398698 -1.12309,1.584732 -0.25494,0.09647 -0.58566,0.144691 -0.93017,0.144691 -0.44097,0 -1.17132,-0.03445 -1.3298,-0.09647 -0.0141,-0.110243 -0.0206,-0.46164 -0.0206,-1.067972 l 0,-1.570951 c 0,-0.165363 0,-0.268716 0.007,-0.316947 0.0141,0 0.0413,-0.0069 0.069,-0.0069 l 0.30317,0 c 0.64078,0 1.03351,0.06202 1.15065,0.179143 0.17233,0.158466 0.19293,0.420299 0.22048,0.675234 l 0.0206,0.192924 0.48919,0 0.0141,-2.638923 -0.47543,0 -0.0275,0.186034 c -0.0758,0.447859 -0.13088,0.744135 -0.59255,0.854377 -0.22737,0.04822 -0.48232,0.05512 -0.69591,0.05512 l -0.38584,0 c -0.0275,-0.0069 -0.0621,0 -0.0896,-0.0069 0,-0.02757 0,-0.04822 0,-0.07579 0,-0.392737 0.007,-0.785476 0.0141,-1.178213 0,-0.392738 0.007,-0.785475 0.007,-1.178212 0,-0.04135 0,-0.07579 0,-0.124018 -0.007,-0.110242 -0.007,-0.213595 0.0141,-0.316946 0.0413,-0.01376 0.15152,-0.03445 0.41342,-0.03445 1.34356,0 1.97056,0.05512 2.68026,1.343577 l 0.0481,0.07579 0.45474,-0.158467 -0.0275,-0.09647 c -0.11024,-0.454748 -0.29628,-0.888827 -0.47542,-1.309125 -0.0483,-0.110242 -0.0965,-0.227374 -0.14464,-0.337616 l -0.0275,-0.06202 -0.0621,-0.0069 c -0.22736,-0.02757 -0.4823,-0.03445 -0.77858,-0.03445 -0.44096,0 -0.88883,0.02757 -1.3229,0.05512 -0.7028,0.04135 -1.42627,0.05512 -2.14972,0.04135 -0.27561,-0.0069 -0.55811,-0.0069 -0.8406,-0.0069 l -0.10336,0 -0.0141,0.516761 0.13088,0.0069 c 0.75102,0.02757 0.90261,0.03445 0.90261,0.806146 0,0.709684 0.007,1.426258 0.007,2.149722 0.007,0.716574 0.007,1.433148 0.007,2.142833 0,0.261826 0,0.943948 -0.16527,1.157542 -0.0965,0.117139 -0.43408,0.179145 -1.00596,0.179145 l -0.3583,0 0,0.52365 0.11025,0 c 0.50298,-0.01376 1.01285,-0.02067 1.51583,-0.02067 l 0.71658,0 c 0.65456,0 1.31601,0.0069 1.97746,0.0069 0.65456,0.0069 1.31601,0.01376 1.97746,0.01376 l 0.0896,0 0.0141,-0.08957 c 0.11024,-0.551211 0.1584,-1.116201 0.20671,-1.667412 0.0141,-0.14469 0.0275,-0.282495 0.0413,-0.420298 l 0.007,-0.110242 -0.43407,-0.03445 z m 0,0"
     style="fill:#000000;fill-opacity:1;fill-rule:nonzero;stroke:none" />
  <path
     inkscape:connector-curvature="0"
     id="path153"
     d="m 97.79858,77.114351 c -0.75102,-0.875048 -1.28846,-1.577841 -1.7363,-2.259965 0.71657,-0.316945 1.43315,-1.05419 1.43315,-1.867227 0,-1.474488 -1.26779,-2.135941 -2.51492,-2.135941 -0.17215,0 -0.31005,0.0069 -0.48919,0.02067 -0.3514,0.03445 -0.82682,0.0689 -1.90857,0.0689 -0.26183,0 -0.50986,0 -0.77169,-0.02757 l -0.11712,-0.0069 0,0.49609 0.0965,0.01376 c 0.96463,0.08267 0.99218,0.17226 0.99218,1.109311 l 0,4.223653 c 0,0.943948 -0.11024,1.067972 -0.99218,1.081751 l -0.11024,0.0069 0,0.530542 0.11024,0 c 1.10242,-0.02757 2.18417,-0.02757 3.28659,0 l 0.11024,0 0,-0.427189 -0.0206,-0.103346 -0.10337,-0.0069 c -0.55121,-0.02067 -0.86816,-0.08957 -0.94395,-0.206703 -0.0896,-0.137812 -0.0896,-0.49609 -0.0896,-0.689014 l 0,-1.791435 c 0.0206,-0.01376 0.0758,-0.02067 0.18604,-0.02067 l 0.0896,0 c 0.19294,0 0.38585,0.0069 0.57189,0.01376 0.15151,0.206704 0.3514,0.50987 0.57188,0.861268 0.59256,0.909498 1.32291,2.04637 1.80522,2.349536 l 2.06015,0.137811 0.0759,-0.502979 -0.10336,-0.01376 C 98.55672,77.837789 98.28111,77.679319 97.7988,77.114327 m -3.68622,-2.480449 -0.0552,0 c -0.007,-0.310056 -0.007,-0.620112 -0.007,-0.923277 l 0,-0.330727 -0.007,-1.963688 c 0,0 0,-0.0069 0,-0.0069 0.0965,-0.01376 0.25495,-0.01376 0.33073,-0.01376 0.47543,0 0.81994,0.0689 1.08864,0.227374 0.40652,0.241156 0.68213,0.757915 0.68213,1.295346 0,1.488269 -1.27468,1.715643 -2.03258,1.715643"
     style="fill:#000000;fill-opacity:1;fill-rule:nonzero;stroke:none" />
  <path
     inkscape:connector-curvature="0"
     id="path155"
     d="m 102.98686,74.02068 c -0.15857,-0.08267 -0.31695,-0.165363 -0.48231,-0.254934 -0.47542,-0.261826 -1.13687,-0.620113 -1.13687,-1.260896 0,-0.675234 0.48919,-1.164432 1.16442,-1.164432 0.94395,0 1.41249,0.840596 1.71565,1.577841 l 0.0344,0.08267 0.47541,-0.130914 -0.15151,-1.260896 -0.0141,-0.124018 c -0.0141,-0.165363 -0.0275,-0.330726 -0.0758,-0.49609 l -0.0413,-0.117138 -0.11024,0.05512 c -0.11712,0.05512 -0.26183,0.07579 -0.40652,0.03445 l -0.15857,-0.03445 c -0.37206,-0.09647 -0.75102,-0.186034 -1.14375,-0.186034 -1.15066,0 -2.3771,0.875047 -2.3771,2.184172 0,0.826816 0.49609,1.51583 1.42625,1.99814 0.124,0.06202 0.25495,0.130915 0.39274,0.192924 0.73725,0.344506 1.57784,0.744135 1.57784,1.619181 0,0.716574 -0.57876,1.281566 -1.31601,1.281566 -0.19293,0 -0.39962,-0.04822 -0.64078,-0.144691 -0.54433,-0.220484 -0.77169,-0.778585 -0.99218,-1.322906 -0.0344,-0.08957 -0.0758,-0.17226 -0.11024,-0.254936 l -0.0344,-0.07579 -0.48921,0.08267 0.0141,0.09647 c 0.0552,0.571882 0.13776,1.247116 0.27561,1.908569 l 0.0141,0.0689 0.069,0.01376 c 0.52364,0.09647 1.07485,0.186034 1.63985,0.186034 0.19982,0 0.38585,-0.01376 0.59254,-0.03445 1.06798,-0.130915 2.19797,-0.930169 2.19797,-2.149722 0,-1.391807 -0.93018,-1.867228 -1.90857,-2.370207"
     style="fill:#000000;fill-opacity:1;fill-rule:nonzero;stroke:none" />
  <path
     inkscape:connector-curvature="0"
     id="path157"
     d="m 114.27979,74.02068 c -0.1584,-0.08267 -0.31695,-0.165363 -0.48232,-0.254934 -0.48229,-0.261826 -1.14375,-0.620113 -1.14375,-1.260896 0,-0.675234 0.49609,-1.164432 1.17132,-1.164432 0.94394,0 1.41248,0.840596 1.71564,1.570951 l 0.0344,0.08957 0.47542,-0.124018 -0.15152,-1.267785 -0.007,-0.103345 c -0.0206,-0.17226 -0.0344,-0.351397 -0.0827,-0.516761 l -0.0344,-0.117139 -0.11712,0.04823 c -0.13088,0.06202 -0.26183,0.07579 -0.4134,0.04134 l -0.14463,-0.03445 c -0.37206,-0.08957 -0.75103,-0.186034 -1.15755,-0.186034 -1.13687,0 -2.3702,0.875048 -2.3702,2.184173 0,0.826816 0.48921,1.51583 1.42627,1.99814 0.124,0.06202 0.25493,0.124018 0.39962,0.192924 0.73725,0.351396 1.57096,0.744135 1.57096,1.612291 0,0.723464 -0.57878,1.288456 -1.32291,1.288456 -0.17915,0 -0.39274,-0.04823 -0.64079,-0.144691 -0.53742,-0.220484 -0.7648,-0.778585 -0.98529,-1.322906 -0.0344,-0.08267 -0.069,-0.17226 -0.11024,-0.254936 l -0.0344,-0.08267 -0.48919,0.08957 0.0141,0.09647 c 0.0759,0.709684 0.14464,1.302237 0.27561,1.901677 l 0.0141,0.07579 0.069,0.01376 c 0.52366,0.09647 1.08175,0.186034 1.63985,0.186034 0.19294,0 0.39275,-0.01376 0.59256,-0.03445 1.06797,-0.130915 2.19795,-0.937059 2.19795,-2.149723 0,-1.384916 -0.92329,-1.860337 -1.90857,-2.370206"
     style="fill:#000000;fill-opacity:1;fill-rule:nonzero;stroke:none" />
  <path
     inkscape:connector-curvature="0"
     id="path159"
     d="m 118.40009,71.45755 0.0896,0.01376 c 0.10336,0.0069 0.19291,0.02067 0.2825,0.02067 0.51674,0.04822 0.6959,0.06202 0.6959,0.709684 0,0.110242 -0.007,0.213595 -0.007,0.323837 -0.007,0.117139 -0.007,0.227374 -0.007,0.337616 0,0.620111 -0.007,1.254006 -0.007,1.894788 -0.007,0.633892 -0.0141,1.267785 -0.0141,1.894788 0,0.103345 0,0.192922 0,0.282495 0.0141,0.771695 0.0141,0.868156 -0.93018,0.895716 l -0.10336,0.0069 0,0.530541 3.43818,0 0,-0.530541 -0.10336,-0.0069 c -0.98528,-0.06202 -0.98528,-0.103345 -0.98528,-1.04041 l 0,-0.137794 c 0,-0.558103 0,-1.116203 -0.007,-1.674304 0,-0.558102 0,-1.109313 0,-1.667414 l 0,-0.124018 c -0.0141,-1.088642 0.0344,-1.391808 0.069,-1.453819 0.11712,-0.199813 0.42717,-0.220484 0.70967,-0.241155 0.0827,-0.0069 0.16528,-0.01376 0.24116,-0.02067 l 0.0896,-0.02067 0,-0.509871 -3.45196,0 z m 0,0"
     style="fill:#000000;fill-opacity:1;fill-rule:nonzero;stroke:none" />
  <path
     inkscape:connector-curvature="0"
     id="path161"
     d="m 129.10046,71.45755 0.10337,0.0069 c 1.26088,0.05512 1.26088,0.413408 1.26088,1.619182 l 0,3.135012 -0.37207,-0.392737 c -0.82681,-0.881937 -1.65363,-1.763875 -2.45977,-2.645812 -0.31694,-0.337618 -0.62701,-0.682124 -0.93706,-1.019742 -0.19981,-0.227374 -0.39963,-0.447858 -0.59944,-0.668343 -0.13088,-0.137811 -0.2756,-0.303166 -0.37895,-0.4892 l -0.0344,-0.05512 -2.19795,0 0,0.509871 0.0965,0.0069 c 0.86127,0.05512 1.16443,0.241155 1.16443,1.164435 0,0.737243 -0.0344,1.502048 -0.0619,2.232402 -0.0206,0.41341 -0.0344,0.826816 -0.0483,1.240226 0,0.05512 0,0.124018 0,0.199813 -0.007,0.365177 -0.007,1.047301 -0.15151,1.260894 -0.13088,0.206705 -0.48921,0.234265 -0.7786,0.254936 -0.0481,0.0069 -0.10336,0.01376 -0.14463,0.01376 l -0.10337,0.01376 0,0.52365 3.19703,0 0,-0.509871 -0.19294,-0.02757 c -0.33072,-0.04135 -0.83371,-0.09647 -0.9715,-0.358287 -0.14464,-0.275606 -0.14464,-1.095531 -0.14464,-1.405588 -0.0141,-1.136872 -0.0141,-2.294415 -0.0141,-3.417507 0.62698,0.661453 1.26089,1.350466 1.86722,2.011919 0.2756,0.296277 0.54431,0.592553 0.81992,0.888829 0.23428,0.261824 0.46854,0.516759 0.7028,0.771695 0.24115,0.261825 0.47541,0.523649 0.71657,0.778585 0.23426,0.254935 0.54431,0.599443 0.81992,0.950838 0.10336,0.137812 0.22048,0.296276 0.2894,0.447859 l 0.0413,0.08957 0.53056,-0.165363 -0.0141,-0.08957 c -0.0552,-0.420298 -0.0552,-0.854375 -0.0552,-1.274674 0,-1.364246 0.0413,-2.721603 0.0759,-3.865366 l 0.007,-0.151588 c 0.0141,-0.310055 0.0344,-1.0473 0.13776,-1.212663 0.22738,-0.337617 0.61323,-0.378957 0.95773,-0.378957 l 0.11024,0 0,-0.502981 -3.23837,0 z m 0,0"
     style="fill:#000000;fill-opacity:1;fill-rule:nonzero;stroke:none" />
  <path
     inkscape:connector-curvature="0"
     id="path163"
     d="m 140.06268,76.163513 c -0.68213,0.916388 -1.3298,1.791435 -2.54935,1.791435 -1.81899,0 -2.78362,-1.674303 -2.78362,-3.321046 0,-1.591622 0.93706,-3.272813 2.66648,-3.272813 1.20577,0 1.97059,0.661453 2.33576,2.032588 l 0.0275,0.08267 0.50988,-0.02757 -0.0621,-2.239294 -0.2825,-0.137811 -0.0481,0.07579 c -0.0552,0.0689 -0.124,0.09647 -0.23426,0.09647 -0.14464,0 -0.33073,-0.0689 -0.49609,-0.124018 -0.0552,-0.02067 -0.11024,-0.04135 -0.16528,-0.06202 -0.61323,-0.192922 -1.14376,-0.282495 -1.6812,-0.282495 -1.44692,0 -2.80428,0.709684 -3.54152,1.853448 -0.37208,0.5581 -0.59944,1.336685 -0.59944,2.011917 0,2.218625 1.78453,3.886039 4.16163,3.886039 0.31695,0 0.60634,-0.02067 0.86817,-0.07579 0.0965,-0.01376 0.19981,-0.03445 0.28938,-0.06202 0.20671,-0.04134 0.39962,-0.08957 0.59943,-0.08957 0.15152,0 0.31695,0.02757 0.47544,0.08267 l 0.0896,0.03445 0.0413,-0.08957 c 0.33072,-0.689013 0.60633,-1.371137 0.82681,-1.943017 l 0.0344,-0.09647 -0.43409,-0.192924 z m 0,0"
     style="fill:#000000;fill-opacity:1;fill-rule:nonzero;stroke:none" />
  <path
     inkscape:connector-curvature="0"
     id="path165"
     d="m 147.79341,76.122171 c -0.19981,0.613222 -0.62011,1.391809 -1.1231,1.584732 -0.24803,0.09647 -0.57876,0.144691 -0.93016,0.144691 -0.45474,0 -1.20578,-0.03445 -1.3298,-0.08957 -0.0141,-0.09647 -0.0206,-0.447858 -0.0206,-1.074861 l 0,-1.570951 c 0,-0.165363 0.007,-0.268715 0.007,-0.316947 0.0206,0 0.0413,-0.0069 0.069,-0.0069 l 0.30318,0 c 0.64766,0 1.03351,0.06202 1.15065,0.179143 0.17233,0.158466 0.19981,0.41341 0.22738,0.668344 l 0.0206,0.199814 0.4892,0 0.0141,-2.638923 -0.47542,0 -0.0344,0.192924 c -0.0758,0.44786 -0.13088,0.737245 -0.59256,0.847487 -0.22736,0.04822 -0.47542,0.05512 -0.6959,0.05512 l -0.37895,0 c -0.0413,0 -0.0621,0 -0.0965,-0.0069 0,-0.02757 0,-0.04822 0,-0.07579 0,-0.392737 0.007,-0.785476 0.0141,-1.178213 0.007,-0.392738 0.0141,-0.785475 0.0141,-1.178212 0,-0.04135 0,-0.07579 -0.007,-0.117139 0,-0.110242 -0.007,-0.220484 0.0141,-0.323835 0.0413,-0.01376 0.15152,-0.03445 0.41342,-0.03445 1.35045,0 1.97746,0.05512 2.68714,1.343577 l 0.0413,0.07579 0.45475,-0.158466 -0.0275,-0.09647 c -0.10336,-0.447858 -0.28938,-0.875046 -0.46164,-1.288454 -0.0552,-0.124018 -0.10336,-0.241155 -0.1584,-0.358287 l -0.0206,-0.06202 -0.0621,-0.0069 c -0.23426,-0.02757 -0.4892,-0.03445 -0.78547,-0.03445 -0.44097,0 -0.88884,0.02757 -1.31603,0.05512 -0.42718,0.02757 -0.87504,0.05512 -1.30911,0.05512 -0.28251,0 -0.55811,-0.0069 -0.84061,-0.01376 -0.28249,-0.0069 -0.56499,-0.0069 -0.8406,-0.0069 l -0.10336,0 -0.0206,0.51676 0.13776,0.0069 c 0.74415,0.02757 0.90261,0.03445 0.90261,0.806146 0,0.709684 0,1.426258 0.007,2.149722 0,0.716574 0.007,1.433148 0.007,2.142833 0,0.261826 0,0.943948 -0.17233,1.157543 -0.0896,0.117138 -0.42719,0.179144 -1.00595,0.179144 l -0.3583,0 0,0.413408 0.0141,0.110242 0.11024,0 c 0.50299,-0.01376 1.00598,-0.02067 1.50207,-0.02067 l 0.71657,0 c 0.66145,0 1.31601,0.0069 1.97746,0.0069 0.66146,0.0069 1.32291,0.01376 1.97747,0.01376 l 0.0896,0 0.0141,-0.08957 c 0.11024,-0.537429 0.1584,-1.09553 0.20671,-1.639851 0.0141,-0.151587 0.0275,-0.296276 0.0413,-0.447858 l 0.0141,-0.110243 -0.44097,-0.03445 z m 0,0"
     style="fill:#000000;fill-opacity:1;fill-rule:nonzero;stroke:none" />
  <path
     inkscape:connector-curvature="0"
     id="path167"
     d="m 158.96232,77.865377 c -0.20671,-0.02067 -0.7648,-0.06202 -0.92329,-0.192926 -0.14463,-0.124018 -0.20669,-0.261824 -0.20669,-0.489198 0,-0.392739 0,-0.785476 0,-1.171324 -0.007,-0.392737 -0.007,-0.785475 -0.007,-1.171322 l 0,-0.91639 c 0,-0.861266 0,-1.756983 0.0206,-2.63892 l 0,-0.08267 -0.2067,-0.04822 -0.0344,0.0069 c -0.96461,0.351397 -1.80522,0.668342 -2.56312,0.97151 l -0.069,0.02755 -0.0206,0.475421 0.11712,0 c 0.17914,-0.0069 0.3514,-0.0069 0.52366,-0.0069 0.35828,0 0.70278,0.0069 1.0473,0.0069 l 0,4.361455 c 0,0.254935 -0.13088,0.516761 -0.32384,0.668343 -0.22049,0.165363 -0.75103,0.179144 -0.97151,0.186034 l -0.10336,0.0069 0,0.509871 0.10336,0 c 1.20577,-0.01376 2.40466,-0.01376 3.61732,0 l 0.10336,0 0,-0.399629 -0.007,-0.09647 z m 0,0"
     style="fill:#000000;fill-opacity:1;fill-rule:nonzero;stroke:none" />
  <path
     inkscape:connector-curvature="0"
     id="path169"
     d="m 163.95766,74.592562 c 0.60633,-0.399629 1.17134,-0.778587 1.17134,-1.646743 0,-1.040411 -1.00598,-1.743204 -1.94303,-1.743204 -1.09553,0 -1.98436,0.847486 -1.98436,1.887896 0,0.778585 0.6339,1.371138 1.22645,1.805217 -0.0621,0.04135 -0.124,0.07579 -0.17915,0.117139 -0.57876,0.385847 -1.17132,0.792366 -1.17132,1.639853 0,1.150651 1.07487,1.853446 2.08082,1.853446 1.05418,0 2.19107,-0.785476 2.19107,-1.963688 0,-0.98529 -0.71657,-1.502051 -1.39182,-1.949909 m -1.7363,-1.839674 c 0,-0.56499 0.46852,-1.01974 1.0404,-1.01974 0.46854,0 0.96463,0.52365 0.96463,1.01974 0,0.730354 -0.17916,1.012851 -0.7717,1.48138 -0.6339,-0.358287 -1.23333,-0.702795 -1.23333,-1.48138 m 0.96461,5.188272 c -0.72346,0 -1.19199,-0.502979 -1.19199,-1.274675 0,-0.682124 0.48921,-1.150653 0.91638,-1.440038 0.71658,0.385848 1.3367,0.723464 1.3367,1.584731 0,0.544321 -0.42719,1.129982 -1.06109,1.129982"
     style="fill:#000000;fill-opacity:1;fill-rule:nonzero;stroke:none" />
  <path
     inkscape:connector-curvature="0"
     id="path171"
     d="m 169.48356,71.195725 c -1.3367,0 -2.384,1.109312 -2.384,2.521789 0,0.730356 0.26183,1.329796 0.75792,1.736314 0.43407,0.351398 1.01975,0.551211 1.70186,0.564991 -0.18602,0.227376 -0.38585,0.44786 -0.58566,0.654563 -0.39962,0.427189 -0.84059,0.819927 -1.26778,1.212664 -0.17914,0.158466 -0.35828,0.316947 -0.53054,0.48231 l -0.069,0.06202 0.24116,0.323837 0.0758,-0.03445 c 1.1231,-0.482309 1.79143,-0.916388 2.63202,-1.736313 0.80616,-0.792366 1.6812,-2.060151 1.6812,-3.265925 0,-1.254004 -0.77859,-2.521789 -2.25306,-2.521789 m 0.44096,4.313224 c -0.0141,0 -0.0413,0 -0.0552,0 -1.43315,0 -1.54339,-1.605401 -1.54339,-2.094601 0,-0.675233 0.31005,-1.681193 1.15754,-1.681193 0.90259,0 1.15064,1.109311 1.15064,1.763875 0,0.633892 -0.22048,1.488269 -0.70967,2.011919"
     style="fill:#000000;fill-opacity:1;fill-rule:nonzero;stroke:none" />
  <path
     inkscape:connector-curvature="0"
     id="path173"
     d="m 174.47201,71.361089 c -0.2825,0 -0.32383,-0.137812 -0.33072,-0.275606 l 0,-0.08957 -0.3514,-0.06202 -0.0344,0.08957 c -0.23426,0.709685 -0.42719,1.316017 -0.58566,1.894788 l -0.0275,0.110242 0.42719,0.110243 0.13088,-0.220485 c 0.24805,-0.392737 0.24805,-0.392737 0.84059,-0.392737 0.77859,0 1.55718,0.01376 2.33576,0.01376 -0.19981,0.392737 -0.4203,0.771695 -0.61321,1.088642 l -0.0275,0.04823 c -0.33762,0.57188 -0.68212,1.171322 -1.01285,1.770764 l -0.28938,0.53054 c -0.39963,0.751025 -0.81992,1.51583 -1.20577,2.287525 l -0.0552,0.117139 0.79235,0.213595 0.0896,0.02067 0.0344,-0.08267 c 0.50987,-1.081753 1.05418,-2.170393 1.57094,-3.224584 0.22049,-0.440968 0.43409,-0.881937 0.65458,-1.322906 0.26181,-0.52365 0.53054,-1.061082 0.77857,-1.584732 0.0483,-0.09647 0.0965,-0.192924 0.13088,-0.289385 0.0621,-0.137811 0.11712,-0.261826 0.18604,-0.385847 l 0.16527,-0.303166 z m 0,0"
     style="fill:#000000;fill-opacity:1;fill-rule:nonzero;stroke:none" />
</svg>
