<?xml version="1.0" encoding="UTF-8" standalone="no"?>
<svg
   xmlns:dc="http://purl.org/dc/elements/1.1/"
   xmlns:cc="http://creativecommons.org/ns#"
   xmlns:rdf="http://www.w3.org/1999/02/22-rdf-syntax-ns#"
   xmlns:svg="http://www.w3.org/2000/svg"
   xmlns="http://www.w3.org/2000/svg"
   version="1.1"
   id="svg5335"
   viewBox="0 0 538.58267 538.58267"
   height="15.2cm"
   width="15.2cm">
  <defs
     id="defs5337" />
  <metadata
     id="metadata5340">
    <rdf:RDF>
      <cc:Work
         rdf:about="">
        <dc:format>image/svg+xml</dc:format>
        <dc:type
           rdf:resource="http://purl.org/dc/dcmitype/StillImage" />
        <dc:title></dc:title>
      </cc:Work>
    </rdf:RDF>
  </metadata>
  <g
     transform="translate(-125.77785,-219.4303)"
     id="layer1">
    <g
       transform="matrix(8.4727573,0,0,8.4727573,-4882.2482,-4820.7141)"
       id="g5897">
      <path
         d="m 591.49214,658.01292 62.73,0 0,-62.73 -62.73,0 0,62.73 z"
         style="fill:#007ba5;fill-opacity:1;fill-rule:evenodd;stroke:none"
         id="path5140" />
      <g
         id="g5142"
         transform="matrix(1.25,0,0,-1.25,604.27564,650.64055)">
        <path
           d="m 0,0 0.918,-1.253 -1.544,0 -0.42,0.575 c -0.472,-0.203 -0.993,-0.312 -1.532,-0.312 -1.997,0 -3.737,1.488 -3.737,3.738 0,2.251 1.74,3.739 3.737,3.739 1.996,0 3.735,-1.488 3.735,-3.739 C 1.157,1.603 0.706,0.655 0,0 m -2.574,0.229 c 0.275,0 0.535,0.043 0.776,0.124 l -0.585,0.824 1.009,0.722 0.609,-0.855 c 0.388,0.448 0.618,1.045 0.618,1.704 0,1.398 -1.034,2.52 -2.427,2.52 -1.393,0 -2.427,-1.122 -2.427,-2.52 0,-1.397 1.034,-2.519 2.427,-2.519 m 7.313,4.86 -0.019,0 -1.166,-3.147 2.311,0 -1.126,3.147 z m 2.088,-5.797 -0.612,1.631 -3.02,0 -0.621,-1.631 -1.398,0 2.777,6.913 1.592,0 2.768,-6.913 -1.486,0 z m 17.71,5.976 c -1.341,0 -2.428,-1.128 -2.428,-2.52 0,-1.392 1.087,-2.52 2.428,-2.52 1.34,0 2.427,1.128 2.427,2.52 0,1.392 -1.087,2.52 -2.427,2.52 m 0,1.219 c 2.06,0 3.731,-1.674 3.731,-3.739 0,-2.064 -1.671,-3.738 -3.731,-3.738 -2.061,0 -3.731,1.674 -3.731,3.738 0,2.065 1.67,3.739 3.731,3.739 m -7.18,-4.432 -0.708,-0.775 0,-1.988 -1.359,0 0,6.913 1.359,0 0,-3.253 0.02,0 c 0.932,1.085 1.864,2.169 2.796,3.253 l 1.68,0 -2.942,-3.224 3.204,-3.689 -1.757,0 -2.293,2.763 z m 17.329,-2.763 0,4.724 -0.019,0 -2.117,-2.89 -0.02,0 -2.078,2.89 -0.019,0 0,-4.724 -1.36,0 0,6.913 1.403,0 2.093,-3.057 2.084,3.057 1.392,0 0,-6.913 -1.359,0 z m -25.983,0 0,1.135 3.966,4.71 -3.869,0 0,1.068 5.403,0 0,-1.136 -4.015,-4.709 4.063,0 0,-1.068 -5.548,0 z"
           style="fill:#ffffff;fill-opacity:1;fill-rule:evenodd;stroke:none"
           id="path5144" />
      </g>
      <g
         id="g5146"
         transform="matrix(1.25,0,0,-1.25,627.53877,620.10117)">
        <path
           d="m 0,0 1.867,-2.297 c 0.741,1.064 1.175,2.359 1.175,3.756 0,3.618 -2.912,6.551 -6.504,6.551 -3.593,0 -6.505,-2.933 -6.505,-6.551 0,-3.618 2.912,-6.551 6.505,-6.551 0.924,0 1.803,0.195 2.6,0.545 L -2.734,-2.261 0,0 Z m -3.462,11.561 c 5.54,0 10.03,-4.523 10.03,-10.102 0,-2.509 -0.909,-4.804 -2.412,-6.57 l 2.578,-3.171 -4.537,0 -0.759,0.926 c -1.449,-0.819 -3.121,-1.286 -4.9,-1.286 -5.54,0 -10.031,4.522 -10.031,10.101 0,5.579 4.491,10.102 10.031,10.102"
           style="fill:#f9b000;fill-opacity:1;fill-rule:evenodd;stroke:none"
           id="path5148" />
      </g>
    </g>
  </g>
</svg>
