<?xml version="1.0" encoding="UTF-8"?>
<!DOCTYPE svg PUBLIC "-//W3C//DTD SVG 1.1//EN" "http://www.w3.org/Graphics/SVG/1.1/DTD/svg11.dtd">
<!-- Creator: CorelDRAW X7 -->
<svg xmlns="http://www.w3.org/2000/svg" xml:space="preserve" width="1000px" height="283px" version="1.1" style="shape-rendering:geometricPrecision; text-rendering:geometricPrecision; image-rendering:optimizeQuality; fill-rule:evenodd; clip-rule:evenodd"
viewBox="0 0 1021 289"
 xmlns:xlink="http://www.w3.org/1999/xlink">
 <defs>
  <style type="text/css">
   <![CDATA[
    .fil3 {fill:#373435}
    .fil1 {fill:#FFCC29}
    .fil5 {fill:#ED3237}
    .fil4 {fill:#BFD73E}
    .fil0 {fill:#8FC74A}
    .fil2 {fill:#0098DA}
   ]]>
  </style>
 </defs>
 <g id="Layer_x0020_1">
  <metadata id="CorelCorpID_0Corel-Layer"/>
  <g id="_48508565360">
   <g>
    <path class="fil0" d="M76 243c-35,-7 -77,-70 -76,-106 1,-58 50,-112 103,-126 58,-16 90,-18 146,15 35,21 54,35 55,44 7,57 18,6 22,61 0,10 -5,34 -8,46 -10,61 -75,106 -132,111 -61,6 -74,-32 -110,-45zm-36 -79c-16,-23 -1,-37 5,-56 8,-25 35,-31 54,-48 7,-7 4,-19 10,-25 3,-2 53,-2 53,-2 22,7 10,25 35,9 8,-5 101,82 93,104 -5,18 -17,47 -28,62 -32,48 -94,52 -137,12 -15,-14 -49,-18 -59,-30 -4,-5 -20,-22 -26,-26zm129 -5c-5,3 -9,5 -15,3 -4,-1 -9,-2 -11,-5 -2,-4 -1,-7 -3,-9 0,-1 4,-14 5,-16 1,-11 35,-21 42,-8 1,1 5,14 5,15 0,1 -1,4 -1,4 -1,2 -1,1 0,3 0,1 -2,8 -2,8 -1,2 -8,5 -9,5 -2,0 -4,-2 -6,-1 0,0 -1,0 -1,0 0,0 -3,1 -4,1z"/>
    <g>
     <path class="fil1" d="M88 102c16,1 35,16 51,16 13,0 -14,23 -16,27 -3,7 -64,-12 -82,-9 -3,1 -13,2 -14,2 -4,-2 -4,-27 -1,-35 6,-16 16,-11 32,-7 9,3 20,6 30,6z"/>
     <path class="fil2" d="M103 194c6,-12 17,-20 21,-33 2,-8 51,8 30,10 -8,1 -37,50 -38,65 0,2 -1,11 -2,12 -4,3 -33,-17 -40,-24 -1,-1 22,-15 29,-30z"/>
     <path class="fil3" d="M240 198c-14,-5 -33,-25 -48,-29 -16,-4 5,-7 7,-15 2,-11 85,24 97,36 3,4 -3,16 -10,26 -12,20 -16,11 -27,0 -7,-7 -11,-15 -19,-18z"/>
     <path class="fil4" d="M174 69c6,16 1,34 9,50 6,13 -19,-3 -24,-3 -9,1 -19,-54 -31,-70 -1,-2 -7,-19 -8,-20 -6,-15 33,-16 46,-11 1,0 -1,34 8,54z"/>
     <path class="fil5" d="M203 140c-13,12 0,-15 -2,-21 -3,-11 6,-11 21,-32 2,-2 40,-22 42,-22 12,-2 36,31 23,38 -26,14 -82,35 -84,37z"/>
    </g>
   </g>
   <path class="fil0" d="M786 173c-2,3 -4,7 -7,10 -6,7 -14,10 -24,10l-10 0c-7,0 -12,2 -16,7 -5,4 -7,9 -7,16l33 0c16,0 29,-6 41,-17 11,-11 16,-25 16,-40l0 -26c1,-2 1,-4 1,-5l0 -50c-6,0 -12,2 -16,6 -5,5 -7,10 -7,16l0 28c0,8 -3,15 -9,22 -6,6 -14,9 -23,9 -8,0 -16,-3 -22,-9 -6,-6 -9,-14 -9,-22l0 -28c0,-6 -3,-11 -7,-16 -4,-4 -10,-6 -16,-6l0 50c0,14 5,26 16,37 11,10 24,15 38,15 11,0 20,-2 28,-7zm85 -54l42 0c0,6 -3,11 -7,16 -5,4 -10,6 -16,6l-19 0c-3,0 -6,-1 -8,-3 -3,-2 -4,-5 -4,-8 0,-3 1,-6 4,-8 2,-2 4,-3 8,-3zm8 68c-16,0 -30,-5 -41,-16 -11,-11 -17,-25 -17,-41 0,-16 6,-29 17,-40 11,-11 25,-17 41,-17l34 0c0,6 -3,12 -7,16 -5,5 -10,7 -16,7l-11 0c-10,0 -18,3 -24,10 -7,7 -10,15 -10,24 0,10 3,18 10,24 6,7 14,11 24,11l11 0c6,0 11,2 16,6 4,5 7,10 7,16l-34 0zm142 -90c0,-7 -2,-12 -7,-17 -4,-5 -10,-7 -17,-7l0 46 -53 0 0 -22c0,-7 -2,-12 -7,-17 -5,-5 -10,-7 -17,-7l0 90c0,7 2,13 7,17 5,5 10,7 17,7l0 -46 53 0 0 22c0,7 3,13 7,17 5,5 11,7 17,7l0 -90zm-636 90l-24 0 0 -114c7,0 13,2 17,7 5,5 7,10 7,17l0 23 32 0c9,0 17,-3 24,-10 7,-7 10,-15 10,-25l0 -10 24 0 0 10c0,10 -2,18 -6,26 -5,8 -10,15 -18,20 8,6 13,13 18,21 4,8 6,16 6,25l0 10 -24 0 0 -10c0,-9 -3,-17 -10,-24 -7,-7 -15,-10 -24,-10l-32 0 0 44zm144 -68l42 0c0,6 -2,11 -7,16 -4,4 -10,6 -16,6l-19 0c-3,0 -6,-1 -8,-3 -2,-2 -3,-5 -3,-8 0,-3 1,-6 3,-8 2,-2 5,-3 8,-3zm8 68c-16,0 -29,-5 -41,-16 -11,-11 -17,-25 -17,-41 0,-16 6,-29 17,-40 12,-11 25,-17 41,-17l34 0c0,6 -2,12 -7,16 -4,5 -10,7 -16,7l-11 0c-9,0 -17,3 -24,10 -6,7 -10,15 -10,24 0,10 4,18 10,24 7,7 15,11 24,11l11 0c6,0 12,2 16,6 5,5 7,10 7,16l-34 0zm66 -22l0 -35c0,-9 3,-17 9,-24 7,-7 15,-10 24,-10 10,0 18,3 24,10 7,7 10,15 10,24 0,10 -3,18 -10,25 -6,6 -14,10 -24,10l-33 0zm-1 27l0 -5 34 0c16,0 30,-5 41,-16 12,-11 17,-25 17,-41 0,-16 -5,-29 -17,-40 -11,-11 -25,-17 -41,-17 -16,0 -29,6 -40,17 -12,11 -18,24 -18,40l0 86c7,0 13,-2 17,-7 5,-5 7,-11 7,-17z"/>
  </g>
 </g>
</svg>
