<?xml version="1.0" encoding="UTF-8" standalone="no"?>
<!DOCTYPE svg PUBLIC "-//W3C//DTD SVG 1.1//EN" "http://www.w3.org/Graphics/SVG/1.1/DTD/svg11.dtd">
<svg width="100%" height="100%" viewBox="0 0 512 432" version="1.1" xmlns="http://www.w3.org/2000/svg" xmlns:xlink="http://www.w3.org/1999/xlink" xml:space="preserve" xmlns:serif="http://www.serif.com/" style="fill-rule:evenodd;clip-rule:evenodd;">
    <g transform="matrix(0.953652,0,0,0.864105,-59.9479,0)">
        <rect id="アートボード1" x="62.861" y="0" width="536.863" height="499.37" style="fill:none;"/>
        <g id="アートボード11" serif:id="アートボード1">
            <g id="path4" transform="matrix(1.0486,0,0,1.15727,-33.9473,-54.974)">
                <path d="M145.721,344.025C145.721,345.249 145.105,345.963 143.874,346.167C142.273,346.439 140.133,346.728 137.454,347.034C134.775,347.34 130.941,347.493 125.953,347.493C122.997,347.493 120.164,347.221 117.439,346.677C114.714,346.133 112.313,345.079 110.25,343.515C108.171,341.95 106.508,339.723 105.277,336.833C104.03,333.942 103.414,330.185 103.414,325.56L103.414,291.691C103.414,287.067 104.03,283.326 105.277,280.47C106.508,277.613 108.171,275.403 110.25,273.839C112.313,272.275 114.73,271.221 117.485,270.676C120.241,270.132 123.089,269.86 126.046,269.86C128.509,269.86 130.68,269.911 132.558,270.013C134.436,270.115 136.084,270.234 137.5,270.37C138.916,270.506 140.133,270.642 141.149,270.778C142.165,270.915 143.073,271.05 143.874,271.186C145.105,271.391 145.721,272.071 145.721,273.227L145.721,282.714C145.721,283.258 145.536,283.734 145.167,284.142C144.798,284.55 144.366,284.754 143.874,284.754L125.122,284.754C122.966,284.754 121.442,285.247 120.549,286.234C119.656,287.22 119.21,289.039 119.21,291.691L119.21,300.975L143.135,300.975C143.628,300.975 144.059,301.179 144.428,301.587C144.798,301.995 144.982,302.471 144.982,303.015L144.982,312.706C144.982,313.25 144.798,313.726 144.428,314.135C144.059,314.543 143.628,314.747 143.135,314.747L119.21,314.747L119.21,325.56C119.21,328.212 119.656,330.032 120.549,331.018C121.442,332.004 122.966,332.497 125.122,332.497L143.874,332.497C144.366,332.497 144.797,332.701 145.167,333.109C145.536,333.517 145.721,333.993 145.721,334.537L145.721,344.025ZM212.785,345.555C212.785,346.235 212.385,346.575 211.584,346.575L196.897,346.575C196.281,346.575 195.804,346.456 195.465,346.218C195.126,345.98 194.803,345.589 194.495,345.045L182.486,323.52L171.678,344.535C171.371,345.147 171.032,345.64 170.662,346.014C170.293,346.388 169.862,346.575 169.369,346.575L155.698,346.575C154.774,346.575 154.312,346.133 154.312,345.249C154.312,345.045 154.374,344.807 154.497,344.535L173.803,307.708L154.312,272.717C154.189,272.445 154.127,272.241 154.127,272.105C154.127,271.764 154.266,271.458 154.543,271.186C154.82,270.914 155.143,270.778 155.513,270.778L170.385,270.778C170.878,270.778 171.309,270.982 171.678,271.39C172.048,271.799 172.386,272.24 172.695,272.717L184.149,293.323L194.495,272.717C194.741,272.24 195.065,271.799 195.465,271.39C195.865,270.982 196.312,270.778 196.804,270.778L210.476,270.778C210.845,270.778 211.168,270.914 211.446,271.186C211.723,271.458 211.861,271.764 211.861,272.105C211.861,272.24 211.8,272.445 211.677,272.717L192.647,308.728L212.508,344.535C212.693,344.943 212.785,345.283 212.785,345.555ZM272.921,295.364C272.921,300.124 272.136,304.086 270.565,307.249C268.979,310.411 266.901,312.944 264.314,314.849C261.712,316.753 258.772,318.096 255.462,318.878C252.152,319.66 248.78,320.051 245.316,320.051C244.208,320.051 242.976,320.017 241.621,319.949C240.251,319.881 238.988,319.813 237.818,319.745L237.818,344.535C237.818,345.079 237.634,345.555 237.264,345.963C236.895,346.371 236.464,346.575 235.971,346.575L224.055,346.575C223.562,346.575 223.131,346.388 222.761,346.014C222.392,345.64 222.207,345.181 222.207,344.637L222.207,276.083C222.207,274.315 222.546,273.125 223.223,272.513C223.901,271.901 224.948,271.458 226.364,271.186C228.72,270.778 231.598,270.455 235.032,270.217C238.45,269.979 241.821,269.86 245.162,269.86C248.672,269.86 252.106,270.234 255.431,270.982C258.756,271.731 261.728,273.057 264.314,274.961C266.901,276.865 268.995,279.399 270.565,282.561C272.136,285.723 272.921,289.685 272.921,294.446L272.921,295.364ZM257.125,294.446C257.125,290.773 256.124,288.172 254.122,286.642C252.121,285.111 249.18,284.346 245.301,284.346C244.993,284.346 244.469,284.363 243.73,284.397C242.991,284.431 242.237,284.465 241.467,284.499C240.697,284.533 239.958,284.567 239.25,284.601C238.542,284.635 238.065,284.652 237.818,284.652L237.818,305.463C238.065,305.463 238.542,305.48 239.25,305.514C239.958,305.548 240.728,305.582 241.559,305.616C242.391,305.65 243.161,305.667 243.869,305.667L245.301,305.667C249.427,305.667 252.429,304.817 254.307,303.117C256.186,301.417 257.125,298.832 257.125,295.364L257.125,294.446ZM335.366,314.746C335.366,320.663 334.658,325.696 333.241,329.845C331.825,333.993 329.9,337.377 327.437,339.995C324.974,342.613 322.079,344.518 318.769,345.708C315.444,346.898 311.887,347.493 308.069,347.493C304.251,347.493 300.695,346.898 297.369,345.708C294.059,344.518 291.165,342.613 288.702,339.995C286.238,337.377 284.314,333.993 282.897,329.845C281.481,325.696 280.773,320.663 280.773,314.746L280.773,302.607C280.773,296.69 281.481,291.657 282.897,287.509C284.314,283.36 286.238,279.977 288.702,277.358C291.165,274.74 294.059,272.836 297.369,271.646C300.695,270.455 304.251,269.86 308.069,269.86C311.887,269.86 315.444,270.455 318.769,271.646C322.079,272.836 324.974,274.74 327.437,277.358C329.9,279.977 331.825,283.36 333.241,287.509C334.658,291.657 335.366,296.69 335.366,302.607L335.366,314.746ZM319.57,302.573C319.57,296.367 318.631,291.895 316.752,289.158C314.874,286.421 311.995,285.06 308.115,285.06C304.236,285.06 301.372,286.421 299.525,289.158C297.677,291.895 296.753,296.367 296.753,302.573L296.753,314.781C296.753,320.986 297.677,325.458 299.525,328.195C301.372,330.933 304.236,332.293 308.115,332.293C311.995,332.293 314.874,330.933 316.752,328.195C318.631,325.458 319.57,320.986 319.57,314.781L319.57,302.573ZM417.025,289.345C417.025,293.493 416.117,297.081 414.3,300.107C412.483,303.134 409.85,305.939 406.402,308.524L398.55,314.338C396.579,315.766 394.778,317.144 393.146,318.47C391.514,319.796 390.098,321.139 388.897,322.499C387.696,323.86 386.772,325.288 386.126,326.784C385.479,328.28 385.156,329.912 385.156,331.681L385.156,332.089L414.346,332.089C414.839,332.089 415.27,332.276 415.639,332.65C416.009,333.024 416.193,333.483 416.193,334.027L416.193,344.535C416.193,345.079 416.009,345.555 415.639,345.963C415.27,346.371 414.839,346.575 414.346,346.575L373.239,346.575C372.747,346.575 372.316,346.371 371.946,345.963C371.576,345.555 371.392,345.079 371.392,344.535L371.392,334.129C371.392,328.484 372.608,323.452 375.041,319.031C377.473,314.611 380.445,311.006 383.955,308.218L392.453,301.587C394.486,300.022 396.117,298.747 397.349,297.761C398.581,296.775 399.535,295.891 400.213,295.109C400.89,294.327 401.337,293.545 401.552,292.762C401.768,291.98 401.875,290.977 401.875,289.753C401.875,287.577 401.183,286.013 399.797,285.061C398.411,284.108 395.84,283.632 392.084,283.632C389.251,283.632 386.218,283.768 382.985,284.04C379.752,284.312 376.719,284.618 373.886,284.958L373.701,284.958C373.208,284.958 372.808,284.754 372.5,284.346C372.192,283.938 372.038,283.462 372.038,282.918L372.038,274.961C372.038,274.417 372.208,273.992 372.546,273.686C372.885,273.38 373.301,273.159 373.794,273.023C376.38,272.139 379.444,271.391 382.985,270.778C386.526,270.166 390.021,269.86 393.469,269.86C401.968,269.86 408.018,271.476 411.621,274.706C415.224,277.936 417.025,282.816 417.025,289.345ZM478.639,313.114C478.639,319.235 478.069,324.472 476.93,328.824C475.79,333.177 474.158,336.73 472.034,339.485C469.909,342.239 467.307,344.263 464.228,345.555C461.149,346.847 457.639,347.493 453.697,347.493C449.756,347.493 446.246,346.847 443.167,345.555C440.088,344.263 437.486,342.239 435.361,339.485C433.237,336.73 431.62,333.177 430.512,328.824C429.403,324.472 428.849,319.235 428.849,313.114L428.849,304.341C428.849,298.22 429.403,292.983 430.512,288.631C431.62,284.278 433.237,280.708 435.361,277.919C437.486,275.131 440.088,273.091 443.167,271.799C446.246,270.506 449.756,269.86 453.697,269.86C457.639,269.86 461.149,270.506 464.228,271.799C467.307,273.091 469.909,275.131 472.034,277.919C474.158,280.708 475.79,284.278 476.93,288.631C478.069,292.983 478.639,298.22 478.639,304.341L478.639,313.114ZM462.843,304.341C462.843,300.329 462.611,297.03 462.15,294.446C461.688,291.861 461.041,289.821 460.21,288.325C459.378,286.829 458.409,285.792 457.3,285.213C456.191,284.635 454.991,284.346 453.697,284.346C452.404,284.346 451.203,284.635 450.095,285.213C448.986,285.792 448.032,286.829 447.231,288.325C446.431,289.821 445.799,291.861 445.338,294.446C444.876,297.03 444.645,300.329 444.645,304.341L444.645,313.114C444.645,317.127 444.876,320.425 445.338,323.01C445.799,325.594 446.431,327.634 447.231,329.131C448.032,330.627 448.986,331.647 450.095,332.191C451.203,332.735 452.404,333.007 453.697,333.007C454.991,333.007 456.191,332.735 457.3,332.191C458.409,331.647 459.378,330.627 460.21,329.131C461.041,327.634 461.688,325.594 462.15,323.01C462.611,320.425 462.843,317.127 462.843,313.114L462.843,304.341ZM506.997,332.089L506.997,288.223L494.989,293.936C494.496,294.14 494.127,294.242 493.88,294.242C493.203,294.242 492.864,293.799 492.864,292.915L492.864,281.286C492.864,280.606 493.172,280.13 493.788,279.858L510.523,271.186C511.093,270.914 511.801,270.778 512.663,270.778L521.023,270.778C522.208,270.778 522.793,271.424 522.793,272.717L522.793,332.089L535.079,332.089C535.572,332.089 536.003,332.276 536.373,332.65C536.742,333.024 536.927,333.483 536.927,334.027L536.927,344.535C536.927,345.079 536.742,345.555 536.373,345.963C536.003,346.371 535.572,346.575 535.079,346.575L494.712,346.575C494.219,346.575 493.788,346.371 493.418,345.963C493.049,345.555 492.864,345.079 492.864,344.535L492.864,334.027C492.864,333.483 493.049,333.024 493.418,332.65C493.788,332.276 494.219,332.089 494.712,332.089L506.997,332.089ZM595.4,281.592C595.4,282.272 595.261,282.986 594.984,283.734C594.707,284.482 594.353,285.332 593.922,286.284L569.627,344.637C569.073,345.929 568.303,346.575 567.318,346.575L554.663,346.575C553.554,346.575 553,346.167 553,345.351C553,345.011 553.092,344.637 553.277,344.229L578.403,285.978C578.464,285.842 578.495,285.672 578.495,285.468C578.495,285.06 578.28,284.856 577.849,284.856L552.261,284.856C551.768,284.856 551.322,284.669 550.921,284.295C550.521,283.921 550.321,283.462 550.321,282.918L550.321,272.717C550.321,272.173 550.521,271.714 550.921,271.339C551.322,270.965 551.768,270.778 552.261,270.778L592.259,270.778C593.121,270.778 593.86,271.101 594.476,271.747C595.092,272.393 595.4,273.193 595.4,274.145L595.4,281.592Z" style="fill:rgb(27,25,24);stroke:white;stroke-width:0.22px;"/>
            </g>
            <g id="path6" transform="matrix(1.0486,0,0,1.15727,-14.6011,-54.974)">
                <path d="M170.545,374.789C170.545,375.116 170.434,375.402 170.212,375.647C169.99,375.892 169.73,376.015 169.434,376.015L158.167,376.015C156.871,376.015 155.956,376.311 155.419,376.904C154.883,377.496 154.614,378.589 154.614,380.183L154.614,385.7L168.99,385.7C169.286,385.7 169.545,385.823 169.767,386.068C169.99,386.313 170.101,386.599 170.101,386.926L170.101,392.749C170.101,393.076 169.99,393.362 169.767,393.608C169.545,393.853 169.286,393.975 168.99,393.975L154.614,393.975L154.614,411.874C154.614,412.201 154.503,412.487 154.281,412.733C154.059,412.978 153.791,413.1 153.495,413.1L146.242,413.1C145.946,413.1 145.678,412.978 145.456,412.733C145.234,412.487 145.123,412.201 145.123,411.874L145.123,380.183C145.123,377.404 145.493,375.157 146.242,373.44C146.982,371.724 147.981,370.396 149.23,369.456C150.47,368.516 151.922,367.883 153.578,367.556C155.234,367.229 156.945,367.065 158.722,367.065C160.202,367.065 161.506,367.096 162.635,367.157C163.764,367.219 164.753,367.29 165.604,367.372C166.456,367.453 167.187,367.535 167.797,367.617C168.407,367.699 168.953,367.781 169.434,367.862C170.175,367.985 170.545,368.393 170.545,369.088L170.545,374.789ZM202.96,411.874C202.96,412.201 202.849,412.487 202.627,412.733C202.405,412.978 202.146,413.1 201.85,413.1L195.633,413.1C195.337,413.1 195.078,412.978 194.856,412.733C194.634,412.477 194.523,412.191 194.523,411.864L194.523,410.383C193.006,411.578 191.563,412.406 190.194,412.876C188.825,413.356 187.252,413.591 185.476,413.591C183.477,413.591 181.84,413.233 180.563,412.518C179.287,411.803 178.288,410.812 177.566,409.545C176.844,408.278 176.345,406.797 176.067,405.101C175.79,403.405 175.651,401.597 175.651,399.676L175.651,379.264C175.651,378.937 175.771,378.641 176.012,378.375C176.252,378.109 176.521,377.977 176.817,377.977L183.533,377.977C183.829,377.977 184.088,378.109 184.31,378.375C184.532,378.641 184.643,378.937 184.643,379.264L184.643,399.625C184.643,400.687 184.698,401.587 184.81,402.322C184.921,403.048 185.124,403.64 185.42,404.09C185.716,404.539 186.132,404.856 186.669,405.04C187.206,405.224 187.899,405.315 188.751,405.315C189.564,405.315 190.397,405.132 191.248,404.764C192.099,404.396 193.006,403.926 193.968,403.354L193.968,379.264C193.968,378.937 194.079,378.641 194.301,378.375C194.523,378.109 194.782,377.977 195.078,377.977L201.794,377.977C202.091,377.977 202.359,378.109 202.599,378.375C202.84,378.641 202.96,378.937 202.96,379.264L202.96,411.874ZM227.882,411.946C227.882,412.641 227.531,413.039 226.828,413.162C225.977,413.325 225.237,413.448 224.607,413.53C223.978,413.611 223.257,413.652 222.443,413.652C220.935,413.652 219.603,413.519 218.437,413.254C217.281,412.988 216.319,412.467 215.541,411.691C214.774,410.914 214.182,409.841 213.784,408.473C213.377,407.104 213.173,405.336 213.173,403.17L213.173,385.394L208.733,384.597C208.437,384.515 208.168,384.362 207.928,384.137C207.687,383.912 207.567,383.636 207.567,383.309L207.567,379.264C207.567,378.937 207.687,378.641 207.928,378.375C208.168,378.109 208.437,377.977 208.733,377.977L213.173,377.977L213.173,372.95C213.173,372.623 213.284,372.357 213.506,372.153C213.728,371.949 213.978,371.806 214.274,371.724L221.009,370.437L221.175,370.437C221.462,370.437 221.703,370.529 221.888,370.712C222.073,370.897 222.165,371.152 222.165,371.479L222.165,377.977L226.717,377.977C227.013,377.977 227.272,378.099 227.494,378.344C227.716,378.59 227.827,378.886 227.827,379.213L227.827,384.219C227.827,384.546 227.716,384.842 227.494,385.087C227.272,385.332 227.013,385.455 226.717,385.455L222.165,385.455L222.165,403.293C222.165,404.519 222.258,405.305 222.443,405.653C222.628,406 223.146,406.174 223.997,406.174L226.717,406.174C227.494,406.174 227.882,406.521 227.882,407.206L227.882,411.946ZM260.298,411.874C260.298,412.201 260.187,412.487 259.965,412.733C259.743,412.978 259.484,413.1 259.188,413.1L252.971,413.1C252.675,413.1 252.416,412.978 252.194,412.733C251.972,412.477 251.861,412.191 251.861,411.864L251.861,410.383C250.344,411.578 248.901,412.406 247.532,412.876C246.162,413.356 244.59,413.591 242.813,413.591C240.815,413.591 239.178,413.233 237.901,412.518C236.624,411.803 235.625,410.812 234.904,409.545C234.182,408.278 233.683,406.797 233.405,405.101C233.128,403.405 232.989,401.597 232.989,399.676L232.989,379.264C232.989,378.937 233.109,378.641 233.349,378.375C233.59,378.109 233.859,377.977 234.154,377.977L240.871,377.977C241.167,377.977 241.426,378.109 241.648,378.375C241.87,378.641 241.981,378.937 241.981,379.264L241.981,399.625C241.981,400.687 242.036,401.587 242.147,402.322C242.258,403.048 242.462,403.64 242.758,404.09C243.054,404.539 243.47,404.856 244.007,405.04C244.543,405.224 245.237,405.315 246.088,405.315C246.902,405.315 247.735,405.132 248.586,404.764C249.437,404.396 250.344,403.926 251.306,403.354L251.306,379.264C251.306,378.937 251.417,378.641 251.639,378.375C251.861,378.109 252.12,377.977 252.416,377.977L259.132,377.977C259.428,377.977 259.696,378.109 259.937,378.375C260.178,378.641 260.298,378.937 260.298,379.264L260.298,411.874ZM284.387,384.586C284.387,384.873 284.313,385.148 284.165,385.394C284.017,385.639 283.814,385.761 283.555,385.761L283.111,385.761C281.742,385.761 280.465,385.966 279.281,386.374C278.097,386.783 276.987,387.294 275.951,387.907L275.951,411.813C275.951,412.14 275.839,412.436 275.617,412.702C275.395,412.968 275.136,413.1 274.84,413.1L268.124,413.1C267.828,413.1 267.56,412.968 267.319,412.702C267.079,412.436 266.959,412.14 266.959,411.813L266.959,379.202C266.959,378.876 267.069,378.59 267.292,378.344C267.514,378.099 267.773,377.977 268.069,377.977L274.674,377.977C274.97,377.977 275.229,378.099 275.451,378.344C275.673,378.6 275.784,378.886 275.784,379.213L275.784,380.449C276.82,379.499 277.995,378.773 279.309,378.263C280.622,377.742 281.945,377.486 283.277,377.486C283.573,377.486 283.832,377.609 284.054,377.854C284.276,378.099 284.387,378.395 284.387,378.722L284.387,384.586ZM314.971,397.163C314.971,398.144 314.583,398.634 313.806,398.634L296.099,398.634L296.099,398.757C296.099,399.605 296.192,400.432 296.377,401.249C296.562,402.056 296.876,402.761 297.32,403.374C297.764,403.977 298.347,404.468 299.069,404.825C299.791,405.193 300.706,405.377 301.816,405.377C302.705,405.377 303.648,405.356 304.647,405.315C305.646,405.275 306.636,405.234 307.617,405.193C308.597,405.152 309.513,405.101 310.364,405.04C311.216,404.978 311.919,404.907 312.473,404.825L312.64,404.825C313.343,404.825 313.695,405.152 313.695,405.806L313.695,410.505C313.695,410.996 313.621,411.364 313.473,411.609C313.325,411.864 313.01,412.048 312.529,412.171C310.753,412.661 309.014,413.039 307.312,413.284C305.609,413.53 303.556,413.652 301.15,413.652C299.485,413.652 297.82,413.386 296.155,412.855C294.49,412.324 292.991,411.445 291.659,410.219C290.327,408.993 289.253,407.369 288.44,405.346C287.625,403.323 287.218,400.841 287.218,397.898L287.218,393.608C287.218,391.156 287.533,388.928 288.162,386.926C288.791,384.924 289.707,383.228 290.909,381.838C292.112,380.449 293.583,379.376 295.322,378.62C297.061,377.864 299.041,377.486 301.261,377.486C303.519,377.486 305.508,377.895 307.228,378.712C308.949,379.529 310.383,380.653 311.53,382.083C312.677,383.514 313.537,385.21 314.111,387.171C314.685,389.133 314.971,391.278 314.971,393.608L314.971,397.163ZM306.201,392.259C306.201,389.971 305.757,388.264 304.869,387.14C303.981,386.017 302.76,385.455 301.206,385.455C299.652,385.455 298.412,386.027 297.487,387.171C296.562,388.315 296.099,390.011 296.099,392.259L296.099,392.504L306.201,392.504L306.201,392.259ZM361.042,411.568C361.042,412.304 360.671,412.733 359.931,412.855C358.969,413.019 357.683,413.192 356.074,413.376C354.464,413.56 352.16,413.652 349.163,413.652C347.387,413.652 345.685,413.489 344.047,413.162C342.41,412.835 340.967,412.201 339.727,411.261C338.478,410.322 337.479,408.983 336.739,407.246C335.99,405.51 335.62,403.252 335.62,400.473L335.62,380.122C335.62,377.343 335.99,375.095 336.739,373.379C337.479,371.663 338.478,370.334 339.727,369.395C340.967,368.455 342.419,367.821 344.075,367.494C345.731,367.167 347.442,367.004 349.219,367.004C350.699,367.004 352.003,367.035 353.132,367.096C354.26,367.157 355.25,367.229 356.101,367.311C356.952,367.392 357.683,367.474 358.294,367.556C358.904,367.637 359.45,367.719 359.931,367.801C360.671,367.923 361.042,368.332 361.042,369.027L361.042,374.728C361.042,375.055 360.93,375.341 360.708,375.586C360.486,375.831 360.227,375.954 359.931,375.954L348.664,375.954C347.368,375.954 346.452,376.25 345.916,376.842C345.379,377.435 345.111,378.528 345.111,380.122L345.111,385.7L359.487,385.7C359.783,385.7 360.042,385.823 360.264,386.068C360.486,386.313 360.597,386.599 360.597,386.926L360.597,392.749C360.597,393.076 360.486,393.362 360.264,393.608C360.042,393.853 359.783,393.975 359.487,393.975L345.111,393.975L345.111,400.473C345.111,402.067 345.379,403.16 345.916,403.752C346.452,404.345 347.368,404.641 348.664,404.641L359.931,404.641C360.227,404.641 360.486,404.764 360.708,405.009C360.93,405.254 361.042,405.54 361.042,405.867L361.042,411.568ZM394.734,411.813C394.734,412.14 394.613,412.436 394.373,412.702C394.132,412.968 393.864,413.1 393.568,413.1L386.852,413.1C386.556,413.1 386.297,412.968 386.075,412.702C385.853,412.436 385.742,412.14 385.742,411.813L385.742,391.452C385.742,390.389 385.686,389.49 385.575,388.755C385.464,388.029 385.261,387.437 384.964,386.987C384.669,386.538 384.252,386.221 383.715,386.037C383.179,385.853 382.485,385.761 381.634,385.761C380.82,385.761 379.988,385.945 379.136,386.313C378.285,386.681 377.379,387.151 376.416,387.723L376.416,411.813C376.416,412.14 376.306,412.436 376.083,412.702C375.861,412.968 375.602,413.1 375.306,413.1L368.59,413.1C368.294,413.1 368.026,412.968 367.785,412.702C367.545,412.436 367.424,412.14 367.424,411.813L367.424,379.202C367.424,378.875 367.535,378.589 367.758,378.344C367.979,378.099 368.239,377.977 368.535,377.977L374.751,377.977C375.048,377.977 375.306,378.099 375.529,378.344C375.751,378.6 375.861,378.886 375.861,379.213L375.861,380.694C377.379,379.499 378.822,378.671 380.191,378.201C381.56,377.721 383.133,377.486 384.909,377.486C386.907,377.486 388.545,377.854 389.821,378.59C391.098,379.325 392.097,380.316 392.819,381.563C393.54,382.809 394.04,384.28 394.317,385.976C394.595,387.672 394.734,389.48 394.734,391.401L394.734,411.813ZM428.315,397.163C428.315,398.144 427.926,398.634 427.149,398.634L409.443,398.634L409.443,398.757C409.443,399.605 409.535,400.432 409.72,401.249C409.905,402.056 410.22,402.761 410.664,403.374C411.108,403.977 411.691,404.468 412.412,404.825C413.134,405.193 414.05,405.377 415.16,405.377C416.048,405.377 416.991,405.356 417.991,405.315C418.99,405.275 419.98,405.234 420.96,405.193C421.941,405.152 422.857,405.101 423.708,405.04C424.559,404.978 425.262,404.907 425.817,404.825L425.983,404.825C426.687,404.825 427.038,405.152 427.038,405.806L427.038,410.505C427.038,410.996 426.964,411.364 426.816,411.609C426.668,411.864 426.354,412.048 425.873,412.171C424.096,412.661 422.357,413.039 420.655,413.284C418.953,413.53 416.899,413.652 414.494,413.652C412.828,413.652 411.163,413.386 409.498,412.855C407.833,412.324 406.334,411.445 405.002,410.219C403.67,408.993 402.597,407.369 401.783,405.346C400.969,403.323 400.562,400.841 400.562,397.898L400.562,393.608C400.562,391.156 400.876,388.928 401.505,386.926C402.134,384.924 403.05,383.228 404.253,381.838C405.455,380.449 406.927,379.376 408.666,378.62C410.405,377.864 412.385,377.486 414.605,377.486C416.862,377.486 418.851,377.895 420.572,378.712C422.292,379.529 423.726,380.653 424.873,382.083C426.02,383.514 426.881,385.21 427.454,387.171C428.028,389.133 428.315,391.278 428.315,393.608L428.315,397.163ZM419.545,392.259C419.545,389.971 419.101,388.264 418.212,387.14C417.325,386.017 416.103,385.455 414.549,385.455C412.995,385.455 411.755,386.027 410.83,387.171C409.905,388.315 409.443,390.011 409.443,392.259L409.443,392.504L419.545,392.504L419.545,392.259ZM451.572,384.586C451.572,384.873 451.498,385.148 451.35,385.394C451.202,385.639 450.998,385.761 450.739,385.761L450.295,385.761C448.926,385.761 447.649,385.966 446.465,386.374C445.281,386.783 444.171,387.294 443.135,387.907L443.135,411.813C443.135,412.14 443.024,412.436 442.802,412.702C442.58,412.968 442.321,413.1 442.025,413.1L435.308,413.1C435.012,413.1 434.744,412.968 434.503,412.702C434.263,412.436 434.143,412.14 434.143,411.813L434.143,379.202C434.143,378.876 434.254,378.59 434.476,378.344C434.698,378.099 434.957,377.977 435.253,377.977L441.858,377.977C442.154,377.977 442.413,378.099 442.635,378.344C442.857,378.6 442.968,378.886 442.968,379.213L442.968,380.449C444.004,379.499 445.179,378.773 446.493,378.263C447.807,377.742 449.13,377.486 450.462,377.486C450.758,377.486 451.017,377.609 451.239,377.854C451.461,378.099 451.572,378.395 451.572,378.722L451.572,384.586ZM483.932,383.064C483.932,383.514 483.849,383.82 483.682,383.984C483.515,384.147 483.266,384.29 482.933,384.413L481.212,385.026C481.545,385.598 481.832,386.313 482.072,387.171C482.313,388.029 482.433,388.826 482.433,389.562L482.433,390.052C482.433,394.057 481.24,396.969 478.853,398.787C476.466,400.606 473.09,401.515 468.723,401.515C467.428,401.515 466.281,401.423 465.282,401.239C464.283,401.055 463.505,400.841 462.95,400.595C462.655,400.8 462.451,401.014 462.34,401.239C462.229,401.464 462.174,401.719 462.174,402.005C462.174,402.496 462.284,402.864 462.506,403.109C462.729,403.354 463.172,403.558 463.839,403.722L470.111,405.254C472.516,405.826 474.551,406.388 476.216,406.94C477.882,407.492 479.223,408.125 480.241,408.84C481.258,409.555 481.989,410.414 482.433,411.415C482.877,412.416 483.099,413.652 483.099,415.123L483.099,415.614C483.099,422.275 478.252,425.605 468.557,425.605C463.931,425.605 460.425,424.747 458.038,423.031C455.651,421.314 454.458,418.842 454.458,415.614L454.458,415.123C454.458,413.857 454.717,412.651 455.235,411.507C455.753,410.363 456.604,409.279 457.788,408.258C456.789,407.645 456.068,406.797 455.624,405.714C455.18,404.631 454.958,403.579 454.958,402.557C454.958,401.413 455.189,400.412 455.651,399.554C456.114,398.695 456.697,397.96 457.4,397.347C456.512,396.489 455.864,395.365 455.457,393.975C455.05,392.586 454.847,391.278 454.847,390.052L454.847,389.562C454.847,386.088 455.948,383.289 458.149,381.164C460.351,379.039 463.876,377.977 468.723,377.977L482.544,377.977C482.951,377.977 483.284,378.13 483.543,378.436C483.802,378.743 483.932,379.121 483.932,379.57L483.932,383.064ZM473.663,389.562C473.663,388.295 473.33,387.243 472.664,386.405C471.998,385.567 470.684,385.148 468.723,385.148C466.762,385.148 465.43,385.567 464.727,386.405C464.024,387.243 463.672,388.295 463.672,389.562L463.672,390.052C463.672,390.583 463.737,391.104 463.866,391.615C463.996,392.126 464.246,392.586 464.616,392.995C464.986,393.403 465.495,393.73 466.142,393.975C466.79,394.221 467.65,394.343 468.723,394.343C470.684,394.343 471.998,393.955 472.664,393.178C473.33,392.402 473.663,391.36 473.663,390.052L473.663,389.562ZM473.941,415.123C473.941,414.837 473.876,414.561 473.746,414.296C473.617,414.03 473.349,413.775 472.941,413.53C472.535,413.284 471.961,413.039 471.221,412.794C470.481,412.549 469.482,412.263 468.224,411.936L464.116,410.955C463.783,411.486 463.515,412.048 463.311,412.641C463.108,413.233 463.006,414.061 463.006,415.123L463.006,415.614C463.006,416.676 463.395,417.463 464.172,417.974C464.949,418.484 466.41,418.74 468.557,418.74C469.704,418.74 470.629,418.668 471.332,418.525C472.035,418.382 472.581,418.168 472.969,417.882C473.358,417.596 473.617,417.258 473.746,416.87C473.876,416.482 473.941,416.063 473.941,415.614L473.941,415.123ZM516.792,379.08C516.792,379.162 516.783,379.213 516.764,379.233C516.745,379.253 516.736,379.305 516.736,379.386L507.411,415.491C506.967,417.167 506.467,418.628 505.912,419.874C505.357,421.12 504.636,422.152 503.748,422.97C502.859,423.787 501.731,424.41 500.361,424.839C498.992,425.268 497.29,425.483 495.255,425.483C494.737,425.483 494.163,425.452 493.534,425.391C492.905,425.329 492.276,425.258 491.647,425.176C491.018,425.095 490.426,424.992 489.871,424.87C489.316,424.747 488.872,424.624 488.539,424.502C488.243,424.379 487.974,424.246 487.734,424.104C487.493,423.96 487.373,423.726 487.373,423.399L487.373,418.433C487.373,418.106 487.484,417.831 487.706,417.606C487.928,417.381 488.187,417.269 488.483,417.269L488.594,417.269C489.038,417.31 489.566,417.35 490.176,417.391C490.787,417.432 491.416,417.483 492.063,417.545C492.711,417.606 493.34,417.657 493.951,417.698C494.561,417.739 495.089,417.759 495.533,417.759C496.532,417.759 497.309,417.534 497.864,417.085C498.419,416.635 498.863,415.797 499.196,414.572L499.696,412.671L498.863,412.671C498.345,412.671 497.855,412.62 497.392,412.518C496.93,412.416 496.476,412.181 496.032,411.813C495.588,411.445 495.172,410.883 494.783,410.127C494.395,409.371 494.034,408.319 493.701,406.971L486.374,379.386C486.337,379.264 486.319,379.121 486.319,378.957C486.319,378.303 486.688,377.976 487.429,377.976L494.811,377.976C495.107,377.976 495.338,378.089 495.505,378.314C495.671,378.538 495.792,378.814 495.866,379.141L500.861,402.189C501.009,402.966 501.231,403.354 501.527,403.354L502.027,403.354L507.189,379.141C507.263,378.814 507.402,378.538 507.605,378.314C507.809,378.089 508.059,377.976 508.354,377.976L515.737,377.976C516.033,377.976 516.283,378.079 516.486,378.283C516.69,378.487 516.792,378.753 516.792,379.08Z" style="fill:rgb(27,25,24);stroke:white;stroke-width:0.22px;"/>
            </g>
            <g id="path8" transform="matrix(1.0486,0,0,1.15727,-4.95866,-54.974)">
                <path d="M124.257,472.367C124.257,472.257 124.257,472.091 124.202,471.981L113.996,436.011C113.058,432.646 110.465,431.873 108.424,431.873C106.328,431.873 103.735,432.701 102.797,436.066L92.591,471.981C92.536,472.091 92.536,472.257 92.536,472.367C92.536,472.864 92.922,473.25 93.474,473.25L96.728,473.25C97.17,473.25 97.611,472.864 97.722,472.422L101.252,459.733L115.541,459.733L119.127,472.422C119.237,472.864 119.568,473.25 120.065,473.25L123.32,473.25C123.927,473.25 124.257,472.864 124.257,472.367ZM114.493,455.375L102.3,455.375L107.321,437.225C107.486,436.618 107.817,436.232 108.424,436.232C108.976,436.232 109.307,436.618 109.472,437.225L114.493,455.375ZM148.808,465.636C148.808,462.381 147.318,460.009 142.739,457.306L137.278,454.051C134.74,452.562 133.471,451.513 133.471,449.858C133.471,447.045 135.512,446.658 138.601,446.658C141.691,446.658 145.222,446.934 147.153,447.1L147.318,447.1C147.87,447.1 148.256,446.824 148.256,446.162L148.256,444.341C148.256,443.735 147.925,443.349 147.208,443.238C144.615,442.797 141.691,442.521 138.601,442.521C132.919,442.521 128.616,444.121 128.616,449.858C128.616,453.334 130.878,455.706 134.243,457.748L139.815,461.058C142.96,462.933 143.953,463.982 143.953,465.637C143.953,468.616 142.077,469.554 138.491,469.554C136.505,469.554 132.478,469.278 129.83,468.947L129.609,468.947C129.057,468.947 128.616,469.278 128.616,469.774L128.616,471.705C128.616,472.312 129.057,472.643 129.774,472.808C132.478,473.47 136.45,473.636 138.491,473.636C144.67,473.636 148.808,471.264 148.808,465.637ZM170.71,472.422L170.71,470.491C170.71,469.94 170.323,469.719 169.551,469.719L166.462,469.719C164.255,469.719 163.482,469.278 163.482,466.243L163.482,446.989L169.441,446.989C170.048,446.989 170.544,446.493 170.544,445.886L170.544,444.01C170.544,443.404 170.048,442.907 169.441,442.907L163.482,442.907L163.482,436.894C163.482,436.342 163.096,435.956 162.655,435.956L162.489,435.956L159.621,436.397C159.014,436.507 158.628,436.949 158.628,437.5L158.628,442.907L153.276,442.907C152.67,442.907 152.228,443.293 152.228,443.9L152.228,445.39C152.228,445.996 152.67,446.327 153.276,446.383L158.628,446.989L158.628,466.243C158.628,472.312 161.055,473.636 166.131,473.636C167.179,473.636 168.613,473.526 169.716,473.36C170.434,473.25 170.71,472.919 170.71,472.422ZM196.97,472.146L196.97,452.892C196.97,446.383 193.881,442.521 186.212,442.521C182.461,442.521 179.923,442.852 177.661,443.238C176.889,443.348 176.502,443.679 176.502,444.286L176.502,446.217C176.502,446.934 176.999,447.1 177.495,447.1L177.771,447.1C179.978,446.879 182.626,446.658 186.212,446.658C190.515,446.658 192.115,448.258 192.115,452.892L192.115,455.099L188.033,455.099C178.213,455.099 174.737,458.078 174.737,464.037L174.737,464.699C174.737,471.595 179.04,473.636 183.729,473.636C186.819,473.636 189.577,472.477 192.225,470.933L192.225,472.146C192.225,472.753 192.722,473.25 193.329,473.25L195.866,473.25C196.473,473.25 196.97,472.753 196.97,472.146ZM192.115,467.457C189.467,468.891 187.205,469.664 184.667,469.664C181.468,469.664 179.592,468.616 179.592,464.644L179.592,463.981C179.592,460.064 181.357,458.575 188.033,458.575L192.115,458.575L192.115,467.457ZM227.699,472.146L227.699,453.996C227.699,446.658 224.72,442.521 218.1,442.521C214.845,442.521 212.362,443.348 209.328,445.059L209.328,444.01C209.328,443.404 208.886,442.907 208.28,442.907L205.521,442.907C204.914,442.907 204.473,443.404 204.473,444.01L204.473,472.146C204.473,472.753 204.969,473.25 205.521,473.25L208.224,473.25C208.831,473.25 209.328,472.698 209.328,472.146L209.328,448.865C211.865,447.596 214.458,446.714 216.775,446.714C220.968,446.714 222.844,448.424 222.844,453.996L222.844,472.146C222.844,472.753 223.341,473.25 223.947,473.25L226.596,473.25C227.202,473.25 227.699,472.753 227.699,472.146ZM256.331,472.146L256.331,452.892C256.331,446.383 253.242,442.521 245.574,442.521C241.822,442.521 239.284,442.852 237.022,443.238C236.25,443.348 235.864,443.679 235.864,444.286L235.864,446.217C235.864,446.934 236.36,447.1 236.857,447.1L237.133,447.1C239.339,446.879 241.988,446.658 245.574,446.658C249.877,446.658 251.477,448.258 251.477,452.892L251.477,455.099L247.394,455.099C237.574,455.099 234.099,458.078 234.099,464.037L234.099,464.699C234.099,471.595 238.402,473.636 243.091,473.636C246.18,473.636 248.939,472.477 251.587,470.933L251.587,472.146C251.587,472.753 252.084,473.25 252.69,473.25L255.228,473.25C255.835,473.25 256.331,472.753 256.331,472.146ZM251.477,467.457C248.829,468.891 246.567,469.664 244.029,469.664C240.829,469.664 238.953,468.616 238.953,464.644L238.953,463.981C238.953,460.064 240.719,458.575 247.394,458.575L251.477,458.575L251.477,467.457ZM304.825,472.698C304.825,472.477 304.714,472.201 304.549,472.036L287.943,452.175L304.549,433.418C304.714,433.253 304.77,433.032 304.77,432.866C304.77,432.535 304.549,432.26 303.997,432.26L300.025,432.26C299.473,432.26 299.253,432.425 298.922,432.756L283.033,451.127L283.033,433.308C283.033,432.701 282.537,432.26 281.985,432.26L279.061,432.26C278.454,432.26 278.013,432.756 278.013,433.308L278.013,472.146C278.013,472.753 278.454,473.25 279.006,473.25L282.04,473.25C282.647,473.25 283.033,472.698 283.033,472.146L283.033,453.775L298.591,472.698C298.922,473.084 299.308,473.25 299.805,473.25L304.108,473.25C304.604,473.25 304.825,472.974 304.825,472.698ZM332.078,472.146L332.078,452.892C332.078,446.383 328.989,442.521 321.32,442.521C317.569,442.521 315.031,442.852 312.769,443.238C311.997,443.348 311.611,443.679 311.611,444.286L311.611,446.217C311.611,446.934 312.107,447.1 312.604,447.1L312.879,447.1C315.086,446.879 317.734,446.658 321.32,446.658C325.624,446.658 327.223,448.258 327.223,452.892L327.223,455.099L323.141,455.099C313.321,455.099 309.845,458.078 309.845,464.037L309.845,464.699C309.845,471.595 314.148,473.636 318.838,473.636C321.927,473.636 324.686,472.477 327.334,470.933L327.334,472.146C327.334,472.753 327.83,473.25 328.437,473.25L330.975,473.25C331.582,473.25 332.078,472.753 332.078,472.146ZM327.223,467.457C324.575,468.891 322.313,469.664 319.776,469.664C316.576,469.664 314.7,468.616 314.7,464.644L314.7,463.981C314.7,460.064 316.465,458.575 323.141,458.575L327.223,458.575L327.223,467.457ZM359.663,472.146L359.663,470.271C359.663,469.664 359.166,469.167 358.559,469.167L343.995,469.167C343.608,469.167 343.553,469.002 343.553,468.726C343.553,468.56 343.608,468.34 343.829,468.119L358.339,449.969C359.221,448.92 359.607,448.093 359.607,446.934L359.607,445.61C359.607,443.955 358.78,442.907 356.518,442.907L340.298,442.907C339.692,442.907 339.195,443.404 339.195,444.01L339.195,445.886C339.195,446.493 339.692,446.99 340.298,446.99L353.704,446.99C354.146,446.99 354.256,447.155 354.256,447.376C354.256,447.541 354.146,447.707 354.035,447.872L339.802,465.581C338.864,466.795 338.533,467.623 338.533,469.167L338.533,470.216C338.533,471.76 339.526,473.25 341.898,473.25L358.559,473.25C359.166,473.25 359.663,472.753 359.663,472.146ZM387.302,472.146L387.302,452.892C387.302,446.383 384.213,442.521 376.544,442.521C372.793,442.521 370.255,442.852 367.993,443.238C367.221,443.348 366.835,443.679 366.835,444.286L366.835,446.217C366.835,446.934 367.331,447.1 367.828,447.1L368.103,447.1C370.31,446.879 372.958,446.658 376.544,446.658C380.847,446.658 382.447,448.258 382.447,452.892L382.447,455.099L378.365,455.099C368.545,455.099 365.069,458.078 365.069,464.037L365.069,464.699C365.069,471.595 369.372,473.636 374.062,473.636C377.151,473.636 379.91,472.477 382.558,470.933L382.558,472.146C382.558,472.753 383.054,473.25 383.661,473.25L386.199,473.25C386.806,473.25 387.302,472.753 387.302,472.146ZM382.447,467.457C379.799,468.891 377.537,469.664 375,469.664C371.8,469.664 369.924,468.616 369.924,464.644L369.924,463.981C369.924,460.064 371.689,458.575 378.365,458.575L382.447,458.575L382.447,467.457ZM416.486,472.533C416.486,472.367 416.431,472.146 416.321,472.036L404.074,457.251L416.211,444.121C416.376,443.955 416.486,443.734 416.486,443.514C416.486,443.183 416.211,442.907 415.659,442.907L411.797,442.907C411.245,442.907 411.025,443.017 410.694,443.404L399.66,455.817L399.66,432.866C399.66,432.26 399.164,431.763 398.557,431.763L395.909,431.763C395.302,431.763 394.805,432.26 394.805,432.866L394.805,472.146C394.805,472.753 395.302,473.25 395.909,473.25L398.557,473.25C399.164,473.25 399.66,472.753 399.66,472.146L399.66,458.961L410.639,472.533C411.08,473.084 411.301,473.25 411.907,473.25L415.88,473.25C416.266,473.25 416.486,472.919 416.486,472.533ZM445.395,472.146L445.395,453.996C445.395,445.886 441.312,442.521 435.465,442.521C433.092,442.521 429.672,443.072 427.024,444.231L427.024,432.866C427.024,432.26 426.582,431.763 425.976,431.763L423.217,431.763C422.61,431.763 422.169,432.26 422.169,432.866L422.169,472.146C422.169,472.753 422.665,473.25 423.217,473.25L425.92,473.25C426.527,473.25 427.024,472.698 427.024,472.146L427.024,448.314C429.451,447.21 432.927,446.769 434.637,446.769C438.223,446.769 440.54,448.479 440.54,453.996L440.54,472.146C440.54,472.753 441.037,473.25 441.643,473.25L444.292,473.25C444.898,473.25 445.395,472.753 445.395,472.146ZM472.097,465.636C472.097,462.381 470.607,460.009 466.028,457.306L460.566,454.051C458.029,452.562 456.76,451.513 456.76,449.858C456.76,447.045 458.801,446.658 461.89,446.658C464.98,446.658 468.511,446.934 470.442,447.1L470.607,447.1C471.159,447.1 471.545,446.824 471.545,446.162L471.545,444.341C471.545,443.735 471.214,443.349 470.497,443.238C467.904,442.797 464.98,442.521 461.89,442.521C456.208,442.521 451.905,444.121 451.905,449.858C451.905,453.334 454.167,455.706 457.532,457.748L463.104,461.058C466.249,462.933 467.242,463.982 467.242,465.637C467.242,468.616 465.366,469.554 461.78,469.554C459.794,469.554 455.767,469.278 453.119,468.947L452.898,468.947C452.346,468.947 451.905,469.278 451.905,469.774L451.905,471.705C451.905,472.312 452.346,472.643 453.063,472.808C455.767,473.47 459.739,473.636 461.78,473.636C467.959,473.636 472.097,471.264 472.097,465.637ZM493.998,472.422L493.998,470.491C493.998,469.94 493.612,469.719 492.84,469.719L489.751,469.719C487.544,469.719 486.771,469.278 486.771,466.243L486.771,446.989L492.73,446.989C493.336,446.989 493.833,446.493 493.833,445.886L493.833,444.01C493.833,443.404 493.336,442.907 492.73,442.907L486.771,442.907L486.771,436.894C486.771,436.342 486.385,435.956 485.944,435.956L485.778,435.956L482.91,436.397C482.303,436.507 481.916,436.949 481.916,437.5L481.916,442.907L476.565,442.907C475.958,442.907 475.517,443.293 475.517,443.9L475.517,445.39C475.517,445.996 475.958,446.327 476.565,446.383L481.916,446.989L481.916,466.243C481.916,472.312 484.344,473.636 489.419,473.636C490.468,473.636 491.902,473.526 493.005,473.36C493.723,473.25 493.998,472.919 493.998,472.422ZM520.259,472.146L520.259,452.892C520.259,446.383 517.169,442.521 509.501,442.521C505.749,442.521 503.212,442.852 500.95,443.238C500.177,443.348 499.791,443.679 499.791,444.286L499.791,446.217C499.791,446.934 500.288,447.1 500.784,447.1L501.06,447.1C503.267,446.879 505.915,446.658 509.501,446.658C513.804,446.658 515.404,448.258 515.404,452.892L515.404,455.099L511.321,455.099C501.501,455.099 498.026,458.078 498.026,464.037L498.026,464.699C498.026,471.595 502.329,473.636 507.018,473.636C510.108,473.636 512.866,472.477 515.514,470.933L515.514,472.146C515.514,472.753 516.011,473.25 516.618,473.25L519.155,473.25C519.762,473.25 520.259,472.753 520.259,472.146ZM515.404,467.457C512.756,468.891 510.494,469.664 507.956,469.664C504.756,469.664 502.881,468.616 502.881,464.644L502.881,463.981C502.881,460.064 504.646,458.575 511.321,458.575L515.404,458.575L515.404,467.457ZM550.988,472.146L550.988,453.996C550.988,446.658 548.009,442.521 541.388,442.521C538.133,442.521 535.651,443.348 532.617,445.059L532.617,444.01C532.617,443.404 532.175,442.907 531.568,442.907L528.81,442.907C528.203,442.907 527.762,443.404 527.762,444.01L527.762,472.146C527.762,472.753 528.258,473.25 528.81,473.25L531.513,473.25C532.12,473.25 532.617,472.698 532.617,472.146L532.617,448.865C535.154,447.596 537.747,446.714 540.064,446.714C544.257,446.714 546.133,448.424 546.133,453.996L546.133,472.146C546.133,472.753 546.629,473.25 547.236,473.25L549.884,473.25C550.491,473.25 550.988,472.753 550.988,472.146Z" style="fill:rgb(27,25,24);stroke:white;stroke-width:0.22px;"/>
            </g>
            <g transform="matrix(1,0,0,1.11009,21.6953,-54.974)">
                <g id="path17" transform="matrix(1.0486,0,0,1.0425,-28.2438,0)">
                    <path d="M347.086,123.476C344.024,169.511 319.53,184.549 307.753,159.22C307.753,128.677 336.476,152.891 347.086,123.476Z" style="fill:url(#_Radial1);fill-rule:nonzero;"/>
                </g>
                <g id="path26" transform="matrix(1.0486,0,0,1.0425,-28.2438,0)">
                    <path d="M323.494,51.106C340.968,72.572 348.777,96.838 347.201,123.823C335.867,153.791 307.507,129.436 307.869,159.568C290.225,114.673 299.904,80.229 323.494,51.106Z" style="fill:url(#_Radial2);fill-rule:nonzero;"/>
                </g>
                <g id="path41" transform="matrix(1.0486,0,0,1.0425,-28.2438,0)">
                    <path d="M264.809,182.513C306.057,161.845 331.427,175.353 315.548,198.333C289.209,213.798 295.547,176.769 264.809,182.513Z" style="fill:url(#_Radial3);fill-rule:nonzero;"/>
                </g>
                <g id="path50" transform="matrix(1.0486,0,0,1.0425,-28.2438,0)">
                    <path d="M214.22,239.542C223.884,213.606 240.856,194.585 264.924,182.281C296.505,176.882 289.862,213.669 315.663,198.101C285.881,236.047 251.278,245.14 214.22,239.542Z" style="fill:url(#_Radial4);fill-rule:nonzero;"/>
                </g>
                <g id="path59" transform="matrix(1.0486,0,0,1.0425,-28.2438,0)">
                    <path d="M357.474,224.055C318.892,198.755 317.84,170.033 345.686,172.23C372.283,187.247 337.076,200.354 357.474,224.055Z" style="fill:url(#_Radial5);fill-rule:nonzero;"/>
                </g>
                <g id="path68" transform="matrix(1.0486,0,0,1.0425,-28.2438,0)">
                    <path d="M432.335,239.162C405.053,243.824 380.083,238.694 357.359,224.055C336.835,199.452 371.987,186.73 345.57,172.23C393.339,178.939 418.574,204.302 432.335,239.162Z" style="fill:url(#_Radial6);fill-rule:nonzero;"/>
                </g>
            </g>
        </g>
    </g>
    <defs>
        <radialGradient id="_Radial1" cx="0" cy="0" r="1" gradientUnits="userSpaceOnUse" gradientTransform="matrix(47.0113,0,0,47.0113,321.716,140.505)"><stop offset="0" style="stop-color:rgb(248,83,25);stop-opacity:1"/><stop offset="1" style="stop-color:rgb(255,182,4);stop-opacity:1"/></radialGradient>
        <radialGradient id="_Radial2" cx="0" cy="0" r="1" gradientUnits="userSpaceOnUse" gradientTransform="matrix(108.462,0,0,108.462,330.393,121.606)"><stop offset="0" style="stop-color:rgb(190,17,0);stop-opacity:1"/><stop offset="1" style="stop-color:rgb(254,144,7);stop-opacity:1"/></radialGradient>
        <radialGradient id="_Radial3" cx="0" cy="0" r="1" gradientUnits="userSpaceOnUse" gradientTransform="matrix(49.9707,0,0,49.9707,281.465,181.259)"><stop offset="0" style="stop-color:rgb(0,38,255);stop-opacity:1"/><stop offset="1" style="stop-color:rgb(90,196,208);stop-opacity:1"/></radialGradient>
        <radialGradient id="_Radial4" cx="0" cy="0" r="1" gradientUnits="userSpaceOnUse" gradientTransform="matrix(93.3276,0,0,93.3276,278.637,219.403)"><stop offset="0" style="stop-color:rgb(11,48,215);stop-opacity:1"/><stop offset="1" style="stop-color:rgb(102,234,255);stop-opacity:1"/></radialGradient>
        <radialGradient id="_Radial5" cx="0" cy="0" r="1" gradientUnits="userSpaceOnUse" gradientTransform="matrix(47.7876,0,0,47.7876,341.49,197.304)"><stop offset="0" style="stop-color:rgb(93,184,3);stop-opacity:1"/><stop offset="1" style="stop-color:rgb(190,237,0);stop-opacity:1"/></radialGradient>
        <radialGradient id="_Radial6" cx="0" cy="0" r="1" gradientUnits="userSpaceOnUse" gradientTransform="matrix(86.7653,0,0,86.7653,399.798,215.105)"><stop offset="0" style="stop-color:rgb(24,140,7);stop-opacity:1"/><stop offset="1" style="stop-color:rgb(150,225,0);stop-opacity:1"/></radialGradient>
    </defs>
</svg>
