<?xml version="1.0" encoding="UTF-8"?>
<!DOCTYPE svg PUBLIC "-//W3C//DTD SVG 1.1//EN" "http://www.w3.org/Graphics/SVG/1.1/DTD/svg11.dtd">
<!-- Creator: CorelDRAW X5 -->
<svg xmlns="http://www.w3.org/2000/svg" xml:space="preserve" width="300px" height="105px" style="shape-rendering:geometricPrecision; text-rendering:geometricPrecision; image-rendering:optimizeQuality; fill-rule:evenodd; clip-rule:evenodd"
viewBox="0 0 300 105.275"
 xmlns:xlink="http://www.w3.org/1999/xlink">
 <defs>
  <style type="text/css">
   <![CDATA[
    .fil1 {fill:#2A2A29}
    .fil0 {fill:#007A5C}
    .fil2 {fill:#F9B101}
   ]]>
  </style>
 </defs>
 <g id="Слой_x0020_1">
  <metadata id="CorelCorpID_0Corel-Layer"/>
  <g id="_283153752">
   <path id="_283154016" class="fil0" d="M9.29184 52.5511l43.2727 -43.2727 12.6746 12.6742 -0.00101586 0c2.8186,3.06789 4.54291,7.1559 4.54291,11.6336 0,9.48363 -7.73331,17.2159 -17.2165,17.2165 -12.285,0.000406343 -23.2968,5.61911 -30.5982,14.4215l0 0.0014222 -12.6744 -12.6746zm73.8715 -12.6742l12.6744 12.6742 -43.2733 43.2731 -12.674 -12.6742 0.0014222 0c-2.819,-3.06768 -4.54352,-7.1557 -4.54352,-11.6336 0,-9.48323 7.73311,-17.2161 17.2161,-17.2165 12.2854,-0.000406343 23.2979,-5.6187 30.5988,-14.4215l0 -0.0014222zm-65.5681 -22.295l17.3939 0 17.5753 -17.5759 17.5759 17.5759 17.3941 0 0 17.3935 17.5757 17.5757 -17.5757 17.5759 0 17.3941 -17.3941 0 -17.5759 17.5757 -17.5753 -17.5757 -17.3939 0 0 -17.3941 -17.5759 -17.5759 17.5759 -17.5757 0 -17.3935zm16.1137 4.37083l-11.7427 0 0 11.7427 -18.8561 18.8557 14.4851 14.4853 0 0.000203171 4.37103 4.37083 0 11.7425 11.7427 0 4.37062 4.37123 0.000203171 0 14.4847 14.4849 14.4853 -14.4849 0 0 4.37062 -4.37123 11.7429 0 0 -11.7425 4.37123 -4.37083 0 -0.000609514 14.4849 -14.4849 -14.4849 -14.4847 0 0 -4.37123 -4.37103 0 -11.7427 -11.7429 0 -4.37062 -4.37083 0 0 -14.4853 -14.4851 -18.8555 18.8559z"/>
   <path id="_283153944" class="fil0" d="M160.976 87.5209l-8.74246 0 16.6107 -33.2212 8.74246 0 16.6107 33.2212 -8.74246 0 -2.62274 -5.24528 -19.2334 0 -2.62274 5.24528zm-54.2031 -33.2212l33.6584 0c4.56811,0 8.30524,3.73734 8.30524,8.30544l0 0c0,4.5679 -3.73713,8.30524 -8.30524,8.30524 4.56811,0 8.30524,3.73713 8.30524,8.30524l0 0c0,4.56811 -3.73713,8.30524 -8.30524,8.30524l-33.6584 0 0 -33.2212zm0 -36.7181l8.74246 0 0 13.9879 24.4789 0 0 -13.9879 8.74226 0 0 33.2212 -8.74226 0 0 -13.9877 -24.4789 0 0 13.9877 -8.74246 0 0 -33.2212zm78.682 33.2212l8.74246 0 -16.6107 -33.2212 -8.74246 0 -16.6107 33.2212 8.74246 0 2.62274 -5.24548 19.2334 0 2.62274 5.24548zm-12.2394 -24.4787l6.99397 13.9877 -13.9879 0 6.99397 -13.9877zm24.4787 -8.74246l8.74246 0 0 27.9757 24.4789 0 0 5.24548 -33.2214 0 0 -33.2212zm45.4608 19.2334l0 13.9877 -8.74246 0 0 -13.9877 -16.6107 -19.2334 8.74246 0 12.2394 13.9879 12.2392 -13.9879 8.74246 0 -16.6105 19.2334zm19.2336 -19.2334l8.74246 0 0 13.9879 19.2332 -13.9879 9.61671 0 -22.5555 16.6107 22.5555 16.6105 -9.61671 0 -19.2332 -13.9877 0 13.9877 -8.74246 0 0 -33.2212zm-4.1963 53.3288l22.5555 -16.6107 -9.61671 0 -19.2334 13.9879 0 -13.9879 -8.74246 0 0 33.2212 8.74246 0 0 -13.9877 19.2334 13.9877 9.61671 0 -22.5555 -16.6105zm-60.4981 -16.6107l8.74246 0 24.4789 24.4789 0 -24.4789 8.74246 0 0.000203171 33.2212 -8.74226 0 -0.000406343 0 -24.4789 -24.4787 0 24.4787 -8.74246 0 0 -33.2212zm-82.1788 5.24548l0 8.74246 20.1077 0c2.40413,0 4.37123,-1.96711 4.37123,-4.37123l0 0c0,-2.40413 -1.96711,-4.37123 -4.37123,-4.37123l-20.1077 0zm0 13.9879l0 8.74246 20.1077 0c2.40413,0 4.37123,-1.96711 4.37123,-4.37123l0 0c0,-2.40433 -1.96711,-4.37123 -4.37123,-4.37123l-20.1077 0zm64.694 3.49699l-6.99397 -13.9879 -6.99397 13.9879 13.9879 0z"/>
   <path id="_283153824" class="fil1" d="M130.901 0.0967096l1.39883 0 0 2.18572 3.20523 -2.18572 1.69018 0 -3.79646 2.62274 3.16378 2.18572 0.632676 0 -0.916912 1.39863 -0.740763 0 0.279361 -0.96161 -0.311868 0 -3.20523 -2.18551 0 2.18551 -1.39883 0 0 -5.24548zm66.128 99.6637l1.39883 0 0 2.18572 3.20523 -2.18572 1.69018 0 -3.79626 2.62274 3.79626 2.62274 -1.69018 0 -3.20523 -2.18551 0 2.18551 -1.39883 0 0 -5.24548zm-9.63662 0l1.3968 0 0 2.18572 4.19833 0 0 -2.18572 1.3968 0 0 2.18572 0.00203171 0 0 0.874246 -0.00203171 0 0 2.18551 -1.3968 0 0 -2.18551 -4.19833 0 0 2.18551 -1.3968 0 0 -5.24548zm-5.14044 0l-1.39883 0 -2.79767 5.24548 1.39883 0 0.466278 -0.874246 3.26395 0 0.466278 0.874246 1.39863 0 -2.79747 -5.24548zm-1.86491 3.49699l1.16539 -2.18551 1.16559 2.18551 -2.33099 0zm-10.6693 -3.49699l5.59514 0 0 0.874246 -4.19854 0 0 1.31147 3.36797 0c0.841739,0 1.53008,0.688141 1.53008,1.52988l0 0c0,0.841739 -0.688345,1.52988 -1.53008,1.52988l-4.76457 0 0 -5.24548zm1.3966 3.05996l0 1.31127 2.86228 0c0.361036,0 0.655837,-0.294802 0.655837,-0.655634l0 0c0,-0.360832 -0.294802,-0.655634 -0.655837,-0.655634l-2.86228 0zm-9.82435 -3.05996l-1.40087 0 -4.1963 3.84664 0 -3.84664 -1.3968 0 0 5.24548 1.3968 0 4.1963 -3.84664c0,-0.373429 0.00223489,3.3507 0.00223489,3.84664l1.39863 0 0 -5.24548zm-4.80927 -0.874246l2.62274 0 0 0.874246 -2.62274 0 0 -0.874246zm-12.9203 0.874246l1.3966 0 0 2.18572 3.36797 0c0.841739,0 1.52988,0.688141 1.52988,1.52988l0 0c0,0.841739 -0.688141,1.52988 -1.52988,1.52988l-4.76457 0 0 -5.24548zm6.99031 0l1.40229 0 0 5.24548 -1.40229 0 0 -5.24548zm-5.59371 3.05996l0 1.31127 2.86228 0c0.360832,0 0.655634,-0.294802 0.655634,-0.655634l0 0c0,-0.360832 -0.294802,-0.655634 -0.655634,-0.655634l-2.86228 0zm-10.7335 -3.05996l1.3966 0 0 2.18572 4.19854 0 0 -2.18572 1.3966 0 0 2.18572 0.00223489 0 0 0.874246 -0.00223489 0 0 2.18551 -1.3966 0 0 -2.18551 -4.19854 0 0 2.18551 -1.3966 0 0 -5.24548zm-10.0363 4.37123l0.699316 0 0 -1.74849c0,-1.44252 1.18022,-2.62274 2.62274,-2.62274l3.67192 0 0 4.37123 0.699316 0 0 0.874246 -7.69329 0 0 -0.874246zm1.83586 0l3.75928 0 0 -3.49699 -2.01079 0c-0.962016,0 -1.74849,0.786476 -1.74849,1.74849l0 1.74849zm-19.8104 0.874246l1.3968 0 0 -2.18551 3.36797 0c0.841739,0 1.52988,-0.688345 1.52988,-1.53008l0 0c0,-0.841536 -0.688141,-1.52988 -1.52988,-1.52988l-4.76477 0 0 5.24548zm1.3968 -3.05976l0 -1.31147 2.86228 0c0.360832,0 0.655634,0.294802 0.655634,0.655634l0 0c0,0.361036 -0.294802,0.655837 -0.655634,0.655837l-2.86228 0zm8.11507 -2.18572l5.24548 0c0.480703,0 0.874246,0.393543 0.874246,0.874246l0 3.49699c0,0.480907 -0.393543,0.874246 -0.874246,0.874246l-5.24548 0c-0.480907,0 -0.874246,-0.39334 -0.874246,-0.874246l0 -3.49699c0,-0.480703 0.39334,-0.874246 0.874246,-0.874246zm0.524588 0.874246l4.1963 0 0 3.49699 -4.1963 0 0 -3.49699zm-15.1769 -0.874246l-1.39883 0 -2.79747 5.24548 1.39863 0 0.466278 -0.874246 3.26395 0 0.466278 0.874246 1.39863 0 -2.79747 -5.24548zm-1.86491 3.49699l1.16539 -2.18551 1.16559 2.18551 -2.33099 0zm-11.6683 -3.49699l1.3966 0 0 2.18572 4.19854 0 0 -2.18572 1.3966 0 0 2.18572 0.00223489 0 0 0.874246 -0.00223489 0 0 2.18551 -1.3966 0 0 -2.18551 -4.19854 0 0 2.18551 -1.3966 0 0 -5.24548zm209.644 0l-1.39883 0 -2.79767 5.24548 1.39883 0 0.466075 -0.874246 3.26415 0 0.466075 0.874246 1.39883 0 -2.79747 -5.24548zm-86.8296 0l1.39883 0 0 2.18572 3.20523 -2.18572 1.69018 0 -3.79626 2.62274 3.79626 2.62274 -1.69018 0 -3.20523 -2.18551 0 2.18551 -1.39883 0 0 -5.24548zm73.2961 0l1.3968 0 0 2.18572 4.19854 0 0 -2.18572 1.3966 0 0 2.18572 0.00203171 0 0 0.874246 -0.00203171 0 0 2.18551 -1.3966 0 0 -2.18551 -4.19854 0 0 2.18551 -1.3968 0 0 -5.24548zm-5.14044 0l-1.39883 0 -2.79747 5.24548 1.39863 0 0.466278 -0.874246 3.26395 0 0.466278 0.874246 1.39863 0 -2.79747 -5.24548zm-1.86491 3.49699l1.16559 -2.18551 1.16539 2.18551 -2.33099 0zm-19.7265 -3.49699l5.24548 0c0.480907,0 0.874246,0.393543 0.874246,0.874246l0 0.874246 -1.39883 0 0 -0.874246 -4.1963 0 0 3.49699 4.1963 0 0 -0.874246 1.39883 0 0 0.874246c0,0.480907 -0.39334,0.874246 -0.874246,0.874246l-5.24548 0c-0.480703,0 -0.874246,-0.39334 -0.874246,-0.874246l0 -3.49699c0,-0.480703 0.393543,-0.874246 0.874246,-0.874246zm-7.11872 3.05996l-1.92342 2.18551 -1.57356 0 2.30843 -2.62274 -2.30843 -2.62274 1.57356 0 1.92342 2.18572 1.92342 -2.18572 1.57356 0 -2.30843 2.62274 2.30843 2.62274 -1.57356 0 -1.92342 -2.18551zm-8.63742 -3.05996l-1.39883 0 -2.79767 5.24548 1.39883 0 0.466075 -0.874246 3.26415 0 0.466075 0.874246 1.39883 0 -2.79747 -5.24548zm-1.86511 3.49699l1.16559 -2.18551 1.16559 2.18551 -2.33119 0zm-10.0946 -3.49699c-0.480907,0 -0.874246,0.393543 -0.874246,0.874246l0 0.874246 1.39883 0 0 -0.874246 3.49678 0 0 1.31147 -1.74849 0 0 0.874246 1.74849 0 0 1.31127 -3.49678 0 0 -0.874246 -1.39883 0 0 0.874246c0,0.480907 0.39334,0.874246 0.874246,0.874246l4.54596 0c0.480907,0 0.874246,-0.39334 0.874246,-0.874246l0 -0.874246c0,-0.473389 -0.381556,-0.862259 -0.852101,-0.874246 0.470545,-0.0117839 0.852101,-0.400654 0.852101,-0.874246l0 -0.874246c0,-0.480703 -0.39334,-0.874246 -0.874246,-0.874246l-4.54596 0zm-6.01489 0l-1.39883 0 -2.79747 5.24548 1.39883 0 0.466075 -0.874246 3.26415 0 0.466075 0.874246 1.39883 0 -2.79767 -5.24548zm-1.86491 3.49699l1.16559 -2.18551 1.16559 2.18551 -2.33119 0zm44.4092 -3.49699c2.32916,0 4.66136,0 6.99377,0l0 0.874246 -2.79747 0 0 4.37123 -1.39883 0 0 -4.37123 -2.79747 0 0 -0.874246zm29.5868 3.49699l1.16539 -2.18551 1.16559 2.18551 -2.33099 0zm-56.7171 -103.161l1.39883 0 0 2.18572 3.20523 -2.18572 1.69018 0 -3.79646 2.62274 3.16378 2.18572 0.632676 0 -0.916912 1.39863 -0.740763 0 0.279361 -0.96161 -0.311868 0 -3.20523 -2.18551 0 2.18551 -1.39883 0 0 -5.24548zm-19.5831 0l-1.39883 0 -2.79747 5.24548 1.39883 0 2.09815 -3.93401 2.09815 3.93401 1.39883 0 -2.79767 -5.24548zm6.99397 0l1.3966 0 0 2.18572 3.36797 0c0.841739,0 1.52988,0.688141 1.52988,1.52988l0 0c0,0.841739 -0.688141,1.52988 -1.52988,1.52988l-4.76457 0 0 -5.24548zm6.99052 0l1.40229 0 0 5.24548 -1.40229 0 0 -5.24548zm-5.59392 3.05996l0 1.31127 2.86228 0c0.361036,0 0.655837,-0.294802 0.655837,-0.655634l0 0c0,-0.360832 -0.294802,-0.655634 -0.655837,-0.655634l-2.86228 0zm-19.5808 -3.05996l-1.39883 0 -2.79747 5.24548 1.39863 0 0.466278 -0.874246 3.26395 0 0.466278 0.874246 1.39863 0 -2.79747 -5.24548zm-1.86491 3.49699l1.16559 -2.18551 1.16539 2.18551 -2.33099 0zm-10.0249 -0.437022l-1.92322 2.18551 -1.57377 0 2.30843 -2.62274 -2.30843 -2.62274 1.57377 0 1.92322 2.18572 1.92342 -2.18572 1.57356 0 -2.30823 2.62274 2.30823 2.62274 -1.57356 0 -1.92342 -2.18551zm102.646 -3.05996l1.3966 0 0 5.24548 -1.3966 0 0 -5.24548zm-10.4906 0l1.39863 0 0 2.18572 3.20543 -2.18572 1.68998 0 -3.79626 2.62274 3.79626 2.62274 -1.68998 0 -3.20543 -2.18551 0 2.18551 -1.39863 0 0 -5.24548zm-11.1905 0l1.3968 0 0 2.18572 4.19854 0 0 -2.18572 1.3966 0 0 2.18572 0.00203171 0 0 0.874246 -0.00203171 0 0 2.18551 -1.3966 0 0 -2.18551 -4.19854 0 0 2.18551 -1.3968 0 0 -5.24548zm-6.99377 0l-1.39883 0 -2.79767 5.24548 1.39883 0 0.466075 -0.874246 3.26415 0 0.466075 0.874246 1.39883 0 -2.79747 -5.24548zm-1.86491 3.49699l1.16539 -2.18551 1.16559 2.18551 -2.33099 0zm-12.8223 -3.49699l5.59514 0 0 0.874246 -4.19854 0 0 1.31147 3.36797 0c0.841739,0 1.52988,0.688141 1.52988,1.52988l0 0c0,0.841739 -0.688141,1.52988 -1.52988,1.52988l-4.76457 0 0 -5.24548zm1.3966 3.05996l0 1.31127 2.86228 0c0.360832,0 0.655634,-0.294802 0.655634,-0.655634l0 0c0,-0.360832 -0.294802,-0.655634 -0.655634,-0.655634l-2.86228 0zm-169.079 -3.05996l1.39863 0 0 2.18572 3.20543 -2.18572 1.68998 0 -3.79626 2.62274 3.16378 2.18572 0.632472 0 -0.916912 1.39863 -0.74056 0 0.279361 -0.96161 -0.311868 0 -3.20543 -2.18551 0 2.18551 -1.39863 0 0 -5.24548zm87.4236 0l1.3966 0 0 2.18572 4.19854 0 0 -2.18572 1.3966 0 0 2.18572 0.00203171 0 0 0.874246 -0.00203171 0 0 2.18551 -1.3966 0 0 -2.18551 -4.19854 0 0 2.18551 -1.3966 0 0 -5.24548zm-6.99397 0l-1.39883 0 -2.79767 5.24548 1.39883 0 0.466075 -0.874246 3.26415 0 0.466075 0.874246 1.39883 0 -2.79747 -5.24548zm-1.86491 3.49699l1.16539 -2.18551 1.16559 2.18551 -2.33099 0zm-23.8379 -3.49699l5.24548 0c0.480703,0 0.874246,0.393543 0.874246,0.874246l0 0.874246 -1.39883 0 0 -0.874246 -4.1963 0 0 3.49699 4.1963 0 0 -0.874246 1.39883 0 0 0.874246c0,0.480907 -0.393543,0.874246 -0.874246,0.874246l-5.24548 0c-0.480907,0 -0.874246,-0.39334 -0.874246,-0.874246l0 -3.49699c0,-0.480703 0.39334,-0.874246 0.874246,-0.874246zm-18.3588 0l-1.39883 0 -2.79747 5.24548 1.39863 0 0.466278 -0.874246 3.26395 0 0.466278 0.874246 1.39883 0 -2.79767 -5.24548zm-1.86491 3.49699l1.16559 -2.18551 1.16539 2.18551 -2.33099 0zm-11.9481 -3.49699c-0.480907,0 -0.874246,0.393543 -0.874246,0.874246l0 0.874246 1.39883 0 0 -0.874246 3.49699 0 0 1.31147 -1.74849 0 0 0.874246 1.74849 0 0 1.31127 -3.49699 0 0 -0.874246 -1.39883 0 0 0.874246c0,0.480907 0.39334,0.874246 0.874246,0.874246l4.54596 0c0.480907,0 0.874246,-0.39334 0.874246,-0.874246l0 -0.874246c0,-0.473389 -0.381353,-0.862259 -0.852101,-0.874246 0.470748,-0.0117839 0.852101,-0.400654 0.852101,-0.874246l0 -0.874246c0,-0.480703 -0.39334,-0.874246 -0.874246,-0.874246l-4.54596 0zm-7.86822 0l-1.39883 0 -2.79747 5.24548 1.39883 0 0.466075 -0.874246 3.26395 0 0.466278 0.874246 1.39883 0 -2.79767 -5.24548zm-1.86491 3.49699l1.16559 -2.18551 1.16539 2.18551 -2.33099 0zm52.2209 -3.49699c2.32936,0 4.66156,0 6.99397,0l0 0.874246 -2.79767 0 0 4.37123 -1.39863 0 0 -4.37123 -2.79767 0 0 -0.874246z"/>
   <path id="_283153848" class="fil2" d="M3.11015 52.5513l18.8561 -18.8559 0 -11.7425 11.7425 0 18.8559 -18.8561 18.8561 18.8561 11.7425 0 0 11.7425 18.8559 18.8559 -18.8559 18.8561 0 11.7425 -11.7425 0 -18.8561 18.8559 -18.8559 -18.8559 -11.7425 0 0 -11.7425 -18.8561 -18.8561zm18.8561 12.673c7.30137,-8.8026 18.3133,-14.4211 30.5984,-14.4215 9.48323,-0.000203171 17.2163,-7.73352 17.2163,-17.2165 0,-4.4779 -1.72432,-8.56591 -4.54332,-11.6334l0.0014222 0 -12.6744 -12.6744 -12.6744 12.6744 -17.924 17.924 -12.6744 12.6744 12.6744 12.6744 0 -0.0014222zm61.197 -25.3475l0 0.0014222c-7.30137,8.8026 -18.3133,14.4211 -30.5986,14.4215 -9.48302,0.000406343 -17.2161,7.73352 -17.2161,17.2167 0,4.4779 1.72432,8.5657 4.54311,11.6334l-0.0014222 0 12.6744 12.6742 12.6744 -12.6742 17.9242 -17.9242 12.6744 -12.6744 -12.6744 -12.6744z"/>
  </g>
 </g>
</svg>
