<svg width="200" height="56" fill="none" xmlns="http://www.w3.org/2000/svg"><g clip-path="url(#clip0_125_4027)" fill="#392F2C"><path d="M33.377 19.272c.078-6.328-1.972-10.73-5.507-13.954a16.06 16.06 0 00-6.775-3.488 28.426 28.426 0 00-6.627-.642l-9.86.146c-.352 0-3.697-.104-3.697-.104L.87 2.29c.993 0 1.183-.042 2.148 0 1.57.042 1.732.893 1.732 1.626 0 .384.043 4.221.043 4.221l.077 24.79s-.042 1.5-.12 1.988c-.077.488-.091 1.974-2.289 2.037H.284v.886s4.48-.23 6.141-.195c1.98 0 8.614.244 8.614.244s1.936-.042 2.626-.105c6.339-.579 9.268-3.635 10.381-4.737 5.747-5.707 5.303-13.8 5.303-13.8l.028.027zM23.82 30.757c-.295.411-3.52 5.637-9.606 6.035h-2.387s-1.12 0-1.12-.991V3.288a.88.88 0 01.234-.594.897.897 0 01.576-.285 20.97 20.97 0 012.888 0 11.8 11.8 0 017.746 3.098 14.21 14.21 0 013.775 5.937 23.911 23.911 0 011.29 7.452c0 .774.175 6.844-3.417 11.86m173.712 6.224c-2.204-.063-2.211-1.681-2.296-2.232-.084-.552-.119-1.794-.119-1.794l.077-24.79s.049-3.243.049-3.627a2.082 2.082 0 01.508-1.506 2.122 2.122 0 011.429-.72h2.148l-.042-1.06s-3.557.104-3.902.104h-6.134c-.345 0-3.901-.104-3.901-.104l-.043 1.06c.993 0 1.176-.042 2.113 0a2.12 2.12 0 011.429.72c.362.416.545.957.508 1.506 0 .384.042 3.628.042 3.628l.085 24.79s-.05 1.304-.12 1.793c-.071.488-.092 2.17-2.296 2.232h-2.176v.886s5.754-.049 7.416 0h7.394v-.886h-2.176m-81.722 0c-2.204-.063-2.211-1.681-2.295-2.232-.085-.552-.113-1.794-.113-1.794l.077-24.79s.043-3.243.043-3.627a2.082 2.082 0 01.507-1.506 2.122 2.122 0 011.429-.72h2.113l-.042-1.06s-3.521.104-3.902.104h-6.127c-.352 0-3.908-.104-3.908-.104l-.043 1.06c.993 0 1.176-.042 2.148 0 .555.043 1.07.3 1.434.717.364.417.547.96.51 1.509 0 .384.042 3.628.042 3.628l.078 24.79s-.043 1.304-.12 1.793c-.077.488-.092 2.17-2.289 2.232h-2.183v.886s5.754-.049 7.416 0h7.395v-.886h-2.177m-46.318-2.463V6.31l10.711 30.218h.909l9.45-30.7.078 27.127s-.042 1.305-.12 1.794c-.077.488-.091 2.17-2.288 2.232H86.02v.886s5.746-.049 7.408 0h7.396v-.886h-2.176c-2.197-.063-2.212-1.681-2.296-2.232-.085-.552-.113-1.794-.113-1.794l.078-24.789s.042-3.244.042-3.628a2.033 2.033 0 01.497-1.513 2.068 2.068 0 011.44-.706h2.113l-.043-1.06s-3.521.104-3.901.104c-2 0-5.719-.16-5.719-.16l-8.07 26.513-8.959-26.43s-6.486.189-9.733-.076v1.053a9.38 9.38 0 012.564.252c1.007.32 1.852 1.081 1.852 3.258-.039.465-.025.933.042 1.395v27.476a2.34 2.34 0 01-.731 1.689 2.385 2.385 0 01-1.734.655h-1.972v.886s5.543-.049 7.205 0h3.585v-.886h-3.022c-2.204-.063-2.218-1.73-2.302-2.281l-.014-.189zM173.56 1.216s3.718.16 5.718.16c.352 0 4.113-.104 4.113-.104v.983c-.986 0-1.585 0-2.345.063-.553.043-1.067.3-1.431.715a2.08 2.08 0 00-.513 1.504c0 .384-.042 3.628-.042 3.628l-.078 30.28h-.507L165.799 19.26l-9.156-13.35v28.782c.085.558.099 2.225 2.296 2.288h2.176v.886s-.704-.049-2.387 0h-7.761v-.886h2.176a2.394 2.394 0 001.735-.653 2.347 2.347 0 00.73-1.691V7.16a7.394 7.394 0 01-.035-1.395c0-2.177-.852-2.937-1.859-3.258a10.663 10.663 0 00-2.768-.252V1.202c3.247.265 9.944.077 9.944.077l17.029 25.236V4.293a1.984 1.984 0 00-.656-1.53 2.017 2.017 0 00-1.598-.508h-2.169l.064-1.04zm-51.052 34.452a2.975 2.975 0 01-1.894 1.27c-.481.12-.977.17-1.472.147v.879s2.556-.098 4.098-.098c1.543 0 4.895.07 4.895.07v-.823l-2.401-.168c-1.951-.286-1.36-1.904-1.36-1.904l2.937-10.333h8.55s2.542 8.24 3.141 10.13c.669 2.093-1.275 2.051-1.761 2.093l-1.542.105-.916.042v.837l2.86-.077h5.028c2.38 0 7.099.112 7.099.112v-.9c-.677.026-1.355.005-2.028-.063a3.771 3.771 0 01-1.698-.956 5.362 5.362 0 01-1.373-2.218c-.197-.538-10.874-33.155-10.874-33.155h-.591s-8.451 29.631-8.874 30.803a21.257 21.257 0 01-1.824 4.242v-.035zm5.057-12.21l3.929-13.074 4.029 13.075h-7.958zM35.68 35.599a2.965 2.965 0 01-1.894 1.277 5.448 5.448 0 01-1.472.146v.851s2.556-.097 4.099-.097c1.542 0 4.93.062 4.93.062v-.823l-2.402-.16c-1.95-.293-1.36-1.905-1.36-1.905l2.938-10.32h8.55s2.542 8.248 3.14 10.138c.704 2.093-1.275 2.045-1.76 2.093l-1.543.105h-.915v.837l2.859-.076h5.028c2.38 0 7.1.104 7.1.104v-.9c-.677.03-1.355.01-2.029-.063a3.7 3.7 0 01-1.697-.955 5.315 5.315 0 01-1.373-2.219C57.68 33.157 47.005.546 47.005.546h-.592s-8.45 29.625-8.873 30.797a21.263 21.263 0 01-1.825 4.242l-.035.014zm5.092-12.252l3.93-13.075 4.028 13.075h-7.958zm156.458 30.12l1.105-1.305v1.305h-1.105zm-.923.272v.28h2.028v1.485h.705v-1.493h.535v-.551h-.535v-2.52h-.282l-2.451 2.798zm-5.24.977c.321-.343.615-.71.881-1.096.145-.218.266-.452.359-.697a2.01 2.01 0 00.098-.58 1.332 1.332 0 00-.408-1.005 1.408 1.408 0 00-1.035-.39 1.87 1.87 0 00-1.155.426v.823a1.72 1.72 0 01.507-.454 1.14 1.14 0 01.57-.16.789.789 0 01.785.517c.04.105.058.216.053.327a1.47 1.47 0 01-.119.559 5.882 5.882 0 01-.522.823c-.267.372-.626.818-1.077 1.34l-.289.32v.042h3.036v-.62h-1.86l.176-.175zm-6.613-1.724a.814.814 0 01-.563-.209.66.66 0 01-.239-.51.694.694 0 01.218-.53.76.76 0 01.549-.209.78.78 0 01.599.251.882.882 0 01.232.635 2.693 2.693 0 01-.042.335 1.368 1.368 0 01-.754.237zm.965 1.25c.333-.48.521-1.044.543-1.626a1.667 1.667 0 00-.437-1.186 1.55 1.55 0 00-2.113-.07 1.277 1.277 0 000 1.87 1.297 1.297 0 00.944.383 1.5 1.5 0 00.767-.188 2.411 2.411 0 01-.535.928c-.268.3-.582.556-.929.76l.422.468a3.943 3.943 0 001.409-1.312l-.071-.028zm-7.965 1.29h.704v-4.507h-.704v4.507zm-14.705 0h2.817v-.572h-2.113v-1.395h1.965v-.58h-1.965V51.59h2.029v-.579h-2.719l-.014 4.521zm-5.789-.537c-.5.023-.99-.147-1.366-.475a1.648 1.648 0 01-.547-1.22 1.637 1.637 0 01.547-1.222 1.947 1.947 0 011.366-.488c.579.01 1.145.164 1.648.447v-.698a4.629 4.629 0 00-1.683-.37 2.648 2.648 0 00-1.838.698 2.142 2.142 0 00-.754 1.653c0 .407.115.806.331 1.152.215.352.522.641.888.837.42.21.888.314 1.359.3a3.758 3.758 0 001.746-.384v-.698a3.236 3.236 0 01-1.704.503l.007-.035zm-7.359-.426l-3.233-3.488h-.556v4.507h.641v-3.489l3.211 3.489h.592V51.08h-.655v3.488zm-8.803 1.005h.704v-4.507h-.704v4.507zm-4.642-1.11a.51.51 0 01-.218.426.844.844 0 01-.535.168 1.644 1.644 0 01-1.289-.698v.823a2.2 2.2 0 001.296.405c.364.016.721-.104 1-.335a1.1 1.1 0 00.387-.88 1.432 1.432 0 00-.873-1.255l-.528-.293a1.92 1.92 0 01-.514-.37.554.554 0 01-.155-.377.44.44 0 01.211-.377.986.986 0 01.556-.146c.418.011.815.178 1.113.468v-.698a2.011 2.011 0 00-1.098-.314 1.51 1.51 0 00-1.022.335 1.053 1.053 0 00-.394.858 1.03 1.03 0 00.204.628c.197.229.436.418.705.558l.521.293c.422.251.633.51.633.782zm-14.789-1.841l-1.282-1.556h-.887l1.775 2.093v2.386h.704V53.16l1.768-2.093h-.831l-1.247 1.556zm-7.5 2.95h2.852v-.585h-2.162v-3.921h-.704l.014 4.507zm-6.881-1.91l.704-1.633.775 1.632h-1.479zm-1.577 1.91h.704l.599-1.332h2.049l.641 1.333h.704l-2.155-4.528h-.479l-2.063 4.528zm-6.663-3.934h1.641v3.935h.705v-4.005h1.676v-.579H98.76l-.014.649zm-4.584 3.935h.704v-4.507h-.704v4.507zm-11.973-1.005l-3.232-3.488H78.4v4.507h.641v-3.489l3.212 3.489h.591V51.08h-.655v3.488zm-8.803 1.005h.704v-4.507h-.704v4.507zm-13.817 0h2.817v-.572h-2.113v-1.396h1.965v-.579h-1.965v-1.395h2.035v-.58h-2.725l-.014 4.522zm-6.24-3.886a1.9 1.9 0 01.472.14c.16.072.307.168.436.285a1.487 1.487 0 01.529 1.18 1.606 1.606 0 01-.514 1.22 1.342 1.342 0 01-.346.252c-.15.078-.312.134-.478.167a3.43 3.43 0 01-.803.07h-.874v-3.35h.86c.235-.005.47.006.704.036h.014zm-.76 3.886c.288.017.577.017.865 0 .17-.025.335-.07.494-.133.303-.105.58-.272.816-.488.224-.193.404-.431.529-.698.127-.27.191-.566.19-.865a2.197 2.197 0 00-1.247-1.974 3.551 3.551 0 00-1.55-.28h-1.619v4.5l1.521-.062zm-8.41-1.905l.705-1.632.774 1.632H44.16zm-1.577 1.912h.704l.599-1.333h2.05l.64 1.333h.704l-2.169-4.605h-.486l-2.042 4.605zm-5.972-2.658l-1.599-1.85h-.648v4.508h.705v-3.489l1.5 1.738h.091l1.472-1.738v3.489h.704v-4.507h-.64l-1.585 1.849zm-8.451-1.235c.163.026.321.072.472.14.163.07.312.166.443.285a1.5 1.5 0 01.521 1.18 1.6 1.6 0 01-.507 1.22 1.352 1.352 0 01-.352.252 1.76 1.76 0 01-.472.167 3.43 3.43 0 01-.802.07h-.88v-3.35h.858c.236-.006.471.006.705.036h.014zm-.76 3.886c.288.017.577.017.865 0 .172-.025.34-.07.5-.133.304-.105.582-.272.817-.488.22-.196.4-.433.529-.698.224-.517.24-1.1.043-1.628a2.205 2.205 0 00-1.1-1.211 3.551 3.551 0 00-1.556-.28h-1.613v4.5l1.514-.062zm-6.445-.998l-3.232-3.488h-.557v4.507h.641v-3.489l3.212 3.489h.591v-4.507h-.655v3.488zm-10.69-.907l.704-1.632.774 1.632h-1.478zm-1.585 1.912h.704l.599-1.333h2.028l.641 1.333h.704l-2.113-4.528h-.485L8.679 55.58zm-4.45-2.56H1.445v-1.947H.742v4.507h.704v-1.96h2.698v1.96h.704v-4.507h-.704l.084 1.946z"/></g><defs><clipPath id="clip0_125_4027"><path fill="#fff" transform="translate(.313 .56)" d="M0 0h199.375v55H0z"/></clipPath></defs></svg>