<svg xmlns="http://www.w3.org/2000/svg" xmlns:xlink="http://www.w3.org/1999/xlink" width="2150pt" height="724" viewBox="0 0 2150 543">
  <defs>
    <linearGradient id="a">
      <stop style="stop-color:#0150b5;stop-opacity:1" offset="0"/>
      <stop style="stop-color:#7cdefd;stop-opacity:1" offset=".502"/>
      <stop style="stop-color:#0150b5;stop-opacity:1" offset="1"/>
    </linearGradient>
    <linearGradient xlink:href="#a" id="b" x1="379.44" y1="342.882" x2="1464.813" y2="340.361" gradientUnits="userSpaceOnUse"/>
  </defs>
  <path fill="#0150b5" d="M0 0h173.15c10.71 1.59 21.6 1.77 32.28 3.7 34 5.28 68.35 18.01 92.7 43.16 21.71 21.71 32.92 52.23 34.54 82.55 1.64 22.88-1.5 46.58-12.03 67.17-9.46 18.85-24.73 34.43-42.6 45.45-4.07 2.85-8.83 4.61-12.78 7.62 7.83 4.02 16.28 6.72 23.91 11.18 22.62 11.98 42.1 30.52 53.35 53.68 13.08 26.3 15.4 56.61 12.35 85.45-2.28 21.73-8.5 43.28-19.91 62.01-15.03 25.15-39.36 43.7-66.2 54.79-38.38 15.95-80.59 19.5-121.76 18.9-49 0-98-.01-147 0zm78.29 69c.03 51.06.01 102.12.01 153.19 11.57.04 23.13 0 34.7.02 22.44-.33 45.02 1.1 67.33-2.08 19.17-2.91 38.62-9.32 53.11-22.7 13.03-11.86 20.23-29.21 21.26-46.64.73-12.41-.07-25.15-4.62-36.84-5.36-14.6-16.97-26.39-30.87-33.11-19.53-9.63-41.73-11.71-63.22-11.79-25.9-.27-51.8 0-77.7-.05m-.02 219.62c.06 59.4.06 118.82 0 178.21 29.91-.11 59.83 0 89.74-.05 7.7 0 15.38-.69 23.02-1.56 21.44-2.73 43.31-8.97 60.27-22.94 14.06-11.46 22.84-28.57 25.41-46.4 2.88-19.78 1.23-40.81-7.71-58.93-7.78-15.83-21.74-28.03-37.66-35.29-22.55-10.39-47.77-12.98-72.33-13.09-26.92.03-53.83-.08-80.74.05m1428.64-236.2c25.26-3.82 50.48-7.97 75.74-11.82-.12 165.02-.05 330.05-.04 495.07-25.23.01-50.47-.07-75.7.04-.05-161.1-.05-322.2 0-483.29m154.22 0c25.24-3.84 50.45-7.92 75.68-11.83-.07 40.87-.04 81.75-.02 122.63 25.51.04 51.02.06 76.53-.01.05 22.31.06 44.63-.01 66.94-25.5.02-51.01.03-76.52 0-.04 69.29 0 138.59-.02 207.89-.08 7.41 1.37 15.17 6.07 21.13 6.97 9.1 18.64 12.94 29.66 14.09 13.35 1.28 26.81.03 40.08-1.64 3.41 21.91 7.06 43.78 10.38 65.7-12.07 2.19-24.29 3.49-36.53 4.15-2.89.19-5.52 1.85-8.44 1.52-6.22-.18-12.58.74-18.53-1.44-17.07-1.3-34.28-4.6-49.64-12.44-14.62-7.13-27.19-18.51-35.37-32.6-5.88-10.02-9.61-21.21-11.52-32.64-1.9-10.17-1.81-20.57-1.79-30.87-.35-54-.09-108-.17-162 .04-72.86-.12-145.72.16-218.58m246.61 121.29c41.53-12.92 85.26-20.77 128.87-17.42 21.4 1.62 43.06 5.77 62.21 15.85 14.21 7.37 26.52 18.49 34.85 32.19 10.4 16.92 14.97 36.78 16.33 56.42v274.93c-20.53-.03-41.06-.05-61.59.01-2.47-14.84-4.48-29.76-7.12-44.57-13.88 13.23-29.32 24.97-46.45 33.65-21.46 11.06-45.37 17.34-69.5 18.23h-20.68c-20.2-1.33-40.45-6.93-57.38-18.25-15.07-9.9-27.01-24.4-34.02-41-8.05-18.73-10.05-39.59-8.21-59.76 1.46-17.26 6.56-34.37 15.91-49.03 8.51-13.48 20.29-24.68 33.46-33.54 16.86-11.46 35.8-19.44 55.08-25.84 40.63-13.12 83.06-19.57 125.39-24.24.56-14.19-.1-29.01-6.17-42.1-4.51-9.93-13.06-17.74-23.11-21.85-14.62-6.07-30.82-6.52-46.41-5.85-23.54 1.23-46.76 5.99-69.42 12.29-20.1 5.63-39.82 12.59-59.04 20.71-.1-22.48-.08-44.97-.01-67.45 12.16-4.92 24.47-9.5 37.01-13.38m104.81 186.88c-18.96 4.29-37.85 9.74-55.15 18.77-11.36 6-22.21 13.79-29.42 24.61-5.92 8.79-8.77 19.46-8.55 30.02-.19 11.5 3.5 23.52 11.91 31.68 6.15 6.33 14.53 10.04 23.07 11.91 11.22 2.39 22.83 1.75 34.11.07 32.99-5.37 62.78-23.69 85.95-47.29.7-8.74.06-17.58.28-26.36.03-17.69-.06-35.38.05-53.06-20.88 2.27-41.73 5.08-62.25 9.65"/>
  <path d="M948.5 385.49c5.49-15.3 28.78-20.14 39.28-7.28 45.89 52.01 91.03 104.69 136.07 157.46-31.61-.31-63.23-.05-94.85-.18-7.06-.18-14.15.33-21.18-.24-19.79-42.59-38.7-85.62-57.8-128.53-3-6.56-4.75-14.41-1.52-21.23m-85.78-6.83c4.54-5.16 11.33-8.19 18.22-7.97 7.07.56 14.36 3.45 18.69 9.3 5.11 6.84 5.85 16.29 2.52 24.08-19.21 43.99-39.13 87.68-58.8 131.47-38.69-.02-77.46-.13-116.18.14 44.86-52.61 89.95-105.04 135.55-157.02m145.07-215.01c38.66-.58 77.38.04 116.05-.41-42.28 49.61-84.75 99.05-127.74 148.03-5.32 5.87-9.97 13.39-18.02 15.72-7.34 2.76-15.63.64-21.95-3.61-6.22-4.23-9.23-11.96-9.4-19.26.89-9.24 6-17.26 9.44-25.69 16.95-38.38 34.04-76.7 51.62-114.78m-280.6-.42c38.68.46 77.39-.16 116.05.41 19.53 42.14 38.28 84.67 57.17 127.12 2.87 6.21 5.11 13.31 2.97 20.11-3.24 15.2-23.63 22.35-36.08 13.51-5.05-3.77-8.71-8.99-12.89-13.64-42.8-48.82-85.1-98.09-127.22-147.51m487.48 3.46c42.14-10.59 86.57-15.09 129.54-6.92 20.55 4.06 40.98 12.07 56.44 26.59 12.76 11.74 21.32 27.48 25.96 44.07 4.94 17.38 5.95 35.59 5.69 53.57-.02 83.89.04 167.79-.03 251.68-20.71-.06-41.41-.05-62.11-.04-2.44-14.85-4.58-29.74-7.08-44.58-14.82 14-31.33 26.41-49.76 35.27-19.97 9.82-41.95 15.18-64.11 16.67h-23.51c-15.75-1.42-31.49-4.86-45.68-12.01-16.57-8.1-30.75-21.1-39.88-37.15-9.69-16.86-13.97-36.49-13.75-55.84-.24-20.52 3.96-41.45 14.26-59.36 8.48-14.93 21.01-27.24 35.13-36.86 16.62-11.3 35.24-19.32 54.24-25.68 41-13.44 83.89-20 126.66-24.69.36-13.16.03-26.76-4.91-39.18-3.37-8.77-9.55-16.5-17.62-21.37-13.47-8.16-29.72-9.7-45.14-9.6-24.56.21-48.87 4.87-72.55 11.1a488 488 0 0 0-64 22.04c.04-22.38.04-44.76-.01-67.13 20.19-8.39 41.01-15.24 62.22-20.58m46.21 203.18c-17.18 6.2-34.44 14.35-46.81 28.18-12.41 13.71-16.22 34.13-10.79 51.64 2.72 8.84 8.6 16.7 16.52 21.53 11.29 7.04 25.12 8.68 38.17 7.83 37.7-2.17 72.39-22.23 98.36-48.79 1.21-18.36.6-36.84.74-55.26.27-8.06-.8-16.09-.37-24.15-32.38 3.56-64.94 8.27-95.82 19.02M443.04 177.08c45.01-15.08 92.74-24.49 140.35-20.62 21.34 1.68 42.91 6.02 61.9 16.24 14.34 7.62 26.63 19.15 34.81 33.21 9.65 16.39 13.91 35.37 15.39 54.18.5 8.96.27 17.94.31 26.91.01 82.87-.03 165.73.06 248.6-20.47-.2-40.96.15-61.42-.13-.67-1.76-.98-3.63-1.26-5.47-1.99-13-4-25.99-6.09-38.98-15.51 14.37-32.56 27.35-51.84 36.25-19.4 9.21-40.6 14.32-62 15.73h-21.6c-20.11-1.01-40.27-6.42-57.32-17.33-13.69-8.71-25.03-21.07-32.42-35.52-8.44-16.31-12.11-34.87-11.73-53.16-.28-20.99 4.42-42.37 15.4-60.41 8.5-14.07 20.55-25.73 34.11-34.9 17.97-12.2 38.22-20.59 58.84-27.14 39.65-12.34 80.9-18.65 122.09-23.06.11-9.47.35-19.04-1.7-28.35-2.23-11.93-8.18-23.64-18.36-30.66-12.9-9.04-29.2-11.07-44.57-11.21-26.12-.18-51.96 4.87-77.11 11.56-21.31 5.86-42.28 13.04-62.58 21.79.13-22.38-.26-44.78.17-67.14 8.43-4.39 17.66-7.1 26.57-10.39m113.88 183.7c-19.42 4.47-38.79 10.21-56.35 19.82-11.18 6.26-21.76 14.41-28.42 25.56-6.83 11.25-8.36 25.06-6.29 37.88 1.92 11.27 8.59 21.79 18.57 27.55 14.24 8.55 31.67 8.54 47.65 6.45 33.86-4.97 64.57-23.57 88.22-47.79 1.21-7.35.79-14.83.85-22.24 0-15.01.01-30.01.01-45.01-.42-4.05-.71-8.13-.52-12.21-21.38 2.31-42.72 5.26-63.72 9.99" style="fill:url(#b);fill-opacity:1"/>
  <g/>
</svg>
