<?xml version="1.0" encoding="UTF-8" standalone="no"?>
<svg
   xmlns:dc="http://purl.org/dc/elements/1.1/"
   xmlns:cc="http://creativecommons.org/ns#"
   xmlns:rdf="http://www.w3.org/1999/02/22-rdf-syntax-ns#"
   xmlns:svg="http://www.w3.org/2000/svg"
   xmlns="http://www.w3.org/2000/svg"
   xmlns:sodipodi="http://sodipodi.sourceforge.net/DTD/sodipodi-0.dtd"
   xmlns:inkscape="http://www.inkscape.org/namespaces/inkscape"
   version="1.1"
   width="850.90002"
   height="138.8"
   id="svg2"
   xml:space="preserve"
   sodipodi:docname="Beiersdorf Logo (2014).svg"
   inkscape:version="1.0.2 (e86c870879, 2021-01-15, custom)"><sodipodi:namedview
     pagecolor="#ffffff"
     bordercolor="#666666"
     borderopacity="1"
     objecttolerance="10"
     gridtolerance="10"
     guidetolerance="10"
     inkscape:pageopacity="0"
     inkscape:pageshadow="2"
     inkscape:window-width="1366"
     inkscape:window-height="705"
     id="namedview92"
     showgrid="false"
     inkscape:zoom="1.2966667"
     inkscape:cx="381.15684"
     inkscape:cy="45.948585"
     inkscape:window-x="-8"
     inkscape:window-y="-8"
     inkscape:window-maximized="1"
     inkscape:current-layer="svg2" /><metadata
     id="metadata8"><rdf:RDF><cc:Work
         rdf:about=""><dc:format>image/svg+xml</dc:format><dc:type
           rdf:resource="http://purl.org/dc/dcmitype/StillImage" /><dc:title></dc:title></cc:Work></rdf:RDF></metadata><defs
     id="defs6"><clipPath
       id="clipPath102"><path
         d="M 0,0 H 203.74 V 33.105 H 0 Z"
         id="path104" /></clipPath><clipPath
       id="clipPath116"><path
         d="M 0,33.105 V -0.61541 H 203.64 V 33.105"
         id="path118" /></clipPath><clipPath
       id="clipPath126"><path
         d="M 0,33.105 V -0.61541 H 203.64 V 33.105"
         id="path128" /></clipPath><clipPath
       id="clipPath136"><path
         d="M 0,33.105 V -0.61541 H 203.64 V 33.105"
         id="path138" /></clipPath><clipPath
       id="clipPath146"><path
         d="M 0,33.105 V -0.61541 H 203.64 V 33.105"
         id="path148" /></clipPath><clipPath
       id="clipPath156"><path
         d="M 0,33.105 V -0.61541 H 203.64 V 33.105"
         id="path158" /></clipPath><clipPath
       id="clipPath166"><path
         d="M 0,33.105 V -0.61541 H 203.64 V 33.105"
         id="path168" /></clipPath><clipPath
       id="clipPath176"><path
         d="M 0,33.105 V -0.61541 H 203.64 V 33.105"
         id="path178" /></clipPath><clipPath
       id="clipPath186"><path
         d="M 0,33.105 V -0.61541 H 203.64 V 33.105"
         id="path188" /></clipPath><clipPath
       id="clipPath196"><path
         d="M 0,33.105 V -0.61541 H 203.64 V 33.105"
         id="path198" /></clipPath><clipPath
       id="clipPath206"><path
         d="M 0,33.105 V -0.61541 H 203.64 V 33.105"
         id="path208" /></clipPath><clipPath
       id="clipPath216"><path
         d="M 0,33.105 V -0.61541 H 203.64 V 33.105"
         id="path218" /></clipPath></defs><g
     transform="matrix(1.25,0,0,-1.25,-515.67694,1105.6278)"
     id="g10"><g
       transform="matrix(5.7147952,0,0,5.7147952,-1946.739,-3647.8916)"
       id="g3981"><path
         d="m 516.41703,780.87958 v 0 -6.6467 h 3.72645 v 6.55993 c 0,2.47638 0.96373,3.30184 2.66926,3.30184 h 1.31418 v 3.30184 h -1.61791 c -3.90167,0 -6.09198,-2.38961 -6.09198,-6.51691 z"
         id="path120"
         style="fill:#1e347b;fill-opacity:1;fill-rule:nonzero;stroke:none" /><path
         d="m 463.82561,780.87958 v 0 -6.6467 h 3.7247 v 6.55993 c 0,2.47638 0.96432,3.30184 2.67335,3.30184 h 1.31243 v 3.30184 h -1.61908 c -3.9005,0 -6.0914,-2.38961 -6.0914,-6.51691 z"
         id="path130"
         style="fill:#1e347b;fill-opacity:1;fill-rule:nonzero;stroke:none" /><path
         d="m 525.57545,788.39548 v 0 c 0,0.47781 0.0467,2.2155 1.57702,3.2145 1.05135,0.60853 2.14943,0.60853 3.28839,0.60853 h 1.44853 v -2.9108 h -0.83524 c -0.5724,0 -1.13896,-0.0434 -1.44853,-0.60796 -0.21611,-0.30427 -0.21611,-0.47838 -0.21611,-1.04296 v -0.43442 h 2.49988 v -2.99757 h -2.49988 v -7.55912 c 0,0 -0.0876,-2.4328 -2.14942,-2.4328 h -1.66464 c 0,0 -0.0409,13.77157 0,14.1626 z"
         id="path140"
         style="fill:#1e347b;fill-opacity:1;fill-rule:nonzero;stroke:none" /><path
         d="m 419.25482,777.62147 v 0 c 0.52568,0 1.05194,-0.0434 1.57761,0 0.8329,0.0434 1.5338,0.13033 2.06006,0.8254 0.43806,0.56481 0.43806,1.12944 0.43806,1.39032 0,1.47681 -1.09574,1.998 -1.62141,2.08535 -0.39484,0.0868 -1.18335,0.0868 -2.14767,0.0868 h -2.62949 v -3.86653 c 0,0 0.0438,-0.52131 0.52591,-0.52131 h 1.79693 z m -0.13142,7.60233 v 0 c 1.40239,0 2.32232,-0.0434 2.89238,0.2175 0.35045,0.17353 0.96432,0.60796 0.96432,1.65092 0,0.99899 -0.70148,1.43342 -1.05193,1.52019 -0.52626,0.2175 -1.18335,0.2175 -2.3667,0.2175 h -2.62949 v -3.60611 z m -0.17522,6.99471 v 0 c 0.96374,0 1.97186,0.0434 2.93618,-0.0434 0.6571,-0.0868 2.62955,-0.2175 4.07574,-1.73769 0.7009,-0.78207 1.05193,-1.6943 1.05193,-2.78065 0,-0.69473 -0.13142,-2.30226 -1.70961,-3.34522 -0.35045,-0.26031 -0.52568,-0.30369 -0.87613,-0.43442 0.61329,-0.26031 0.96374,-0.52119 1.18336,-0.69473 0.7447,-0.47781 1.88425,-1.60754 1.88425,-3.73632 0,-0.52136 -0.0876,-1.78119 -0.87671,-2.95419 -1.70903,-2.43281 -4.77663,-2.25903 -5.52192,-2.25903 -0.87613,0 -1.70903,0 -2.54176,0 h -3.06777 c -2.49809,0 -2.58574,2.56313 -2.58574,2.56313 v 15.4225 h 6.04818 z"
         id="path150"
         style="fill:#1e347b;fill-opacity:1;fill-rule:nonzero;stroke:none" /><path
         d="m 443.35876,787.26575 v 0 h 3.81289 v -13.03287 h -3.81289 z"
         id="path160"
         style="fill:#1e347b;fill-opacity:1;fill-rule:nonzero;stroke:none" /><path
         d="m 489.59594,780.70604 v 0 c 0,-1.65092 0.47895,-2.51982 1.00462,-3.08457 0.48479,-0.56475 1.05135,-0.78196 1.79898,-0.78196 0.74762,0 1.2733,0.26065 1.48941,0.43442 0.78851,0.56475 1.31418,1.60736 1.31418,3.56226 0,0.30427 0.0876,2.17211 -1.09223,3.17169 -0.26284,0.21692 -0.78851,0.56457 -1.62375,0.56457 -1.4018,-0.0434 -2.89121,-0.99899 -2.89121,-3.86641 z m 9.38037,11.51247 v 0 -17.98563 h -3.77318 c 0,0.0434 0,0.95577 0.0876,1.52052 -0.30373,-0.60819 -0.56656,-0.86885 -0.8294,-1.08612 -1.01046,-0.86884 -2.49988,-0.86884 -2.85033,-0.86884 -0.39717,0 -1.44852,0 -2.45314,0.47788 -1.48942,0.73856 -3.376,2.56319 -3.376,6.34295 0,0.47781 0.0467,1.6943 0.48478,2.95419 0.8294,2.43241 2.75688,4.08333 5.43198,4.08333 1.44852,0 2.41226,-0.52119 2.89121,-0.86884 0.26283,-0.26031 0.39717,-0.47781 0.48479,-0.60796 v 3.6923 c 0,0 -0.0467,2.34622 2.45314,2.34622 h 1.44853 z"
         id="path170"
         style="fill:#1e347b;fill-opacity:1;fill-rule:nonzero;stroke:none" /><path
         d="m 437.88065,782.31357 v 0 c 0,0.0868 0,0.30369 -0.0876,0.56458 -0.26283,1.17311 -1.31477,1.86784 -2.49812,1.86784 -1.22716,0 -2.19148,-0.69473 -2.62954,-1.82446 -0.0876,-0.26088 -0.13142,-0.56457 -0.17523,-0.65134 l 5.39051,0.0434 z m -5.3467,-2.69388 v 0 c 0,-0.60801 0.17522,-1.08593 0.52567,-1.60724 0.74529,-1.17294 1.92865,-1.25988 2.41051,-1.25988 1.40239,0 1.97245,0.73857 2.3229,1.21644 h 3.90051 c -1.44619,-3.95335 -4.95244,-4.25745 -6.39863,-4.25745 -1.18335,0.0434 -2.06006,0.26066 -2.49812,0.43443 -2.76096,0.99922 -4.16335,3.60581 -4.16335,6.4299 0,0.73811 0.0876,2.91022 1.49,4.73525 0.70148,0.91223 2.27909,2.38904 5.21528,2.38904 0.43806,0 1.5338,-0.0434 2.71715,-0.52119 1.31477,-0.56458 2.97999,-1.86785 3.59386,-4.99615 0.0438,-0.34765 0.21903,-1.17253 0.21903,-2.12872 0,-0.13016 0,-0.30369 -0.0438,-0.43443 z"
         id="path180"
         style="fill:#1e347b;fill-opacity:1;fill-rule:nonzero;stroke:none" /><path
         d="m 458.30311,782.31357 v 0 c 0,0.0868 0,0.30369 -0.0876,0.56458 -0.26283,1.17311 -1.31477,1.86784 -2.49812,1.86784 -1.22657,0 -2.2347,-0.69473 -2.62954,-1.82446 -0.0876,-0.26088 -0.17522,-0.56457 -0.17522,-0.65134 l 5.3905,0.0434 z m -5.3905,-2.69388 v 0 c 0.0438,-0.60801 0.21961,-1.08593 0.52625,-1.60724 0.78852,-1.17294 1.92806,-1.25988 2.41051,-1.25988 1.40239,0 2.01567,0.73857 2.32232,1.21644 h 3.9005 c -1.40238,-3.95335 -4.90804,-4.25745 -6.35482,-4.25745 -1.22657,0.0434 -2.05947,0.26066 -2.49754,0.43443 -2.80535,0.99922 -4.20773,3.60581 -4.20773,6.4299 0,0.73811 0.0876,2.91022 1.53439,4.73525 0.70089,0.91223 2.2785,2.38904 5.17088,2.38904 0.48245,0 1.57819,-0.0434 2.71774,-0.52119 1.31477,-0.56458 3.0238,-1.86785 3.59328,-4.99615 0.0438,-0.34765 0.21903,-1.17253 0.21903,-2.12872 0,-0.13016 0,-0.30369 -0.0438,-0.43443 h -9.291 z"
         id="path190"
         style="fill:#1e347b;fill-opacity:1;fill-rule:nonzero;stroke:none" /><path
         d="m 480.65363,783.35596 v 0 c -0.0409,0.26088 -0.1285,0.43442 -0.26284,0.65192 -0.26284,0.4778 -0.91701,0.91223 -2.06181,0.91223 -0.35045,0 -0.61329,-0.0434 -0.7009,-0.0434 -0.8294,-0.2175 -1.13896,-0.73869 -1.13896,-1.12973 0,-0.43442 0.39717,-0.65192 0.52567,-0.6953 0.17522,-0.13016 0.83524,-0.26031 1.48941,-0.43443 l 1.40764,-0.2603 1.22658,-0.26089 c 1.31418,-0.34765 2.40642,-0.73869 3.0197,-2.04195 0.0876,-0.26031 0.35045,-0.91212 0.35045,-1.69413 0,-0.43443 -0.0409,-1.47704 -0.78851,-2.51971 -0.74178,-1.12955 -2.19031,-2.04184 -5.08152,-2.04184 -2.85032,0 -4.29301,0.86884 -5.12825,1.86807 -0.39133,0.52131 -0.91701,1.25988 -1.05135,2.78036 h 3.63884 c 0,-0.13033 0.0409,-0.56475 0.30372,-0.95573 0.30957,-0.43442 1.05135,-0.91234 2.32465,-0.91234 0.13434,0 0.43807,0 0.78852,0.0869 0.13433,0.0434 1.18568,0.30416 1.18568,1.21644 0,0.91229 -0.83524,1.04262 -2.23703,1.34677 -2.45315,0.56492 -3.67973,0.82523 -4.60258,1.65069 -0.96374,0.86884 -1.00462,2.04195 -1.00462,2.47638 0,1.12972 0.43806,1.86784 0.65417,2.25887 0.74763,1.08635 2.1027,2.04196 4.86541,2.04196 0.61329,0 3.32928,0.0434 4.9063,-1.86784 0.83524,-0.99957 0.92285,-1.95519 0.92285,-2.43299 h -3.55122 z"
         id="path200"
         style="fill:#1e347b;fill-opacity:1;fill-rule:nonzero;stroke:none" /><path
         d="m 504.62439,780.70604 v 0 c 0,-2.95424 1.67048,-3.86653 3.11317,-3.86653 0.22195,0 0.83523,0.0434 1.40179,0.30409 0.87613,0.47787 1.71137,1.52048 1.71137,3.69259 0,0.2175 0,1.04296 -0.26284,1.78107 -0.22195,0.69531 -0.87612,2.04196 -2.85032,2.04196 -1.44269,-0.0434 -3.11317,-0.86884 -3.11317,-3.95318 z m 7.76247,5.43056 v 0 c 1.57702,-1.30326 2.31881,-3.3886 2.31881,-5.34379 0,-2.91069 -1.61791,-5.69105 -4.46824,-6.64682 -0.52567,-0.17377 -1.31419,-0.34755 -2.54076,-0.34755 -0.48479,0 -1.57702,0 -2.80944,0.43444 -2.71599,1.04265 -4.11778,3.64924 -4.11778,6.47316 0,2.51976 1.09807,4.1273 1.75224,4.90879 0.83524,0.82546 2.45315,2.04196 5.30348,2.04196 0.74762,-0.0434 2.8036,-0.0868 4.56169,-1.52019 z"
         id="path210"
         style="fill:#1e347b;fill-opacity:1;fill-rule:nonzero;stroke:none" /><path
         d="m 447.4783,791.00202 v 0 c 0,-1.12973 -1.00813,-2.04196 -2.2347,-2.04196 -1.18336,0 -2.19148,0.91223 -2.19148,2.04196 0,1.17311 1.00812,2.04195 2.19148,2.04195 1.22657,0 2.2347,-0.86884 2.2347,-2.04195 z"
         id="path220"
         style="fill:#1e347b;fill-opacity:1;fill-rule:nonzero;stroke:none" /></g></g></svg>
