<svg xmlns="http://www.w3.org/2000/svg" xmlns:xlink="http://www.w3.org/1999/xlink" version="1.1" id="rixos" x="0px" y="0px" style="enable-background:new 0 0 652 652;" xml:space="preserve" viewBox="15.4 240.9 623.6 171.2">
<style type="text/css">
	.st0{fill:#897869;}
</style>
<g>
	<path class="st0" d="M231.1,410.5c1.6-0.2,2.5-0.5,2.9-0.9c0.4-0.4,0.6-1.5,0.6-3.2v-17.2c0-1.4-0.2-2.3-0.7-2.8   c-0.4-0.4-1.4-0.7-2.8-0.8V385h11v0.7c-1.5,0.1-2.4,0.4-2.9,0.8c-0.4,0.4-0.7,1.4-0.7,2.8v7.7h12v-7.7c0-1.4-0.2-2.3-0.6-2.8   c-0.4-0.4-1.4-0.7-2.8-0.8V385h11v0.7c-1.5,0.1-2.4,0.4-2.8,0.8c-0.4,0.4-0.6,1.4-0.6,2.8v17.7c0,1.4,0.2,2.4,0.6,2.8   c0.4,0.4,1.4,0.7,2.8,0.8v0.7h-11v-0.7c1.6-0.2,2.5-0.4,2.9-0.9c0.4-0.4,0.6-1.5,0.6-3.2v-7.7h-12v8.2c0,1.4,0.2,2.4,0.7,2.8   c0.4,0.4,1.4,0.7,2.9,0.8v0.7h-11V410.5z"/>
	<path class="st0" d="M231.1,410.5c1.6-0.2,2.5-0.5,2.9-0.9c0.4-0.4,0.6-1.5,0.6-3.2v-17.2c0-1.4-0.2-2.3-0.7-2.8   c-0.4-0.4-1.4-0.7-2.8-0.8V385h11v0.7c-1.5,0.1-2.4,0.4-2.9,0.8c-0.4,0.4-0.7,1.4-0.7,2.8v7.7h12v-7.7c0-1.4-0.2-2.3-0.6-2.8   c-0.4-0.4-1.4-0.7-2.8-0.8V385h11v0.7c-1.5,0.1-2.4,0.4-2.8,0.8c-0.4,0.4-0.6,1.4-0.6,2.8v17.7c0,1.4,0.2,2.4,0.6,2.8   c0.4,0.4,1.4,0.7,2.8,0.8v0.7h-11v-0.7c1.6-0.2,2.5-0.4,2.9-0.9c0.4-0.4,0.6-1.5,0.6-3.2v-7.7h-12v8.2c0,1.4,0.2,2.4,0.7,2.8   c0.4,0.4,1.4,0.7,2.9,0.8v0.7h-11V410.5z"/>
	<path class="st0" d="M276.8,407.4c1.6,2,3.7,3,6.1,3c2.3,0,4.3-1,6-2.9c1.7-2,2.5-5.1,2.5-9.4c0-4.3-0.8-7.5-2.5-9.4   c-1.7-1.9-3.7-2.9-6-2.9c-2.4,0-4.4,1-6.1,3c-1.6,2-2.5,5.1-2.5,9.3C274.4,402.3,275.2,405.4,276.8,407.4 M273.9,387.9   c2.4-2.3,5.4-3.5,9-3.5c3.6,0,6.6,1.2,9,3.5c2.7,2.5,4,5.9,4,10.2c0,4.3-1.4,7.7-4.1,10.3c-2.5,2.3-5.4,3.4-8.9,3.4   c-3.7,0-6.8-1.3-9.3-3.8c-2.5-2.6-3.7-5.9-3.7-9.9C269.9,393.9,271.2,390.5,273.9,387.9"/>
	<path class="st0" d="M276.8,407.4c1.6,2,3.7,3,6.1,3c2.3,0,4.3-1,6-2.9c1.7-2,2.5-5.1,2.5-9.4c0-4.3-0.8-7.5-2.5-9.4   c-1.7-1.9-3.7-2.9-6-2.9c-2.4,0-4.4,1-6.1,3c-1.6,2-2.5,5.1-2.5,9.3C274.4,402.3,275.2,405.4,276.8,407.4 M273.9,387.9   c2.4-2.3,5.4-3.5,9-3.5c3.6,0,6.6,1.2,9,3.5c2.7,2.5,4,5.9,4,10.2c0,4.3-1.4,7.7-4.1,10.3c-2.5,2.3-5.4,3.4-8.9,3.4   c-3.7,0-6.8-1.3-9.3-3.8c-2.5-2.6-3.7-5.9-3.7-9.9C269.9,393.9,271.2,390.5,273.9,387.9"/>
	<path class="st0" d="M304.9,385h22.4l0.2,6.7h-0.9c-0.5-2.1-1.1-3.5-1.8-4.1c-0.7-0.6-2.2-1-4.5-1h-2.2v20.3c0,1.5,0.2,2.5,0.7,2.9   c0.5,0.4,1.5,0.6,3.1,0.7v0.7h-11.6v-0.7c1.7-0.1,2.7-0.4,3.1-0.8c0.4-0.4,0.6-1.5,0.6-3.2v-19.9h-2.2c-2.2,0-3.7,0.3-4.5,1   c-0.8,0.6-1.4,2-1.8,4.1h-1L304.9,385z"/>
	<path class="st0" d="M304.9,385h22.4l0.2,6.7h-0.9c-0.5-2.1-1.1-3.5-1.8-4.1c-0.7-0.6-2.2-1-4.5-1h-2.2v20.3c0,1.5,0.2,2.5,0.7,2.9   c0.5,0.4,1.5,0.6,3.1,0.7v0.7h-11.6v-0.7c1.7-0.1,2.7-0.4,3.1-0.8c0.4-0.4,0.6-1.5,0.6-3.2v-19.9h-2.2c-2.2,0-3.7,0.3-4.5,1   c-0.8,0.6-1.4,2-1.8,4.1h-1L304.9,385z"/>
	<path class="st0" d="M339.5,410.5c1.5-0.2,2.4-0.4,2.8-0.8c0.4-0.4,0.7-1.3,0.7-2.8v-17.7c0-1.4-0.2-2.3-0.6-2.8   c-0.4-0.4-1.4-0.7-2.8-0.8V385h21.1l0.1,5.7h-1c-0.3-1.8-0.8-2.9-1.5-3.4c-0.7-0.5-2.2-0.8-4.5-0.8h-5.4c-0.6,0-0.9,0.1-1.1,0.3   c-0.1,0.2-0.2,0.5-0.2,1v8.9h6.1c1.7,0,2.8-0.3,3.2-0.8c0.5-0.5,0.8-1.5,1.1-3.1h0.9v9.2h-0.9c-0.3-1.5-0.7-2.6-1.1-3   c-0.5-0.5-1.5-0.8-3.2-0.8h-6.1v9.8c0,0.8,0.3,1.3,0.7,1.4c0.5,0.1,2,0.2,4.5,0.2c2.7,0,4.7-0.3,5.9-0.9c1.3-0.6,2.4-2,3.5-4.3h1.1   l-1.8,6.7h-21.5V410.5z"/>
	<path class="st0" d="M339.5,410.5c1.5-0.2,2.4-0.4,2.8-0.8c0.4-0.4,0.7-1.3,0.7-2.8v-17.7c0-1.4-0.2-2.3-0.6-2.8   c-0.4-0.4-1.4-0.7-2.8-0.8V385h21.1l0.1,5.7h-1c-0.3-1.8-0.8-2.9-1.5-3.4c-0.7-0.5-2.2-0.8-4.5-0.8h-5.4c-0.6,0-0.9,0.1-1.1,0.3   c-0.1,0.2-0.2,0.5-0.2,1v8.9h6.1c1.7,0,2.8-0.3,3.2-0.8c0.5-0.5,0.8-1.5,1.1-3.1h0.9v9.2h-0.9c-0.3-1.5-0.7-2.6-1.1-3   c-0.5-0.5-1.5-0.8-3.2-0.8h-6.1v9.8c0,0.8,0.3,1.3,0.7,1.4c0.5,0.1,2,0.2,4.5,0.2c2.7,0,4.7-0.3,5.9-0.9c1.3-0.6,2.4-2,3.5-4.3h1.1   l-1.8,6.7h-21.5V410.5z"/>
	<path class="st0" d="M374.5,410.5c1.5-0.2,2.4-0.4,2.8-0.8c0.4-0.4,0.7-1.3,0.7-2.8v-17.7c0-1.4-0.2-2.3-0.6-2.8   c-0.4-0.4-1.4-0.7-2.9-0.8V385h11.2v0.7c-1.5,0.1-2.4,0.3-2.9,0.7c-0.5,0.4-0.7,1.3-0.7,2.6v19.1c0,0.4,0.1,0.8,0.2,1   c0.2,0.2,0.5,0.4,1,0.5c0.3,0,0.6,0.1,0.9,0.1c0.3,0,1,0,1.9,0c3.5,0,5.9-0.3,7.2-0.9c1.2-0.6,2.4-2.1,3.6-4.5h1l-1.9,6.9h-21.4   V410.5z"/>
	<path class="st0" d="M374.5,410.5c1.5-0.2,2.4-0.4,2.8-0.8c0.4-0.4,0.7-1.3,0.7-2.8v-17.7c0-1.4-0.2-2.3-0.6-2.8   c-0.4-0.4-1.4-0.7-2.9-0.8V385h11.2v0.7c-1.5,0.1-2.4,0.3-2.9,0.7c-0.5,0.4-0.7,1.3-0.7,2.6v19.1c0,0.4,0.1,0.8,0.2,1   c0.2,0.2,0.5,0.4,1,0.5c0.3,0,0.6,0.1,0.9,0.1c0.3,0,1,0,1.9,0c3.5,0,5.9-0.3,7.2-0.9c1.2-0.6,2.4-2.1,3.6-4.5h1l-1.9,6.9h-21.4   V410.5z"/>
	<path class="st0" d="M406.4,403.3c0.7,1.8,1.5,3.2,2.4,4.3c1.6,1.9,3.5,2.8,5.9,2.8c1.3,0,2.4-0.4,3.3-1.2c0.9-0.8,1.4-1.9,1.4-3.4   c0-1.3-0.5-2.4-1.4-3.4c-0.6-0.6-1.9-1.5-3.8-2.7l-3.4-2.1c-1-0.6-1.8-1.3-2.5-2c-1.1-1.3-1.7-2.6-1.7-4.1c0-2,0.7-3.7,2-5   c1.3-1.3,3.1-2,5.3-2c0.9,0,2,0.2,3.3,0.7c1.3,0.4,2,0.7,2.2,0.7c0.5,0,0.8-0.1,1-0.3c0.2-0.2,0.3-0.6,0.4-1h0.8l0.9,8.5h-0.9   c-0.6-2.5-1.7-4.3-3.1-5.3c-1.4-1-2.8-1.5-4.2-1.5c-1.1,0-2,0.3-2.8,1c-0.8,0.6-1.2,1.5-1.2,2.7c0,1,0.3,1.9,0.9,2.6   c0.6,0.7,1.6,1.5,2.9,2.3l3.5,2.2c2.2,1.3,3.7,2.6,4.6,3.7c0.9,1.1,1.3,2.5,1.3,4c0,2.1-0.8,3.8-2.4,5.2c-1.6,1.4-3.6,2.1-6,2.1   c-1.2,0-2.5-0.2-3.9-0.7c-1.3-0.5-2.1-0.7-2.3-0.7c-0.5,0-0.8,0.1-0.9,0.4c-0.2,0.3-0.3,0.6-0.3,0.9h-0.9l-1.2-8.5H406.4z"/>
	<path class="st0" d="M406.4,403.3c0.7,1.8,1.5,3.2,2.4,4.3c1.6,1.9,3.5,2.8,5.9,2.8c1.3,0,2.4-0.4,3.3-1.2c0.9-0.8,1.4-1.9,1.4-3.4   c0-1.3-0.5-2.4-1.4-3.4c-0.6-0.6-1.9-1.5-3.8-2.7l-3.4-2.1c-1-0.6-1.8-1.3-2.5-2c-1.1-1.3-1.7-2.6-1.7-4.1c0-2,0.7-3.7,2-5   c1.3-1.3,3.1-2,5.3-2c0.9,0,2,0.2,3.3,0.7c1.3,0.4,2,0.7,2.2,0.7c0.5,0,0.8-0.1,1-0.3c0.2-0.2,0.3-0.6,0.4-1h0.8l0.9,8.5h-0.9   c-0.6-2.5-1.7-4.3-3.1-5.3c-1.4-1-2.8-1.5-4.2-1.5c-1.1,0-2,0.3-2.8,1c-0.8,0.6-1.2,1.5-1.2,2.7c0,1,0.3,1.9,0.9,2.6   c0.6,0.7,1.6,1.5,2.9,2.3l3.5,2.2c2.2,1.3,3.7,2.6,4.6,3.7c0.9,1.1,1.3,2.5,1.3,4c0,2.1-0.8,3.8-2.4,5.2c-1.6,1.4-3.6,2.1-6,2.1   c-1.2,0-2.5-0.2-3.9-0.7c-1.3-0.5-2.1-0.7-2.3-0.7c-0.5,0-0.8,0.1-0.9,0.4c-0.2,0.3-0.3,0.6-0.3,0.9h-0.9l-1.2-8.5H406.4z"/>
	<path class="st0" d="M504.3,324.3c1.6,4.1,3.4,7.4,5.5,9.9c3.7,4.3,8.2,6.4,13.6,6.4c2.9,0,5.5-0.9,7.6-2.8   c2.2-1.9,3.2-4.5,3.2-7.8c0-3-1.1-5.6-3.2-7.8c-1.4-1.4-4.4-3.5-8.9-6.3l-7.9-4.9c-2.4-1.5-4.3-3-5.7-4.5c-2.6-2.9-3.9-6.1-3.9-9.6   c0-4.6,1.5-8.5,4.6-11.6c3.1-3.1,7.2-4.6,12.3-4.6c2.1,0,4.6,0.5,7.5,1.6c3,1,4.7,1.5,5.1,1.5c1.1,0,1.9-0.3,2.3-0.8   c0.4-0.5,0.8-1.3,1-2.3h1.9l2,19.6h-2.2c-1.5-5.9-3.9-10-7.2-12.4c-3.3-2.3-6.6-3.5-9.8-3.5c-2.5,0-4.7,0.7-6.6,2.2   c-1.9,1.5-2.8,3.5-2.8,6.2c0,2.4,0.7,4.4,2.2,6.1c1.4,1.7,3.7,3.5,6.7,5.3l8.1,5c5.1,3.1,8.6,6,10.7,8.6c2,2.6,3,5.8,3.1,9.3   c0,4.8-1.8,8.9-5.5,12.1c-3.6,3.2-8.3,4.9-13.9,4.9c-2.8,0-5.8-0.5-8.9-1.6c-3.1-1.1-4.9-1.6-5.3-1.6c-1.1,0-1.8,0.3-2.2,1   c-0.4,0.7-0.6,1.4-0.7,2.1h-2l-2.7-19.6H504.3z"/>
	<path class="st0" d="M215.8,341.1c3.7-0.3,6.2-0.8,7.3-1.7c1.1-0.9,1.7-3.1,1.7-6.6v-40.9c0-3.4-0.6-5.6-1.7-6.5   c-1.1-1-3.5-1.6-7.3-1.8v-1.7h27.2v1.7c-3.7,0.2-6.2,0.8-7.3,1.8c-1.1,1-1.7,3.1-1.7,6.5v40.9c0,3.6,0.6,5.8,1.7,6.6   c1.1,0.8,3.5,1.4,7.3,1.7v1.7h-27.2V341.1z"/>
	<path class="st0" d="M409.6,333.9c3.8,4.6,8.5,6.9,14,6.9c5.4,0,10.1-2.2,13.9-6.7c3.9-4.5,5.8-11.7,5.8-21.7   c0-10-1.9-17.3-5.8-21.7c-3.9-4.5-8.5-6.7-13.8-6.7c-5.5,0-10.2,2.3-14,7c-3.8,4.6-5.7,11.8-5.7,21.5   C403.9,322.1,405.8,329.2,409.6,333.9 M402.7,288.8c5.7-5.4,12.6-8.1,20.9-8.1c8.3,0,15.3,2.7,20.9,8.2c6.1,5.9,9.2,13.8,9.2,23.6   c0,10-3.2,17.9-9.5,23.8c-5.7,5.3-12.6,7.9-20.6,7.9c-8.6,0-15.8-2.9-21.5-8.8c-5.8-6-8.7-13.6-8.7-23   C393.5,302.6,396.5,294.7,402.7,288.8"/>
	<path class="st0" d="M111,341.1c3.5-0.3,5.7-1,6.6-2.1c0.9-1,1.3-3.5,1.3-7.3v-39.9c0-3.2-0.5-5.3-1.5-6.3c-1-1-3.1-1.7-6.4-1.9   v-1.7h25.5c5.3,0,9.7,0.7,13.3,2c6.7,2.5,10.1,7.2,10.1,14.1c0,4.6-1.5,8.1-4.5,10.6c-3,2.5-7,4.1-12.1,4.8l19,23.3   c1.2,1.4,2.3,2.5,3.5,3.1c1.2,0.7,2.7,1.1,4.5,1.3v1.7h-14.8l-21.9-28.3l-5.1,0.2v18.1c0,3.4,0.5,5.6,1.5,6.5   c1,0.9,3.3,1.5,6.8,1.8v1.7H111V341.1z M142.5,309.2c4.9-2,7.3-5.8,7.3-11.3c0-5.3-2.2-9-6.6-10.9c-2.3-1-5.4-1.6-9.3-1.6   c-2.6,0-4.2,0.2-4.8,0.6c-0.6,0.4-0.9,1.2-0.9,2.6v22.7C134.9,311.1,139.6,310.4,142.5,309.2"/>
</g>
<polygon class="st0" points="327.2,240.9 334.6,250.6 330.5,274.1 339.1,250.6 350,250.6 327.2,285 304.4,250.6 315.4,250.6   324,274.1 319.8,250.6 "/>
<polygon class="st0" points="354.6,261.2 327.2,301.4 299.9,261.2 286.5,261.2 318.9,311.5 289,357.5 15.4,357.9 69.4,366.5   296.5,367.3 327.2,320.4 358,367.3 585.1,366.5 639,357.9 365.4,357.5 335.6,311.5 368,261.2 "/>
</svg>