<?xml version="1.0" encoding="UTF-8"?>
<svg width="483.52" height="160.5" version="1.1" viewBox="0 0 483.52 160.5" xmlns="http://www.w3.org/2000/svg">
 <title>Gazprom logo (in Russian)</title>
 <g transform="matrix(.30863 0 0 .30863 -5.358 185.75)">
  <path d="m238.67-83.994c-96.604-14.631-177.1-82.417-208.15-175.28-9.4626-28.302-13.197-51.903-13.159-83.171 0.09504-77.954 33.883-149.36 94.642-200.01 30.577-25.489 73.552-46.046 112.67-53.894 13.567-2.7222 36.741-5.4688 46.141-5.4688h5.1921v194.45l-9 0.85995c-23.784 2.2726-44.362 8.5091-62.333 18.891-38.09 22.005-63.891 58.133-71.984 100.79-2.5887 13.646-2.5887 40.353 0 53.999 16.153 85.154 101.21 137.78 184.59 114.2 16.467-4.6559 38.749-16.107 51.874-26.66 24.604-19.782 34.608-40.046 33.179-67.206-0.818-15.551-4.6965-26.845-13.414-39.062-13.777-19.307-35.632-30.293-60.191-30.257-16.862 0.0249-31.703 5.077-45.21 15.39l-6.1762 4.7159v-78.789h189.33v176.95l-11.667 11.243c-38.297 36.908-87.793 60.735-142.33 68.518-17.101 2.4406-57.195 2.3168-74-0.22842zm262.67-89.153v-91.333h1082.7v182.67h-1082.7zm1018.3 55.723c13.413-6.7943 17.542-36.29 8.0095-57.212-0.94-2.0631-4.5903-4.9416-9.2483-7.293-6.4682-3.2652-9.2961-3.8846-17.733-3.8846h-10.038v-45.433l-24.667 0.76674-0.3475 57.621-0.3474 57.621 14.347 0.51173c23.619 0.84241 34.48 0.11027 40.024-2.698zm-29.01-32.39v-13.333h13.333v26.667h-13.333zm-909.33 10.667v-24h12v48.097l26-0.76322v-114.67h-25.333l-0.36557 22.333-0.36558 22.333h-11.936v-45.333h-29.333v116h29.333zm253.33 13.333v-10.667h-24v-26.667h20v-22.667h-20v-22.667h20v-22.667h-49.333v116h53.333zm222.67 5.3333v-5.3333h8.7598c7.4887 0 9.5685-0.55986 14.333-3.8584 12.968-8.9774 14.235-12.795 14.2-42.808-0.036-31.585-0.4809-32.975-13.806-43.147-5.7889-4.4187-7.1255-4.8535-14.923-4.8535h-8.5646v-10.667h-29.333v10.667h-8.2166c-6.8437 0-9.2515 0.66408-14.41 3.9744-3.4065 2.1859-7.4606 5.3359-9.0092 7-4.6054 4.949-7.0307 17.491-7.0307 36.359 0 18.941 2.4165 31.355 7.1076 36.514 1.5908 1.7494 5.2324 4.8994 8.0924 7 4.528 3.3257 6.3804 3.8193 14.333 3.8193h9.1333v10.667h29.333zm-35.667-28.294c-2.945-1.4203-3-1.8831-3-25.243v-23.796h9.3333v25.333c0 26.879 0.028 26.774-6.3333 23.706zm35.667-23.706v-25.333h9.3334v47.572l-3.3961 1.5474c-1.8678 0.85105-3.9678 1.5474-4.6667 1.5474-0.7606 0-1.2706-10.167-1.2706-25.333zm236 10.667v-46.667h17.333v-22.715l-63.333 0.71494-0.3872 11-0.3873 11h17.441v93.333h29.333zm-792-310v-130h98.667v32h-48v228h-50.667zm101.33 127.02c0-3.5847 25.072-246.5 26.081-252.69l0.70624-4.3333h40.606c39.643 0 40.606 0.0629 40.606 2.6522 0 2.9668 24.82 242.78 26.048 251.68l0.78205 5.6667h-50.345l-1.6501-25.667c-0.90753-14.117-2.0029-29.717-2.4342-34.667l-0.78414-9h-12.45c-14.795 0-13.105-3.2794-15.12 29.333-0.79321 12.833-1.7982 27.083-2.2332 31.667l-0.79097 8.3333h-24.511c-24.479 0-24.511-4e-3 -24.511-2.9789zm77.312-100.02c-0.012-3.1167-1.8056-31.167-3.9867-62.333-2.1811-31.167-3.9716-58.017-3.9789-59.667-0.0209-4.7364-3.7909-3.6391-4.5809 1.3333-0.37868 2.3833-2.2136 27.733-4.0777 56.333-1.864 28.6-3.7589 56.05-4.2109 61l-0.82168 9h21.678l-0.0211-5.6667zm104.32 101.04c-8.5052-2.6559-14.314-7.7869-18.526-16.363l-3.7702-7.6777-0.87496-64.667h50.875v53.14l3.5132 2.7634c1.9322 1.5199 4.2513 2.7634 5.1535 2.7634 0.90221 0 3.2213-1.2436 5.1535-2.7634l3.5131-2.7634v-35.15c0-19.332-0.57321-36.657-1.2738-38.5-2.4482-6.4394-7.1676-8.1132-24.333-8.6303l-15.726-0.47376v-27.719h15.4c17.628 0 22.136-1.504 24.456-8.1584 0.92077-2.6413 1.4779-16.149 1.4779-35.834 0-28.915-0.2068-31.782-2.4383-33.801-3.5755-3.2358-10.301-2.8388-12.819 0.75669-1.6784 2.3962-2.0756 7.2447-2.0756 25.333v22.37h-50.896l0.44791-28.333c0.44401-28.086 0.48131-28.401 4.2776-36.133 2.8434-5.7909 5.3767-8.7805 9.837-11.609 9.4671-6.0038 16.434-6.8956 49.667-6.3575 28.43 0.46039 30.339 0.65279 36.482 3.676 7.7709 3.8245 13.4 11.103 16.504 21.338 1.8404 6.069 2.2584 13.36 2.2984 40.085 0.0456 30.467-0.13993 33.071-2.7552 38.667-5.2197 11.169-13.386 17.064-25.346 18.298-4.8045 0.49587-7.1833 1.3419-7.1833 2.5548 0 1.1648 1.5828 1.8135 4.4247 1.8135 12.655 0 23.705 7.0106 28.372 18 2.9187 6.8725 4.1859 52.803 2.0858 75.601-2.1626 23.476-8.2494 33.195-23.701 37.845-8.5673 2.5784-63.908 2.5232-72.219-0.072zm131.7-128.04v-130h120v260h-50.667v-228h-18.667v228h-50.667zm154.67 0v-130h44.455c47.377 0 52.339 0.54537 61.39 6.7476 5.8625 4.0171 9.8429 10.485 12.261 19.924 1.6937 6.6112 1.9643 17.068 1.6292 62.962-0.3956 54.18-0.4493 55.137-3.4669 61.684-4.0311 8.7457-7.5288 12.373-15.602 16.18-6.1185 2.8854-8.3931 3.1449-27.667 3.1569l-21 0.013v89.333h-52zm64.926 10.783 3.741-3.2167 0.3552-48.45c0.3407-46.466 0.246-48.627-2.3137-52.783-2.3743-3.8549-3.3336-4.3333-8.6885-4.3333h-6.0196v112h4.5923c2.9314 0 5.9453-1.1634 8.3333-3.2167zm114.04 117.26c-8.5052-2.6559-14.314-7.7869-18.526-16.363l-3.7702-7.6777-0.3742-99.925c-0.2543-67.909 0.088-102.15 1.0686-106.87 2.1902-10.55 8.0524-18.388 17.062-22.813l7.5769-3.7208h33.333c25.586 0 34.418 0.43686 38 1.8798 13.546 5.4563 19.472 15.186 21.403 35.137 1.5897 16.429 1.5349 168.83-0.067 185.29-2.0083 20.642-8.7304 30.7-23.488 35.141-8.5673 2.5784-63.908 2.5232-72.219-0.072zm41.524-32.804 3.5132-2.7634v-92.798c0-103.16 0.4936-97.675-8.7977-97.675-8.9098 0-8.5357-4.3043-8.5357 98.2v92.273l3.5132 2.7634c1.9322 1.5199 4.2513 2.7634 5.1535 2.7634s3.2213-1.2436 5.1535-2.7634zm90.18-95.237v-130h33.191c25.347 0 33.331 0.39388 33.785 1.6667 0.327 0.91666 8.0322 42.017 17.123 91.333 9.0907 49.317 16.839 89.667 17.217 89.667s8.2116-40.95 17.406-91l16.717-91 67.228-0.71246v260.05h-50.646l-0.3436-81.556c-0.2306-54.702-0.7978-81.707-1.723-82.015-0.8486-0.28279-6.3957 30.202-14.416 79.222-7.17 43.825-13.344 80.747-13.721 82.05-0.6236 2.155-2.5 2.3345-20.907 2l-20.221-0.36752-13.319-81.667c-9.4751-58.096-13.808-81.667-15.011-81.667-1.3487 0-1.6919 16.637-1.6919 82v82h-50.667z" style="fill:#007ac6;stroke-width:1.3333"/>
 </g>
</svg>
