<?xml version="1.0" encoding="UTF-8" standalone="no"?>
<!-- Created with Inkscape (http://www.inkscape.org/) -->

<svg
   xmlns:dc="http://purl.org/dc/elements/1.1/"
   xmlns:cc="http://creativecommons.org/ns#"
   xmlns:rdf="http://www.w3.org/1999/02/22-rdf-syntax-ns#"
   xmlns:svg="http://www.w3.org/2000/svg"
   xmlns="http://www.w3.org/2000/svg"
   version="1.1"
   width="400"
   height="45"
   viewBox="0 0 320.00001 35.999998"
   id="svg2985"
   style="fill-rule:evenodd">
  <metadata
     id="metadata3041">
    <rdf:RDF>
      <cc:Work
         rdf:about="">
        <dc:format>image/svg+xml</dc:format>
        <dc:type
           rdf:resource="http://purl.org/dc/dcmitype/StillImage" />
        <dc:title></dc:title>
      </cc:Work>
    </rdf:RDF>
  </metadata>
  <defs
     id="defs3039" />
  <g
     transform="matrix(1.0724428,0,0,1.0724428,-49.288027,-206.85487)"
     id="g3156">
    <path
       d="m 132.29926,224.07857 -10.421,0 -11.595,-15.615 0,15.615 -9.376,0 0,-29.69 11.137,0 10.901,15.615 0,-15.615 9.354,0 0,29.69 z m 34.836,-12.043 c 0,8.608 -4.888,12.908 -14.659,12.908 -9.755,0 -14.636,-4.3 -14.636,-12.908 l 0,-17.608 9.998,0 0,16.592 c 0,3.953 1.532,5.933 4.596,5.933 3.135,0 4.702,-1.98 4.702,-5.933 l 0,-16.592 9.999,0 0,17.608 z m 33.79801,12.043 -11.996,0 -6.041,-10.659 -0.272,-0.079 0,10.738 -9.95601,0 0,-29.651 13.60601,0 c 3.787,0 6.736,0.807 8.847,2.419 2.24,1.705 3.357,4.176 3.357,7.415 0,1.842 -0.53,3.461 -1.596,4.857 -1.131,1.475 -2.699,2.458 -4.71,2.957 l 8.761,12.003 z m -12.626,-19.667 c 0,-2.124 -1.431,-3.186 -4.302,-3.186 l -1.381,0 0,6.49 1.346,0 c 2.891,0 4.337,-1.101 4.337,-3.304 z m 42.022,10.928 c 0,2.616 -0.959,4.681 -2.871,6.202 -2.125,1.691 -5.26,2.537 -9.397,2.537 l -14.737,0 0,-29.651 14.092,0 c 3.45,0 6.085,0.78 7.902,2.341 1.568,1.344 2.348,3.041 2.348,5.093 0,2.649 -1.439,4.589 -4.316,5.815 2.19,0.465 3.901,1.337 5.111,2.635 1.245,1.331 1.868,3.009 1.868,5.028 z m -11.724,-11.793 c 0,-1.803 -1.203,-2.701 -3.601,-2.701 l -1.803,0 0,5.409 1.109,0 c 2.863,0 4.295,-0.905 4.295,-2.708 z m 1.51,11.335 c 0,-1.974 -1.31,-2.964 -3.937,-2.964 l -2.977,0 0,5.671 2.576,0 c 1.246,0 2.255,-0.216 3.042,-0.656 0.867,-0.472 1.296,-1.16 1.296,-2.051 z m 45.937,9.197 -10.615,0 -1.76,-5.553 -10.228,0 -1.768,5.553 -10.608,0 10.887,-29.651 13.205,0 10.887,29.651 z m -14.451,-12.043 -3.078,-9.426 -3.042,9.426 6.12,0 z m 48.184,12.043 -10.421,0 -11.595,-15.615 0,15.615 -9.376,0 0,-29.69 11.137,0 10.901,15.615 0,-15.615 9.354,0 0,29.69 z m 37.098,0 -12.103,0 -9.334,-13.177 0,13.177 -9.999,0 0,-29.651 9.999,0 0,12.423 9.205,-12.423 11.452,0 -11.445,14.304 12.225,15.347 z"
       id="path3007"
       style="fill:#0066b3;fill-opacity:1;stroke:none" />
    <path
       d="m 84.10426,217.78757 -9.525,-16.497 -9.524001,16.497 19.049001,0 z"
       id="path3009"
       style="fill:#fecc04;fill-opacity:1;stroke:none" />
    <path
       d="m 87.99026,224.52357 -3.889,-6.736 -19.046001,0 9.523001,-16.494 -3.874,-6.709 -17.286001,29.939 34.572001,0 z"
       id="path3011"
       style="fill:#0066b3;fill-opacity:1;stroke:none" />
  </g>
</svg>
